  0
SECTION
  2
HEADER
  9
$ACADVER
  1
AC1024
  9
$ACADMAINTVER
 70
6
  9
$DWGCODEPAGE
  3
ANSI_1252
  9
$LASTSAVEDBY
  1
ezdxf
  9
$INSBASE
 10
0.0
 20
0.0
 30
0.0
  9
$EXTMIN
 10
1e+20
 20
1e+20
 30
1e+20
  9
$EXTMAX
 10
-1e+20
 20
-1e+20
 30
-1e+20
  9
$LIMMIN
 10
0.0
 20
0.0
  9
$LIMMAX
 10
420.0
 20
297.0
  9
$ORTHOMODE
 70
0
  9
$REGENMODE
 70
1
  9
$FILLMODE
 70
1
  9
$QTEXTMODE
 70
0
  9
$MIRRTEXT
 70
1
  9
$LTSCALE
 40
1.0
  9
$ATTMODE
 70
1
  9
$TEXTSIZE
 40
2.5
  9
$TRACEWID
 40
1.0
  9
$TEXTSTYLE
  7
Standard
  9
$CLAYER
  8
0
  9
$CELTYPE
  6
ByLayer
  9
$CECOLOR
 62
256
  9
$CELTSCALE
 40
1.0
  9
$DISPSILH
 70
0
  9
$DIMSCALE
 40
1.0
  9
$DIMASZ
 40
2.5
  9
$DIMEXO
 40
0.625
  9
$DIMDLI
 40
3.75
  9
$DIMRND
 40
0.0
  9
$DIMDLE
 40
0.0
  9
$DIMEXE
 40
1.25
  9
$DIMTP
 40
0.0
  9
$DIMTM
 40
0.0
  9
$DIMTXT
 40
2.5
  9
$DIMCEN
 40
2.5
  9
$DIMTSZ
 40
0.0
  9
$DIMTOL
 70
0
  9
$DIMLIM
 70
0
  9
$DIMTIH
 70
0
  9
$DIMTOH
 70
0
  9
$DIMSE1
 70
0
  9
$DIMSE2
 70
0
  9
$DIMTAD
 70
1
  9
$DIMZIN
 70
8
  9
$DIMBLK
  1

  9
$DIMASO
 70
1
  9
$DIMSHO
 70
1
  9
$DIMPOST
  1

  9
$DIMAPOST
  1

  9
$DIMALT
 70
0
  9
$DIMALTD
 70
3
  9
$DIMALTF
 40
0.03937007874
  9
$DIMLFAC
 40
1.0
  9
$DIMTOFL
 70
1
  9
$DIMTVP
 40
0.0
  9
$DIMTIX
 70
0
  9
$DIMSOXD
 70
0
  9
$DIMSAH
 70
0
  9
$DIMBLK1
  1

  9
$DIMBLK2
  1

  9
$DIMSTYLE
  2
ISO-25
  9
$DIMCLRD
 70
0
  9
$DIMCLRE
 70
0
  9
$DIMCLRT
 70
0
  9
$DIMTFAC
 40
1.0
  9
$DIMGAP
 40
0.625
  9
$DIMJUST
 70
0
  9
$DIMSD1
 70
0
  9
$DIMSD2
 70
0
  9
$DIMTOLJ
 70
0
  9
$DIMTZIN
 70
8
  9
$DIMALTZ
 70
0
  9
$DIMALTTZ
 70
0
  9
$DIMUPT
 70
0
  9
$DIMDEC
 70
2
  9
$DIMTDEC
 70
2
  9
$DIMALTU
 70
2
  9
$DIMALTTD
 70
3
  9
$DIMTXSTY
  7
Standard
  9
$DIMAUNIT
 70
0
  9
$DIMADEC
 70
0
  9
$DIMALTRND
 40
0.0
  9
$DIMAZIN
 70
0
  9
$DIMDSEP
 70
44
  9
$DIMATFIT
 70
3
  9
$DIMFRAC
 70
0
  9
$DIMLDRBLK
  1

  9
$DIMLUNIT
 70
2
  9
$DIMLWD
 70
-2
  9
$DIMLWE
 70
-2
  9
$DIMTMOVE
 70
0
  9
$DIMFXL
 40
1.0
  9
$DIMFXLON
 70
0
  9
$DIMJOGANG
 40
0.785398163397
  9
$DIMTFILL
 70
0
  9
$DIMTFILLCLR
 70
0
  9
$DIMARCSYM
 70
0
  9
$DIMLTYPE
  6

  9
$DIMLTEX1
  6

  9
$DIMLTEX2
  6

  9
$DIMTXTDIRECTION
 70
0
  9
$LUNITS
 70
2
  9
$LUPREC
 70
4
  9
$SKETCHINC
 40
1.0
  9
$FILLETRAD
 40
10.0
  9
$AUNITS
 70
0
  9
$AUPREC
 70
2
  9
$MENU
  1
.
  9
$ELEVATION
 40
0.0
  9
$PELEVATION
 40
0.0
  9
$THICKNESS
 40
0.0
  9
$LIMCHECK
 70
0
  9
$CHAMFERA
 40
0.0
  9
$CHAMFERB
 40
0.0
  9
$CHAMFERC
 40
0.0
  9
$CHAMFERD
 40
0.0
  9
$SKPOLY
 70
0
  9
$TDCREATE
 40
2460425.96244213
  9
$TDUCREATE
 40
2458532.153996898
  9
$TDUPDATE
 40
2460425.96244213
  9
$TDUUPDATE
 40
2458532.1544311
  9
$TDINDWG
 40
0.0
  9
$TDUSRTIMER
 40
0.0
  9
$USRTIMER
 70
1
  9
$ANGBASE
 50
0.0
  9
$ANGDIR
 70
0
  9
$PDMODE
 70
0
  9
$PDSIZE
 40
0.0
  9
$PLINEWID
 40
0.0
  9
$SPLFRAME
 70
0
  9
$SPLINETYPE
 70
6
  9
$SPLINESEGS
 70
8
  9
$HANDSEED
  5
33F
  9
$SURFTAB1
 70
6
  9
$SURFTAB2
 70
6
  9
$SURFTYPE
 70
6
  9
$SURFU
 70
6
  9
$SURFV
 70
6
  9
$UCSBASE
  2

  9
$UCSNAME
  2

  9
$UCSORG
 10
0.0
 20
0.0
 30
0.0
  9
$UCSXDIR
 10
1.0
 20
0.0
 30
0.0
  9
$UCSYDIR
 10
0.0
 20
1.0
 30
0.0
  9
$UCSORTHOREF
  2

  9
$UCSORTHOVIEW
 70
0
  9
$UCSORGTOP
 10
0.0
 20
0.0
 30
0.0
  9
$UCSORGBOTTOM
 10
0.0
 20
0.0
 30
0.0
  9
$UCSORGLEFT
 10
0.0
 20
0.0
 30
0.0
  9
$UCSORGRIGHT
 10
0.0
 20
0.0
 30
0.0
  9
$UCSORGFRONT
 10
0.0
 20
0.0
 30
0.0
  9
$UCSORGBACK
 10
0.0
 20
0.0
 30
0.0
  9
$PUCSBASE
  2

  9
$PUCSNAME
  2

  9
$PUCSORG
 10
0.0
 20
0.0
 30
0.0
  9
$PUCSXDIR
 10
1.0
 20
0.0
 30
0.0
  9
$PUCSYDIR
 10
0.0
 20
1.0
 30
0.0
  9
$PUCSORTHOREF
  2

  9
$PUCSORTHOVIEW
 70
0
  9
$PUCSORGTOP
 10
0.0
 20
0.0
 30
0.0
  9
$PUCSORGBOTTOM
 10
0.0
 20
0.0
 30
0.0
  9
$PUCSORGLEFT
 10
0.0
 20
0.0
 30
0.0
  9
$PUCSORGRIGHT
 10
0.0
 20
0.0
 30
0.0
  9
$PUCSORGFRONT
 10
0.0
 20
0.0
 30
0.0
  9
$PUCSORGBACK
 10
0.0
 20
0.0
 30
0.0
  9
$USERI1
 70
0
  9
$USERI2
 70
0
  9
$USERI3
 70
0
  9
$USERI4
 70
0
  9
$USERI5
 70
0
  9
$USERR1
 40
0.0
  9
$USERR2
 40
0.0
  9
$USERR3
 40
0.0
  9
$USERR4
 40
0.0
  9
$USERR5
 40
0.0
  9
$WORLDVIEW
 70
1
  9
$SHADEDGE
 70
3
  9
$SHADEDIF
 70
70
  9
$TILEMODE
 70
1
  9
$MAXACTVP
 70
64
  9
$PINSBASE
 10
0.0
 20
0.0
 30
0.0
  9
$PLIMCHECK
 70
0
  9
$PEXTMIN
 10
1e+20
 20
1e+20
 30
1e+20
  9
$PEXTMAX
 10
-1e+20
 20
-1e+20
 30
-1e+20
  9
$PLIMMIN
 10
0.0
 20
0.0
  9
$PLIMMAX
 10
420.0
 20
297.0
  9
$UNITMODE
 70
0
  9
$VISRETAIN
 70
1
  9
$PLINEGEN
 70
0
  9
$PSLTSCALE
 70
1
  9
$TREEDEPTH
 70
3020
  9
$CMLSTYLE
  2
Standard
  9
$CMLJUST
 70
0
  9
$CMLSCALE
 40
20.0
  9
$PROXYGRAPHICS
 70
1
  9
$MEASUREMENT
 70
1
  9
$CELWEIGHT
370
-1
  9
$ENDCAPS
280
0
  9
$JOINSTYLE
280
0
  9
$LWDISPLAY
290
0
  9
$INSUNITS
 70
6
  9
$HYPERLINKBASE
  1

  9
$STYLESHEET
  1

  9
$XEDIT
290
1
  9
$CEPSNTYPE
380
0
  9
$PSTYLEMODE
290
1
  9
$FINGERPRINTGUID
  2
{09CF1764-BED1-49A8-BC52-FD6745035153}
  9
$VERSIONGUID
  2
{81462426-5629-4AAC-BFB0-E3A26B60AD57}
  9
$EXTNAMES
290
1
  9
$PSVPSCALE
 40
0.0
  9
$OLESTARTUP
290
0
  9
$SORTENTS
280
127
  9
$INDEXCTL
280
0
  9
$HIDETEXT
280
1
  9
$XCLIPFRAME
280
2
  9
$HALOGAP
280
0
  9
$OBSCOLOR
 70
257
  9
$OBSLTYPE
280
0
  9
$INTERSECTIONDISPLAY
280
0
  9
$INTERSECTIONCOLOR
 70
257
  9
$DIMASSOC
280
2
  9
$PROJECTNAME
  1

  9
$CAMERADISPLAY
290
0
  9
$LENSLENGTH
 40
50.0
  9
$CAMERAHEIGHT
 40
0.0
  9
$STEPSPERSEC
 40
24.0
  9
$STEPSIZE
 40
100.0
  9
$3DDWFPREC
 40
2.0
  9
$PSOLWIDTH
 40
0.005
  9
$PSOLHEIGHT
 40
0.08
  9
$LOFTANG1
 40
1.570796326795
  9
$LOFTANG2
 40
1.570796326795
  9
$LOFTMAG1
 40
0.0
  9
$LOFTMAG2
 40
0.0
  9
$LOFTPARAM
 70
7
  9
$LOFTNORMALS
280
1
  9
$LATITUDE
 40
37.795
  9
$LONGITUDE
 40
-122.394
  9
$NORTHDIRECTION
 40
0.0
  9
$TIMEZONE
 70
-8000
  9
$LIGHTGLYPHDISPLAY
280
1
  9
$TILEMODELIGHTSYNCH
280
1
  9
$CMATERIAL
347
20
  9
$SOLIDHIST
280
0
  9
$SHOWHIST
280
1
  9
$DWFFRAME
280
2
  9
$DGNFRAME
280
2
  9
$REALWORLDSCALE
290
1
  9
$INTERFERECOLOR
 62
256
  9
$CSHADOW
280
0
  9
$SHADOWPLANELOCATION
 40
0.0
  0
ENDSEC
  0
SECTION
  2
CLASSES
  0
CLASS
  1
ACDBDICTIONARYWDFLT
  2
AcDbDictionaryWithDefault
  3
ObjectDBX Classes
 90
0
 91
0
280
0
281
0
  0
CLASS
  1
SUN
  2
AcDbSun
  3
SCENEOE
 90
1153
 91
0
280
0
281
0
  0
CLASS
  1
VISUALSTYLE
  2
AcDbVisualStyle
  3
ObjectDBX Classes
 90
4095
 91
0
280
0
281
0
  0
CLASS
  1
MATERIAL
  2
AcDbMaterial
  3
ObjectDBX Classes
 90
1153
 91
0
280
0
281
0
  0
CLASS
  1
SCALE
  2
AcDbScale
  3
ObjectDBX Classes
 90
1153
 91
0
280
0
281
0
  0
CLASS
  1
TABLESTYLE
  2
AcDbTableStyle
  3
ObjectDBX Classes
 90
4095
 91
0
280
0
281
0
  0
CLASS
  1
MLEADERSTYLE
  2
AcDbMLeaderStyle
  3
ACDB_MLEADERSTYLE_CLASS
 90
4095
 91
0
280
0
281
0
  0
CLASS
  1
DICTIONARYVAR
  2
AcDbDictionaryVar
  3
ObjectDBX Classes
 90
0
 91
0
280
0
281
0
  0
CLASS
  1
CELLSTYLEMAP
  2
AcDbCellStyleMap
  3
ObjectDBX Classes
 90
1152
 91
0
280
0
281
0
  0
CLASS
  1
MENTALRAYRENDERSETTINGS
  2
AcDbMentalRayRenderSettings
  3
SCENEOE
 90
1024
 91
0
280
0
281
0
  0
CLASS
  1
ACDBDETAILVIEWSTYLE
  2
AcDbDetailViewStyle
  3
ObjectDBX Classes
 90
1025
 91
0
280
0
281
0
  0
CLASS
  1
ACDBSECTIONVIEWSTYLE
  2
AcDbSectionViewStyle
  3
ObjectDBX Classes
 90
1025
 91
0
280
0
281
0
  0
CLASS
  1
RASTERVARIABLES
  2
AcDbRasterVariables
  3
ISM
 90
0
 91
0
280
0
281
0
  0
CLASS
  1
ACDBPLACEHOLDER
  2
AcDbPlaceHolder
  3
ObjectDBX Classes
 90
0
 91
0
280
0
281
0
  0
CLASS
  1
LAYOUT
  2
AcDbLayout
  3
ObjectDBX Classes
 90
0
 91
0
280
0
281
0
  0
ENDSEC
  0
SECTION
  2
TABLES
  0
TABLE
  2
VPORT
  5
8
330
0
100
AcDbSymbolTable
 70
1
  0
VPORT
  5
23
330
8
100
AcDbSymbolTableRecord
100
AcDbViewportTableRecord
  2
*Active
 70
0
 10
0.0
 20
0.0
 11
1.0
 21
1.0
 12
0.0
 22
0.0
 13
0.0
 23
0.0
 14
0.5
 24
0.5
 15
0.5
 25
0.5
 16
0.0
 26
0.0
 36
1.0
 17
0.0
 27
0.0
 37
0.0
 40
1000.0
 41
1.34
 42
50.0
 43
0.0
 44
0.0
 50
0.0
 51
0.0
 71
0
 72
1000
 73
1
 74
3
 75
0
 76
0
 77
0
 78
0
281
0
 65
0
146
0.0
  0
ENDTAB
  0
TABLE
  2
LTYPE
  5
2
330
0
100
AcDbSymbolTable
 70
3
  0
LTYPE
  5
24
330
2
100
AcDbSymbolTableRecord
100
AcDbLinetypeTableRecord
  2
ByBlock
 70
0
  3

 72
65
 73
0
 40
0.0
  0
LTYPE
  5
25
330
2
100
AcDbSymbolTableRecord
100
AcDbLinetypeTableRecord
  2
ByLayer
 70
0
  3

 72
65
 73
0
 40
0.0
  0
LTYPE
  5
26
330
2
100
AcDbSymbolTableRecord
100
AcDbLinetypeTableRecord
  2
Continuous
 70
0
  3

 72
65
 73
0
 40
0.0
  0
ENDTAB
  0
TABLE
  2
LAYER
  5
1
330
0
100
AcDbSymbolTable
 70
3
  0
LAYER
  5
27
330
1
100
AcDbSymbolTableRecord
100
AcDbLayerTableRecord
  2
0
 70
0
 62
7
  6
Continuous
370
-3
390
13
347
21
  0
LAYER
  5
28
330
1
100
AcDbSymbolTableRecord
100
AcDbLayerTableRecord
  2
Defpoints
 70
0
 62
7
  6
Continuous
290
0
370
-3
390
13
347
21
  0
LAYER
  5
2F
330
1
100
AcDbSymbolTableRecord
100
AcDbLayerTableRecord
  2
lens_outline
 70
0
 62
7
  6
Continuous
370
-3
390
13
347
21
  0
ENDTAB
  0
TABLE
  2
STYLE
  5
5
330
0
100
AcDbSymbolTable
 70
1
  0
STYLE
  5
29
330
5
100
AcDbSymbolTableRecord
100
AcDbTextStyleTableRecord
  2
Standard
 70
0
 40
0.0
 41
1.0
 50
0.0
 71
0
 42
2.5
  3
txt
  4

  0
ENDTAB
  0
TABLE
  2
VIEW
  5
7
330
0
100
AcDbSymbolTable
 70
0
  0
ENDTAB
  0
TABLE
  2
UCS
  5
6
330
0
100
AcDbSymbolTable
 70
0
  0
ENDTAB
  0
TABLE
  2
APPID
  5
3
330
0
100
AcDbSymbolTable
 70
3
  0
APPID
  5
2A
330
3
100
AcDbSymbolTableRecord
100
AcDbRegAppTableRecord
  2
ACAD
 70
0
  0
APPID
  5
33C
330
3
100
AcDbSymbolTableRecord
100
AcDbRegAppTableRecord
  2
HATCHBACKGROUNDCOLOR
 70
0
  0
APPID
  5
33D
330
3
100
AcDbSymbolTableRecord
100
AcDbRegAppTableRecord
  2
EZDXF
 70
0
  0
ENDTAB
  0
TABLE
  2
DIMSTYLE
  5
4
330
0
100
AcDbSymbolTable
 70
1
100
AcDbDimStyleTable
  0
DIMSTYLE
105
2B
330
4
100
AcDbSymbolTableRecord
100
AcDbDimStyleTableRecord
  2
Standard
 70
0
 40
1.0
 41
2.5
 42
0.625
 43
3.75
 44
1.25
 45
0.0
 46
0.0
 47
0.0
 48
0.0
 49
2.5
140
2.5
141
2.5
142
0.0
143
0.03937007874
144
1.0
145
0.0
146
1.0
147
0.625
148
0.0
 69
0
 70
0
 71
0
 72
0
 73
0
 74
0
 75
0
 76
0
 77
1
 78
8
 79
3
170
0
171
3
172
1
173
0
174
0
175
0
176
0
177
0
178
0
179
2
271
2
272
2
273
2
274
3
275
0
276
0
277
2
278
44
279
0
280
0
281
0
282
0
283
0
284
8
285
0
286
0
288
0
289
3
290
0
371
-2
372
-2
  0
ENDTAB
  0
TABLE
  2
BLOCK_RECORD
  5
9
330
0
100
AcDbSymbolTable
 70
2
  0
BLOCK_RECORD
  5
17
330
9
100
AcDbSymbolTableRecord
100
AcDbBlockTableRecord
  2
*Model_Space
340
1A
 70
0
280
1
281
0
  0
BLOCK_RECORD
  5
1B
330
9
100
AcDbSymbolTableRecord
100
AcDbBlockTableRecord
  2
*Paper_Space
340
1E
 70
0
280
1
281
0
  0
ENDTAB
  0
ENDSEC
  0
SECTION
  2
BLOCKS
  0
BLOCK
  5
18
330
17
100
AcDbEntity
  8
0
100
AcDbBlockBegin
  2
*Model_Space
 70
0
 10
0.0
 20
0.0
 30
0.0
  3
*Model_Space
  1

  0
ENDBLK
  5
19
330
17
100
AcDbEntity
  8
0
100
AcDbBlockEnd
  0
BLOCK
  5
1C
330
1B
100
AcDbEntity
  8
0
100
AcDbBlockBegin
  2
*Paper_Space
 70
0
 10
0.0
 20
0.0
 30
0.0
  3
*Paper_Space
  1

  0
ENDBLK
  5
1D
330
1B
100
AcDbEntity
  8
0
100
AcDbBlockEnd
  0
ENDSEC
  0
SECTION
  2
ENTITIES
  0
LINE
  5
30
330
17
100
AcDbEntity
  8
lens_outline
370
-3
100
AcDbLine
 10
78.14102564102564
 20
111.3
 30
0.0
 11
78.0051282051282
 21
111.43589743589743
 31
0.0
  0
LINE
  5
31
330
17
100
AcDbEntity
  8
lens_outline
370
-3
100
AcDbLine
 10
78.0051282051282
 20
111.43589743589743
 30
0.0
 11
76.23846153846154
 21
111.43589743589743
 31
0.0
  0
LINE
  5
32
330
17
100
AcDbEntity
  8
lens_outline
370
-3
100
AcDbLine
 10
76.23846153846154
 20
111.43589743589743
 30
0.0
 11
76.1025641025641
 21
111.57179487179486
 31
0.0
  0
LINE
  5
33
330
17
100
AcDbEntity
  8
lens_outline
370
-3
100
AcDbLine
 10
76.1025641025641
 20
111.57179487179486
 30
0.0
 11
74.87948717948717
 21
111.57179487179486
 31
0.0
  0
LINE
  5
34
330
17
100
AcDbEntity
  8
lens_outline
370
-3
100
AcDbLine
 10
74.87948717948717
 20
111.57179487179486
 30
0.0
 11
74.74358974358974
 21
111.7076923076923
 31
0.0
  0
LINE
  5
35
330
17
100
AcDbEntity
  8
lens_outline
370
-3
100
AcDbLine
 10
74.74358974358974
 20
111.7076923076923
 30
0.0
 11
73.92820512820512
 21
111.7076923076923
 31
0.0
  0
LINE
  5
36
330
17
100
AcDbEntity
  8
lens_outline
370
-3
100
AcDbLine
 10
73.92820512820512
 20
111.7076923076923
 30
0.0
 11
73.79230769230769
 21
111.84358974358973
 31
0.0
  0
LINE
  5
37
330
17
100
AcDbEntity
  8
lens_outline
370
-3
100
AcDbLine
 10
73.79230769230769
 20
111.84358974358973
 30
0.0
 11
72.84102564102564
 21
111.84358974358973
 31
0.0
  0
LINE
  5
38
330
17
100
AcDbEntity
  8
lens_outline
370
-3
100
AcDbLine
 10
72.84102564102564
 20
111.84358974358973
 30
0.0
 11
72.7051282051282
 21
111.97948717948717
 31
0.0
  0
LINE
  5
39
330
17
100
AcDbEntity
  8
lens_outline
370
-3
100
AcDbLine
 10
72.7051282051282
 20
111.97948717948717
 30
0.0
 11
71.75384615384615
 21
111.97948717948717
 31
0.0
  0
LINE
  5
3A
330
17
100
AcDbEntity
  8
lens_outline
370
-3
100
AcDbLine
 10
71.75384615384615
 20
111.97948717948717
 30
0.0
 11
71.6179487179487
 21
112.11538461538461
 31
0.0
  0
LINE
  5
3B
330
17
100
AcDbEntity
  8
lens_outline
370
-3
100
AcDbLine
 10
71.6179487179487
 20
112.11538461538461
 30
0.0
 11
70.93846153846154
 21
112.11538461538461
 31
0.0
  0
LINE
  5
3C
330
17
100
AcDbEntity
  8
lens_outline
370
-3
100
AcDbLine
 10
70.93846153846154
 20
112.11538461538461
 30
0.0
 11
70.80256410256409
 21
112.25128205128205
 31
0.0
  0
LINE
  5
3D
330
17
100
AcDbEntity
  8
lens_outline
370
-3
100
AcDbLine
 10
70.80256410256409
 20
112.25128205128205
 30
0.0
 11
70.25897435897436
 21
112.25128205128205
 31
0.0
  0
LINE
  5
3E
330
17
100
AcDbEntity
  8
lens_outline
370
-3
100
AcDbLine
 10
70.25897435897436
 20
112.25128205128205
 30
0.0
 11
70.12307692307692
 21
112.38717948717948
 31
0.0
  0
LINE
  5
3F
330
17
100
AcDbEntity
  8
lens_outline
370
-3
100
AcDbLine
 10
70.12307692307692
 20
112.38717948717948
 30
0.0
 11
69.71538461538461
 21
112.38717948717948
 31
0.0
  0
LINE
  5
40
330
17
100
AcDbEntity
  8
lens_outline
370
-3
100
AcDbLine
 10
69.71538461538461
 20
112.38717948717948
 30
0.0
 11
69.57948717948717
 21
112.52307692307691
 31
0.0
  0
LINE
  5
41
330
17
100
AcDbEntity
  8
lens_outline
370
-3
100
AcDbLine
 10
69.57948717948717
 20
112.52307692307691
 30
0.0
 11
69.03589743589743
 21
112.52307692307691
 31
0.0
  0
LINE
  5
42
330
17
100
AcDbEntity
  8
lens_outline
370
-3
100
AcDbLine
 10
69.03589743589743
 20
112.52307692307691
 30
0.0
 11
68.89999999999999
 21
112.65897435897435
 31
0.0
  0
LINE
  5
43
330
17
100
AcDbEntity
  8
lens_outline
370
-3
100
AcDbLine
 10
68.89999999999999
 20
112.65897435897435
 30
0.0
 11
68.49230769230769
 21
112.65897435897435
 31
0.0
  0
LINE
  5
44
330
17
100
AcDbEntity
  8
lens_outline
370
-3
100
AcDbLine
 10
68.49230769230769
 20
112.65897435897435
 30
0.0
 11
68.35641025641026
 21
112.79487179487178
 31
0.0
  0
LINE
  5
45
330
17
100
AcDbEntity
  8
lens_outline
370
-3
100
AcDbLine
 10
68.35641025641026
 20
112.79487179487178
 30
0.0
 11
67.94871794871794
 21
112.79487179487178
 31
0.0
  0
LINE
  5
46
330
17
100
AcDbEntity
  8
lens_outline
370
-3
100
AcDbLine
 10
67.94871794871794
 20
112.79487179487178
 30
0.0
 11
67.81282051282051
 21
112.93076923076922
 31
0.0
  0
LINE
  5
47
330
17
100
AcDbEntity
  8
lens_outline
370
-3
100
AcDbLine
 10
67.81282051282051
 20
112.93076923076922
 30
0.0
 11
67.54102564102564
 21
112.93076923076922
 31
0.0
  0
LINE
  5
48
330
17
100
AcDbEntity
  8
lens_outline
370
-3
100
AcDbLine
 10
67.54102564102564
 20
112.93076923076922
 30
0.0
 11
67.4051282051282
 21
113.06666666666666
 31
0.0
  0
LINE
  5
49
330
17
100
AcDbEntity
  8
lens_outline
370
-3
100
AcDbLine
 10
67.4051282051282
 20
113.06666666666666
 30
0.0
 11
66.99743589743589
 21
113.06666666666666
 31
0.0
  0
LINE
  5
4A
330
17
100
AcDbEntity
  8
lens_outline
370
-3
100
AcDbLine
 10
66.99743589743589
 20
113.06666666666666
 30
0.0
 11
66.86153846153846
 21
113.2025641025641
 31
0.0
  0
LINE
  5
4B
330
17
100
AcDbEntity
  8
lens_outline
370
-3
100
AcDbLine
 10
66.86153846153846
 20
113.2025641025641
 30
0.0
 11
66.58974358974359
 21
113.2025641025641
 31
0.0
  0
LINE
  5
4C
330
17
100
AcDbEntity
  8
lens_outline
370
-3
100
AcDbLine
 10
66.58974358974359
 20
113.2025641025641
 30
0.0
 11
66.45384615384614
 21
113.33846153846153
 31
0.0
  0
LINE
  5
4D
330
17
100
AcDbEntity
  8
lens_outline
370
-3
100
AcDbLine
 10
66.45384615384614
 20
113.33846153846153
 30
0.0
 11
66.04615384615384
 21
113.33846153846153
 31
0.0
  0
LINE
  5
4E
330
17
100
AcDbEntity
  8
lens_outline
370
-3
100
AcDbLine
 10
66.04615384615384
 20
113.33846153846153
 30
0.0
 11
65.91025641025641
 21
113.47435897435896
 31
0.0
  0
LINE
  5
4F
330
17
100
AcDbEntity
  8
lens_outline
370
-3
100
AcDbLine
 10
65.91025641025641
 20
113.47435897435896
 30
0.0
 11
65.63846153846153
 21
113.47435897435896
 31
0.0
  0
LINE
  5
50
330
17
100
AcDbEntity
  8
lens_outline
370
-3
100
AcDbLine
 10
65.63846153846153
 20
113.47435897435896
 30
0.0
 11
65.5025641025641
 21
113.6102564102564
 31
0.0
  0
LINE
  5
51
330
17
100
AcDbEntity
  8
lens_outline
370
-3
100
AcDbLine
 10
65.5025641025641
 20
113.6102564102564
 30
0.0
 11
65.23076923076923
 21
113.6102564102564
 31
0.0
  0
LINE
  5
52
330
17
100
AcDbEntity
  8
lens_outline
370
-3
100
AcDbLine
 10
65.23076923076923
 20
113.6102564102564
 30
0.0
 11
65.09487179487179
 21
113.74615384615383
 31
0.0
  0
LINE
  5
53
330
17
100
AcDbEntity
  8
lens_outline
370
-3
100
AcDbLine
 10
65.09487179487179
 20
113.74615384615383
 30
0.0
 11
64.82307692307691
 21
113.74615384615383
 31
0.0
  0
LINE
  5
54
330
17
100
AcDbEntity
  8
lens_outline
370
-3
100
AcDbLine
 10
64.82307692307691
 20
113.74615384615383
 30
0.0
 11
64.68717948717948
 21
113.88205128205128
 31
0.0
  0
LINE
  5
55
330
17
100
AcDbEntity
  8
lens_outline
370
-3
100
AcDbLine
 10
64.68717948717948
 20
113.88205128205128
 30
0.0
 11
64.41538461538461
 21
113.88205128205128
 31
0.0
  0
LINE
  5
56
330
17
100
AcDbEntity
  8
lens_outline
370
-3
100
AcDbLine
 10
64.41538461538461
 20
113.88205128205128
 30
0.0
 11
64.27948717948718
 21
114.01794871794871
 31
0.0
  0
LINE
  5
57
330
17
100
AcDbEntity
  8
lens_outline
370
-3
100
AcDbLine
 10
64.27948717948718
 20
114.01794871794871
 30
0.0
 11
64.14358974358974
 21
114.01794871794871
 31
0.0
  0
LINE
  5
58
330
17
100
AcDbEntity
  8
lens_outline
370
-3
100
AcDbLine
 10
64.14358974358974
 20
114.01794871794871
 30
0.0
 11
64.00769230769231
 21
114.15384615384615
 31
0.0
  0
LINE
  5
59
330
17
100
AcDbEntity
  8
lens_outline
370
-3
100
AcDbLine
 10
64.00769230769231
 20
114.15384615384615
 30
0.0
 11
63.73589743589743
 21
114.15384615384615
 31
0.0
  0
LINE
  5
5A
330
17
100
AcDbEntity
  8
lens_outline
370
-3
100
AcDbLine
 10
63.73589743589743
 20
114.15384615384615
 30
0.0
 11
63.599999999999994
 21
114.28974358974358
 31
0.0
  0
LINE
  5
5B
330
17
100
AcDbEntity
  8
lens_outline
370
-3
100
AcDbLine
 10
63.599999999999994
 20
114.28974358974358
 30
0.0
 11
63.32820512820512
 21
114.28974358974358
 31
0.0
  0
LINE
  5
5C
330
17
100
AcDbEntity
  8
lens_outline
370
-3
100
AcDbLine
 10
63.32820512820512
 20
114.28974358974358
 30
0.0
 11
63.192307692307686
 21
114.42564102564101
 31
0.0
  0
LINE
  5
5D
330
17
100
AcDbEntity
  8
lens_outline
370
-3
100
AcDbLine
 10
63.192307692307686
 20
114.42564102564101
 30
0.0
 11
62.92051282051281
 21
114.42564102564101
 31
0.0
  0
LINE
  5
5E
330
17
100
AcDbEntity
  8
lens_outline
370
-3
100
AcDbLine
 10
62.92051282051281
 20
114.42564102564101
 30
0.0
 11
62.78461538461538
 21
114.56153846153845
 31
0.0
  0
LINE
  5
5F
330
17
100
AcDbEntity
  8
lens_outline
370
-3
100
AcDbLine
 10
62.78461538461538
 20
114.56153846153845
 30
0.0
 11
62.648717948717945
 21
114.56153846153845
 31
0.0
  0
LINE
  5
60
330
17
100
AcDbEntity
  8
lens_outline
370
-3
100
AcDbLine
 10
62.648717948717945
 20
114.56153846153845
 30
0.0
 11
62.51282051282051
 21
114.6974358974359
 31
0.0
  0
LINE
  5
61
330
17
100
AcDbEntity
  8
lens_outline
370
-3
100
AcDbLine
 10
62.51282051282051
 20
114.6974358974359
 30
0.0
 11
62.24102564102564
 21
114.6974358974359
 31
0.0
  0
LINE
  5
62
330
17
100
AcDbEntity
  8
lens_outline
370
-3
100
AcDbLine
 10
62.24102564102564
 20
114.6974358974359
 30
0.0
 11
62.1051282051282
 21
114.83333333333333
 31
0.0
  0
LINE
  5
63
330
17
100
AcDbEntity
  8
lens_outline
370
-3
100
AcDbLine
 10
62.1051282051282
 20
114.83333333333333
 30
0.0
 11
61.83333333333333
 21
114.83333333333333
 31
0.0
  0
LINE
  5
64
330
17
100
AcDbEntity
  8
lens_outline
370
-3
100
AcDbLine
 10
61.83333333333333
 20
114.83333333333333
 30
0.0
 11
61.697435897435895
 21
114.96923076923076
 31
0.0
  0
LINE
  5
65
330
17
100
AcDbEntity
  8
lens_outline
370
-3
100
AcDbLine
 10
61.697435897435895
 20
114.96923076923076
 30
0.0
 11
61.42564102564102
 21
114.96923076923076
 31
0.0
  0
LINE
  5
66
330
17
100
AcDbEntity
  8
lens_outline
370
-3
100
AcDbLine
 10
61.42564102564102
 20
114.96923076923076
 30
0.0
 11
61.28974358974359
 21
115.1051282051282
 31
0.0
  0
LINE
  5
67
330
17
100
AcDbEntity
  8
lens_outline
370
-3
100
AcDbLine
 10
61.28974358974359
 20
115.1051282051282
 30
0.0
 11
61.153846153846146
 21
115.1051282051282
 31
0.0
  0
LINE
  5
68
330
17
100
AcDbEntity
  8
lens_outline
370
-3
100
AcDbLine
 10
61.153846153846146
 20
115.1051282051282
 30
0.0
 11
61.01794871794871
 21
115.24102564102563
 31
0.0
  0
LINE
  5
69
330
17
100
AcDbEntity
  8
lens_outline
370
-3
100
AcDbLine
 10
61.01794871794871
 20
115.24102564102563
 30
0.0
 11
60.88205128205128
 21
115.24102564102563
 31
0.0
  0
LINE
  5
6A
330
17
100
AcDbEntity
  8
lens_outline
370
-3
100
AcDbLine
 10
60.88205128205128
 20
115.24102564102563
 30
0.0
 11
60.610256410256405
 21
115.5128205128205
 31
0.0
  0
LINE
  5
6B
330
17
100
AcDbEntity
  8
lens_outline
370
-3
100
AcDbLine
 10
60.610256410256405
 20
115.5128205128205
 30
0.0
 11
60.47435897435897
 21
115.5128205128205
 31
0.0
  0
LINE
  5
6C
330
17
100
AcDbEntity
  8
lens_outline
370
-3
100
AcDbLine
 10
60.47435897435897
 20
115.5128205128205
 30
0.0
 11
59.93076923076923
 21
116.05641025641025
 31
0.0
  0
LINE
  5
6D
330
17
100
AcDbEntity
  8
lens_outline
370
-3
100
AcDbLine
 10
59.93076923076923
 20
116.05641025641025
 30
0.0
 11
59.79487179487179
 21
116.05641025641025
 31
0.0
  0
LINE
  5
6E
330
17
100
AcDbEntity
  8
lens_outline
370
-3
100
AcDbLine
 10
59.79487179487179
 20
116.05641025641025
 30
0.0
 11
57.21282051282051
 21
118.63846153846153
 31
0.0
  0
LINE
  5
6F
330
17
100
AcDbEntity
  8
lens_outline
370
-3
100
AcDbLine
 10
57.21282051282051
 20
118.63846153846153
 30
0.0
 11
57.21282051282051
 21
118.77435897435896
 31
0.0
  0
LINE
  5
70
330
17
100
AcDbEntity
  8
lens_outline
370
-3
100
AcDbLine
 10
57.21282051282051
 20
118.77435897435896
 30
0.0
 11
56.26153846153846
 21
119.72564102564101
 31
0.0
  0
LINE
  5
71
330
17
100
AcDbEntity
  8
lens_outline
370
-3
100
AcDbLine
 10
56.26153846153846
 20
119.72564102564101
 30
0.0
 11
56.26153846153846
 21
119.86153846153846
 31
0.0
  0
LINE
  5
72
330
17
100
AcDbEntity
  8
lens_outline
370
-3
100
AcDbLine
 10
56.26153846153846
 20
119.86153846153846
 30
0.0
 11
55.98974358974358
 21
120.13333333333333
 31
0.0
  0
LINE
  5
73
330
17
100
AcDbEntity
  8
lens_outline
370
-3
100
AcDbLine
 10
55.98974358974358
 20
120.13333333333333
 30
0.0
 11
55.98974358974358
 21
120.26923076923076
 31
0.0
  0
LINE
  5
74
330
17
100
AcDbEntity
  8
lens_outline
370
-3
100
AcDbLine
 10
55.98974358974358
 20
120.26923076923076
 30
0.0
 11
55.717948717948715
 21
120.54102564102563
 31
0.0
  0
LINE
  5
75
330
17
100
AcDbEntity
  8
lens_outline
370
-3
100
AcDbLine
 10
55.717948717948715
 20
120.54102564102563
 30
0.0
 11
55.717948717948715
 21
120.67692307692306
 31
0.0
  0
LINE
  5
76
330
17
100
AcDbEntity
  8
lens_outline
370
-3
100
AcDbLine
 10
55.717948717948715
 20
120.67692307692306
 30
0.0
 11
55.44615384615384
 21
120.94871794871794
 31
0.0
  0
LINE
  5
77
330
17
100
AcDbEntity
  8
lens_outline
370
-3
100
AcDbLine
 10
55.44615384615384
 20
120.94871794871794
 30
0.0
 11
55.44615384615384
 21
121.08461538461538
 31
0.0
  0
LINE
  5
78
330
17
100
AcDbEntity
  8
lens_outline
370
-3
100
AcDbLine
 10
55.44615384615384
 20
121.08461538461538
 30
0.0
 11
55.17435897435897
 21
121.35641025641024
 31
0.0
  0
LINE
  5
79
330
17
100
AcDbEntity
  8
lens_outline
370
-3
100
AcDbLine
 10
55.17435897435897
 20
121.35641025641024
 30
0.0
 11
55.17435897435897
 21
121.62820512820512
 31
0.0
  0
LINE
  5
7A
330
17
100
AcDbEntity
  8
lens_outline
370
-3
100
AcDbLine
 10
55.17435897435897
 20
121.62820512820512
 30
0.0
 11
55.03846153846153
 21
121.76410256410256
 31
0.0
  0
LINE
  5
7B
330
17
100
AcDbEntity
  8
lens_outline
370
-3
100
AcDbLine
 10
55.03846153846153
 20
121.76410256410256
 30
0.0
 11
55.03846153846153
 21
122.03589743589743
 31
0.0
  0
LINE
  5
7C
330
17
100
AcDbEntity
  8
lens_outline
370
-3
100
AcDbLine
 10
55.03846153846153
 20
122.03589743589743
 30
0.0
 11
54.9025641025641
 21
122.17179487179486
 31
0.0
  0
LINE
  5
7D
330
17
100
AcDbEntity
  8
lens_outline
370
-3
100
AcDbLine
 10
54.9025641025641
 20
122.17179487179486
 30
0.0
 11
54.9025641025641
 21
122.57948717948717
 31
0.0
  0
LINE
  5
7E
330
17
100
AcDbEntity
  8
lens_outline
370
-3
100
AcDbLine
 10
54.9025641025641
 20
122.57948717948717
 30
0.0
 11
54.766666666666666
 21
122.71538461538461
 31
0.0
  0
LINE
  5
7F
330
17
100
AcDbEntity
  8
lens_outline
370
-3
100
AcDbLine
 10
54.766666666666666
 20
122.71538461538461
 30
0.0
 11
54.766666666666666
 21
123.25897435897434
 31
0.0
  0
LINE
  5
80
330
17
100
AcDbEntity
  8
lens_outline
370
-3
100
AcDbLine
 10
54.766666666666666
 20
123.25897435897434
 30
0.0
 11
54.630769230769225
 21
123.39487179487179
 31
0.0
  0
LINE
  5
81
330
17
100
AcDbEntity
  8
lens_outline
370
-3
100
AcDbLine
 10
54.630769230769225
 20
123.39487179487179
 30
0.0
 11
54.630769230769225
 21
127.74358974358974
 31
0.0
  0
LINE
  5
82
330
17
100
AcDbEntity
  8
lens_outline
370
-3
100
AcDbLine
 10
54.630769230769225
 20
127.74358974358974
 30
0.0
 11
54.766666666666666
 21
127.87948717948717
 31
0.0
  0
LINE
  5
83
330
17
100
AcDbEntity
  8
lens_outline
370
-3
100
AcDbLine
 10
54.766666666666666
 20
127.87948717948717
 30
0.0
 11
54.766666666666666
 21
128.55897435897435
 31
0.0
  0
LINE
  5
84
330
17
100
AcDbEntity
  8
lens_outline
370
-3
100
AcDbLine
 10
54.766666666666666
 20
128.55897435897435
 30
0.0
 11
54.9025641025641
 21
128.69487179487177
 31
0.0
  0
LINE
  5
85
330
17
100
AcDbEntity
  8
lens_outline
370
-3
100
AcDbLine
 10
54.9025641025641
 20
128.69487179487177
 30
0.0
 11
54.9025641025641
 21
129.5102564102564
 31
0.0
  0
LINE
  5
86
330
17
100
AcDbEntity
  8
lens_outline
370
-3
100
AcDbLine
 10
54.9025641025641
 20
129.5102564102564
 30
0.0
 11
55.03846153846153
 21
129.64615384615382
 31
0.0
  0
LINE
  5
87
330
17
100
AcDbEntity
  8
lens_outline
370
-3
100
AcDbLine
 10
55.03846153846153
 20
129.64615384615382
 30
0.0
 11
55.03846153846153
 21
130.46153846153845
 31
0.0
  0
LINE
  5
88
330
17
100
AcDbEntity
  8
lens_outline
370
-3
100
AcDbLine
 10
55.03846153846153
 20
130.46153846153845
 30
0.0
 11
55.17435897435897
 21
130.5974358974359
 31
0.0
  0
LINE
  5
89
330
17
100
AcDbEntity
  8
lens_outline
370
-3
100
AcDbLine
 10
55.17435897435897
 20
130.5974358974359
 30
0.0
 11
55.17435897435897
 21
131.4128205128205
 31
0.0
  0
LINE
  5
8A
330
17
100
AcDbEntity
  8
lens_outline
370
-3
100
AcDbLine
 10
55.17435897435897
 20
131.4128205128205
 30
0.0
 11
55.31025641025641
 21
131.54871794871795
 31
0.0
  0
LINE
  5
8B
330
17
100
AcDbEntity
  8
lens_outline
370
-3
100
AcDbLine
 10
55.31025641025641
 20
131.54871794871795
 30
0.0
 11
55.31025641025641
 21
131.68461538461537
 31
0.0
  0
LINE
  5
8C
330
17
100
AcDbEntity
  8
lens_outline
370
-3
100
AcDbLine
 10
55.31025641025641
 20
131.68461538461537
 30
0.0
 11
55.44615384615384
 21
131.82051282051282
 31
0.0
  0
LINE
  5
8D
330
17
100
AcDbEntity
  8
lens_outline
370
-3
100
AcDbLine
 10
55.44615384615384
 20
131.82051282051282
 30
0.0
 11
55.44615384615384
 21
132.09230769230768
 31
0.0
  0
LINE
  5
8E
330
17
100
AcDbEntity
  8
lens_outline
370
-3
100
AcDbLine
 10
55.44615384615384
 20
132.09230769230768
 30
0.0
 11
55.582051282051275
 21
132.2282051282051
 31
0.0
  0
LINE
  5
8F
330
17
100
AcDbEntity
  8
lens_outline
370
-3
100
AcDbLine
 10
55.582051282051275
 20
132.2282051282051
 30
0.0
 11
55.582051282051275
 21
132.5
 31
0.0
  0
LINE
  5
90
330
17
100
AcDbEntity
  8
lens_outline
370
-3
100
AcDbLine
 10
55.582051282051275
 20
132.5
 30
0.0
 11
55.717948717948715
 21
132.63589743589742
 31
0.0
  0
LINE
  5
91
330
17
100
AcDbEntity
  8
lens_outline
370
-3
100
AcDbLine
 10
55.717948717948715
 20
132.63589743589742
 30
0.0
 11
55.717948717948715
 21
132.77179487179487
 31
0.0
  0
LINE
  5
92
330
17
100
AcDbEntity
  8
lens_outline
370
-3
100
AcDbLine
 10
55.717948717948715
 20
132.77179487179487
 30
0.0
 11
55.85384615384615
 21
132.9076923076923
 31
0.0
  0
LINE
  5
93
330
17
100
AcDbEntity
  8
lens_outline
370
-3
100
AcDbLine
 10
55.85384615384615
 20
132.9076923076923
 30
0.0
 11
55.85384615384615
 21
133.17948717948718
 31
0.0
  0
LINE
  5
94
330
17
100
AcDbEntity
  8
lens_outline
370
-3
100
AcDbLine
 10
55.85384615384615
 20
133.17948717948718
 30
0.0
 11
55.98974358974358
 21
133.3153846153846
 31
0.0
  0
LINE
  5
95
330
17
100
AcDbEntity
  8
lens_outline
370
-3
100
AcDbLine
 10
55.98974358974358
 20
133.3153846153846
 30
0.0
 11
55.98974358974358
 21
133.45128205128205
 31
0.0
  0
LINE
  5
96
330
17
100
AcDbEntity
  8
lens_outline
370
-3
100
AcDbLine
 10
55.98974358974358
 20
133.45128205128205
 30
0.0
 11
56.12564102564102
 21
133.58717948717947
 31
0.0
  0
LINE
  5
97
330
17
100
AcDbEntity
  8
lens_outline
370
-3
100
AcDbLine
 10
56.12564102564102
 20
133.58717948717947
 30
0.0
 11
56.12564102564102
 21
133.85897435897434
 31
0.0
  0
LINE
  5
98
330
17
100
AcDbEntity
  8
lens_outline
370
-3
100
AcDbLine
 10
56.12564102564102
 20
133.85897435897434
 30
0.0
 11
56.26153846153846
 21
133.99487179487178
 31
0.0
  0
LINE
  5
99
330
17
100
AcDbEntity
  8
lens_outline
370
-3
100
AcDbLine
 10
56.26153846153846
 20
133.99487179487178
 30
0.0
 11
56.26153846153846
 21
134.13076923076923
 31
0.0
  0
LINE
  5
9A
330
17
100
AcDbEntity
  8
lens_outline
370
-3
100
AcDbLine
 10
56.26153846153846
 20
134.13076923076923
 30
0.0
 11
56.39743589743589
 21
134.26666666666665
 31
0.0
  0
LINE
  5
9B
330
17
100
AcDbEntity
  8
lens_outline
370
-3
100
AcDbLine
 10
56.39743589743589
 20
134.26666666666665
 30
0.0
 11
56.39743589743589
 21
134.53846153846152
 31
0.0
  0
LINE
  5
9C
330
17
100
AcDbEntity
  8
lens_outline
370
-3
100
AcDbLine
 10
56.39743589743589
 20
134.53846153846152
 30
0.0
 11
56.53333333333333
 21
134.67435897435897
 31
0.0
  0
LINE
  5
9D
330
17
100
AcDbEntity
  8
lens_outline
370
-3
100
AcDbLine
 10
56.53333333333333
 20
134.67435897435897
 30
0.0
 11
56.53333333333333
 21
134.8102564102564
 31
0.0
  0
LINE
  5
9E
330
17
100
AcDbEntity
  8
lens_outline
370
-3
100
AcDbLine
 10
56.53333333333333
 20
134.8102564102564
 30
0.0
 11
56.669230769230765
 21
134.94615384615383
 31
0.0
  0
LINE
  5
9F
330
17
100
AcDbEntity
  8
lens_outline
370
-3
100
AcDbLine
 10
56.669230769230765
 20
134.94615384615383
 30
0.0
 11
56.669230769230765
 21
135.08205128205128
 31
0.0
  0
LINE
  5
A0
330
17
100
AcDbEntity
  8
lens_outline
370
-3
100
AcDbLine
 10
56.669230769230765
 20
135.08205128205128
 30
0.0
 11
56.8051282051282
 21
135.2179487179487
 31
0.0
  0
LINE
  5
A1
330
17
100
AcDbEntity
  8
lens_outline
370
-3
100
AcDbLine
 10
56.8051282051282
 20
135.2179487179487
 30
0.0
 11
56.8051282051282
 21
135.35384615384615
 31
0.0
  0
LINE
  5
A2
330
17
100
AcDbEntity
  8
lens_outline
370
-3
100
AcDbLine
 10
56.8051282051282
 20
135.35384615384615
 30
0.0
 11
57.07692307692307
 21
135.62564102564102
 31
0.0
  0
LINE
  5
A3
330
17
100
AcDbEntity
  8
lens_outline
370
-3
100
AcDbLine
 10
57.07692307692307
 20
135.62564102564102
 30
0.0
 11
57.07692307692307
 21
135.76153846153846
 31
0.0
  0
LINE
  5
A4
330
17
100
AcDbEntity
  8
lens_outline
370
-3
100
AcDbLine
 10
57.07692307692307
 20
135.76153846153846
 30
0.0
 11
57.21282051282051
 21
135.89743589743588
 31
0.0
  0
LINE
  5
A5
330
17
100
AcDbEntity
  8
lens_outline
370
-3
100
AcDbLine
 10
57.21282051282051
 20
135.89743589743588
 30
0.0
 11
57.21282051282051
 21
136.03333333333333
 31
0.0
  0
LINE
  5
A6
330
17
100
AcDbEntity
  8
lens_outline
370
-3
100
AcDbLine
 10
57.21282051282051
 20
136.03333333333333
 30
0.0
 11
57.75641025641025
 21
136.57692307692307
 31
0.0
  0
LINE
  5
A7
330
17
100
AcDbEntity
  8
lens_outline
370
-3
100
AcDbLine
 10
57.75641025641025
 20
136.57692307692307
 30
0.0
 11
57.75641025641025
 21
136.7128205128205
 31
0.0
  0
LINE
  5
A8
330
17
100
AcDbEntity
  8
lens_outline
370
-3
100
AcDbLine
 10
57.75641025641025
 20
136.7128205128205
 30
0.0
 11
58.84358974358974
 21
137.79999999999998
 31
0.0
  0
LINE
  5
A9
330
17
100
AcDbEntity
  8
lens_outline
370
-3
100
AcDbLine
 10
58.84358974358974
 20
137.79999999999998
 30
0.0
 11
58.97948717948717
 21
137.79999999999998
 31
0.0
  0
LINE
  5
AA
330
17
100
AcDbEntity
  8
lens_outline
370
-3
100
AcDbLine
 10
58.97948717948717
 20
137.79999999999998
 30
0.0
 11
59.38717948717948
 21
138.2076923076923
 31
0.0
  0
LINE
  5
AB
330
17
100
AcDbEntity
  8
lens_outline
370
-3
100
AcDbLine
 10
59.38717948717948
 20
138.2076923076923
 30
0.0
 11
59.52307692307692
 21
138.2076923076923
 31
0.0
  0
LINE
  5
AC
330
17
100
AcDbEntity
  8
lens_outline
370
-3
100
AcDbLine
 10
59.52307692307692
 20
138.2076923076923
 30
0.0
 11
59.93076923076923
 21
138.6153846153846
 31
0.0
  0
LINE
  5
AD
330
17
100
AcDbEntity
  8
lens_outline
370
-3
100
AcDbLine
 10
59.93076923076923
 20
138.6153846153846
 30
0.0
 11
60.06666666666666
 21
138.6153846153846
 31
0.0
  0
LINE
  5
AE
330
17
100
AcDbEntity
  8
lens_outline
370
-3
100
AcDbLine
 10
60.06666666666666
 20
138.6153846153846
 30
0.0
 11
60.33846153846153
 21
138.88717948717948
 31
0.0
  0
LINE
  5
AF
330
17
100
AcDbEntity
  8
lens_outline
370
-3
100
AcDbLine
 10
60.33846153846153
 20
138.88717948717948
 30
0.0
 11
60.47435897435897
 21
138.88717948717948
 31
0.0
  0
LINE
  5
B0
330
17
100
AcDbEntity
  8
lens_outline
370
-3
100
AcDbLine
 10
60.47435897435897
 20
138.88717948717948
 30
0.0
 11
60.74615384615384
 21
139.15897435897435
 31
0.0
  0
LINE
  5
B1
330
17
100
AcDbEntity
  8
lens_outline
370
-3
100
AcDbLine
 10
60.74615384615384
 20
139.15897435897435
 30
0.0
 11
60.88205128205128
 21
139.15897435897435
 31
0.0
  0
LINE
  5
B2
330
17
100
AcDbEntity
  8
lens_outline
370
-3
100
AcDbLine
 10
60.88205128205128
 20
139.15897435897435
 30
0.0
 11
61.28974358974359
 21
139.56666666666666
 31
0.0
  0
LINE
  5
B3
330
17
100
AcDbEntity
  8
lens_outline
370
-3
100
AcDbLine
 10
61.28974358974359
 20
139.56666666666666
 30
0.0
 11
61.42564102564102
 21
139.56666666666666
 31
0.0
  0
LINE
  5
B4
330
17
100
AcDbEntity
  8
lens_outline
370
-3
100
AcDbLine
 10
61.42564102564102
 20
139.56666666666666
 30
0.0
 11
61.697435897435895
 21
139.83846153846153
 31
0.0
  0
LINE
  5
B5
330
17
100
AcDbEntity
  8
lens_outline
370
-3
100
AcDbLine
 10
61.697435897435895
 20
139.83846153846153
 30
0.0
 11
61.83333333333333
 21
139.83846153846153
 31
0.0
  0
LINE
  5
B6
330
17
100
AcDbEntity
  8
lens_outline
370
-3
100
AcDbLine
 10
61.83333333333333
 20
139.83846153846153
 30
0.0
 11
62.1051282051282
 21
140.1102564102564
 31
0.0
  0
LINE
  5
B7
330
17
100
AcDbEntity
  8
lens_outline
370
-3
100
AcDbLine
 10
62.1051282051282
 20
140.1102564102564
 30
0.0
 11
62.24102564102564
 21
140.1102564102564
 31
0.0
  0
LINE
  5
B8
330
17
100
AcDbEntity
  8
lens_outline
370
-3
100
AcDbLine
 10
62.24102564102564
 20
140.1102564102564
 30
0.0
 11
62.51282051282051
 21
140.38205128205126
 31
0.0
  0
LINE
  5
B9
330
17
100
AcDbEntity
  8
lens_outline
370
-3
100
AcDbLine
 10
62.51282051282051
 20
140.38205128205126
 30
0.0
 11
62.648717948717945
 21
140.38205128205126
 31
0.0
  0
LINE
  5
BA
330
17
100
AcDbEntity
  8
lens_outline
370
-3
100
AcDbLine
 10
62.648717948717945
 20
140.38205128205126
 30
0.0
 11
62.78461538461538
 21
140.5179487179487
 31
0.0
  0
LINE
  5
BB
330
17
100
AcDbEntity
  8
lens_outline
370
-3
100
AcDbLine
 10
62.78461538461538
 20
140.5179487179487
 30
0.0
 11
62.92051282051281
 21
140.5179487179487
 31
0.0
  0
LINE
  5
BC
330
17
100
AcDbEntity
  8
lens_outline
370
-3
100
AcDbLine
 10
62.92051282051281
 20
140.5179487179487
 30
0.0
 11
63.192307692307686
 21
140.78974358974358
 31
0.0
  0
LINE
  5
BD
330
17
100
AcDbEntity
  8
lens_outline
370
-3
100
AcDbLine
 10
63.192307692307686
 20
140.78974358974358
 30
0.0
 11
63.32820512820512
 21
140.78974358974358
 31
0.0
  0
LINE
  5
BE
330
17
100
AcDbEntity
  8
lens_outline
370
-3
100
AcDbLine
 10
63.32820512820512
 20
140.78974358974358
 30
0.0
 11
63.46410256410256
 21
140.92564102564103
 31
0.0
  0
LINE
  5
BF
330
17
100
AcDbEntity
  8
lens_outline
370
-3
100
AcDbLine
 10
63.46410256410256
 20
140.92564102564103
 30
0.0
 11
63.599999999999994
 21
140.92564102564103
 31
0.0
  0
LINE
  5
C0
330
17
100
AcDbEntity
  8
lens_outline
370
-3
100
AcDbLine
 10
63.599999999999994
 20
140.92564102564103
 30
0.0
 11
63.87179487179487
 21
141.1974358974359
 31
0.0
  0
LINE
  5
C1
330
17
100
AcDbEntity
  8
lens_outline
370
-3
100
AcDbLine
 10
63.87179487179487
 20
141.1974358974359
 30
0.0
 11
64.00769230769231
 21
141.1974358974359
 31
0.0
  0
LINE
  5
C2
330
17
100
AcDbEntity
  8
lens_outline
370
-3
100
AcDbLine
 10
64.00769230769231
 20
141.1974358974359
 30
0.0
 11
64.14358974358974
 21
141.33333333333331
 31
0.0
  0
LINE
  5
C3
330
17
100
AcDbEntity
  8
lens_outline
370
-3
100
AcDbLine
 10
64.14358974358974
 20
141.33333333333331
 30
0.0
 11
64.27948717948718
 21
141.33333333333331
 31
0.0
  0
LINE
  5
C4
330
17
100
AcDbEntity
  8
lens_outline
370
-3
100
AcDbLine
 10
64.27948717948718
 20
141.33333333333331
 30
0.0
 11
64.55128205128204
 21
141.60512820512818
 31
0.0
  0
LINE
  5
C5
330
17
100
AcDbEntity
  8
lens_outline
370
-3
100
AcDbLine
 10
64.55128205128204
 20
141.60512820512818
 30
0.0
 11
64.68717948717948
 21
141.60512820512818
 31
0.0
  0
LINE
  5
C6
330
17
100
AcDbEntity
  8
lens_outline
370
-3
100
AcDbLine
 10
64.68717948717948
 20
141.60512820512818
 30
0.0
 11
64.82307692307691
 21
141.74102564102563
 31
0.0
  0
LINE
  5
C7
330
17
100
AcDbEntity
  8
lens_outline
370
-3
100
AcDbLine
 10
64.82307692307691
 20
141.74102564102563
 30
0.0
 11
64.95897435897436
 21
141.74102564102563
 31
0.0
  0
LINE
  5
C8
330
17
100
AcDbEntity
  8
lens_outline
370
-3
100
AcDbLine
 10
64.95897435897436
 20
141.74102564102563
 30
0.0
 11
65.23076923076923
 21
142.0128205128205
 31
0.0
  0
LINE
  5
C9
330
17
100
AcDbEntity
  8
lens_outline
370
-3
100
AcDbLine
 10
65.23076923076923
 20
142.0128205128205
 30
0.0
 11
65.36666666666666
 21
142.0128205128205
 31
0.0
  0
LINE
  5
CA
330
17
100
AcDbEntity
  8
lens_outline
370
-3
100
AcDbLine
 10
65.36666666666666
 20
142.0128205128205
 30
0.0
 11
65.5025641025641
 21
142.14871794871794
 31
0.0
  0
LINE
  5
CB
330
17
100
AcDbEntity
  8
lens_outline
370
-3
100
AcDbLine
 10
65.5025641025641
 20
142.14871794871794
 30
0.0
 11
65.63846153846153
 21
142.14871794871794
 31
0.0
  0
LINE
  5
CC
330
17
100
AcDbEntity
  8
lens_outline
370
-3
100
AcDbLine
 10
65.63846153846153
 20
142.14871794871794
 30
0.0
 11
65.77435897435898
 21
142.28461538461536
 31
0.0
  0
LINE
  5
CD
330
17
100
AcDbEntity
  8
lens_outline
370
-3
100
AcDbLine
 10
65.77435897435898
 20
142.28461538461536
 30
0.0
 11
65.91025641025641
 21
142.28461538461536
 31
0.0
  0
LINE
  5
CE
330
17
100
AcDbEntity
  8
lens_outline
370
-3
100
AcDbLine
 10
65.91025641025641
 20
142.28461538461536
 30
0.0
 11
66.04615384615384
 21
142.4205128205128
 31
0.0
  0
LINE
  5
CF
330
17
100
AcDbEntity
  8
lens_outline
370
-3
100
AcDbLine
 10
66.04615384615384
 20
142.4205128205128
 30
0.0
 11
66.18205128205128
 21
142.4205128205128
 31
0.0
  0
LINE
  5
D0
330
17
100
AcDbEntity
  8
lens_outline
370
-3
100
AcDbLine
 10
66.18205128205128
 20
142.4205128205128
 30
0.0
 11
66.31794871794871
 21
142.55641025641023
 31
0.0
  0
LINE
  5
D1
330
17
100
AcDbEntity
  8
lens_outline
370
-3
100
AcDbLine
 10
66.31794871794871
 20
142.55641025641023
 30
0.0
 11
66.45384615384614
 21
142.55641025641023
 31
0.0
  0
LINE
  5
D2
330
17
100
AcDbEntity
  8
lens_outline
370
-3
100
AcDbLine
 10
66.45384615384614
 20
142.55641025641023
 30
0.0
 11
66.58974358974359
 21
142.69230769230768
 31
0.0
  0
LINE
  5
D3
330
17
100
AcDbEntity
  8
lens_outline
370
-3
100
AcDbLine
 10
66.58974358974359
 20
142.69230769230768
 30
0.0
 11
66.72564102564102
 21
142.69230769230768
 31
0.0
  0
LINE
  5
D4
330
17
100
AcDbEntity
  8
lens_outline
370
-3
100
AcDbLine
 10
66.72564102564102
 20
142.69230769230768
 30
0.0
 11
66.86153846153846
 21
142.82820512820513
 31
0.0
  0
LINE
  5
D5
330
17
100
AcDbEntity
  8
lens_outline
370
-3
100
AcDbLine
 10
66.86153846153846
 20
142.82820512820513
 30
0.0
 11
66.99743589743589
 21
142.82820512820513
 31
0.0
  0
LINE
  5
D6
330
17
100
AcDbEntity
  8
lens_outline
370
-3
100
AcDbLine
 10
66.99743589743589
 20
142.82820512820513
 30
0.0
 11
67.13333333333333
 21
142.96410256410255
 31
0.0
  0
LINE
  5
D7
330
17
100
AcDbEntity
  8
lens_outline
370
-3
100
AcDbLine
 10
67.13333333333333
 20
142.96410256410255
 30
0.0
 11
67.26923076923076
 21
142.96410256410255
 31
0.0
  0
LINE
  5
D8
330
17
100
AcDbEntity
  8
lens_outline
370
-3
100
AcDbLine
 10
67.26923076923076
 20
142.96410256410255
 30
0.0
 11
67.4051282051282
 21
143.1
 31
0.0
  0
LINE
  5
D9
330
17
100
AcDbEntity
  8
lens_outline
370
-3
100
AcDbLine
 10
67.4051282051282
 20
143.1
 30
0.0
 11
67.67692307692307
 21
143.1
 31
0.0
  0
LINE
  5
DA
330
17
100
AcDbEntity
  8
lens_outline
370
-3
100
AcDbLine
 10
67.67692307692307
 20
143.1
 30
0.0
 11
67.81282051282051
 21
143.2358974358974
 31
0.0
  0
LINE
  5
DB
330
17
100
AcDbEntity
  8
lens_outline
370
-3
100
AcDbLine
 10
67.81282051282051
 20
143.2358974358974
 30
0.0
 11
68.08461538461538
 21
143.2358974358974
 31
0.0
  0
LINE
  5
DC
330
17
100
AcDbEntity
  8
lens_outline
370
-3
100
AcDbLine
 10
68.08461538461538
 20
143.2358974358974
 30
0.0
 11
68.22051282051281
 21
143.37179487179486
 31
0.0
  0
LINE
  5
DD
330
17
100
AcDbEntity
  8
lens_outline
370
-3
100
AcDbLine
 10
68.22051282051281
 20
143.37179487179486
 30
0.0
 11
68.35641025641026
 21
143.37179487179486
 31
0.0
  0
LINE
  5
DE
330
17
100
AcDbEntity
  8
lens_outline
370
-3
100
AcDbLine
 10
68.35641025641026
 20
143.37179487179486
 30
0.0
 11
68.49230769230769
 21
143.5076923076923
 31
0.0
  0
LINE
  5
DF
330
17
100
AcDbEntity
  8
lens_outline
370
-3
100
AcDbLine
 10
68.49230769230769
 20
143.5076923076923
 30
0.0
 11
68.76410256410256
 21
143.5076923076923
 31
0.0
  0
LINE
  5
E0
330
17
100
AcDbEntity
  8
lens_outline
370
-3
100
AcDbLine
 10
68.76410256410256
 20
143.5076923076923
 30
0.0
 11
68.89999999999999
 21
143.64358974358973
 31
0.0
  0
LINE
  5
E1
330
17
100
AcDbEntity
  8
lens_outline
370
-3
100
AcDbLine
 10
68.89999999999999
 20
143.64358974358973
 30
0.0
 11
69.03589743589743
 21
143.64358974358973
 31
0.0
  0
LINE
  5
E2
330
17
100
AcDbEntity
  8
lens_outline
370
-3
100
AcDbLine
 10
69.03589743589743
 20
143.64358974358973
 30
0.0
 11
69.17179487179487
 21
143.77948717948718
 31
0.0
  0
LINE
  5
E3
330
17
100
AcDbEntity
  8
lens_outline
370
-3
100
AcDbLine
 10
69.17179487179487
 20
143.77948717948718
 30
0.0
 11
69.57948717948717
 21
143.77948717948718
 31
0.0
  0
LINE
  5
E4
330
17
100
AcDbEntity
  8
lens_outline
370
-3
100
AcDbLine
 10
69.57948717948717
 20
143.77948717948718
 30
0.0
 11
69.71538461538461
 21
143.9153846153846
 31
0.0
  0
LINE
  5
E5
330
17
100
AcDbEntity
  8
lens_outline
370
-3
100
AcDbLine
 10
69.71538461538461
 20
143.9153846153846
 30
0.0
 11
69.98717948717947
 21
143.9153846153846
 31
0.0
  0
LINE
  5
E6
330
17
100
AcDbEntity
  8
lens_outline
370
-3
100
AcDbLine
 10
69.98717948717947
 20
143.9153846153846
 30
0.0
 11
70.12307692307692
 21
144.05128205128204
 31
0.0
  0
LINE
  5
E7
330
17
100
AcDbEntity
  8
lens_outline
370
-3
100
AcDbLine
 10
70.12307692307692
 20
144.05128205128204
 30
0.0
 11
70.53076923076922
 21
144.05128205128204
 31
0.0
  0
LINE
  5
E8
330
17
100
AcDbEntity
  8
lens_outline
370
-3
100
AcDbLine
 10
70.53076923076922
 20
144.05128205128204
 30
0.0
 11
70.66666666666666
 21
144.18717948717946
 31
0.0
  0
LINE
  5
E9
330
17
100
AcDbEntity
  8
lens_outline
370
-3
100
AcDbLine
 10
70.66666666666666
 20
144.18717948717946
 30
0.0
 11
70.93846153846154
 21
144.18717948717946
 31
0.0
  0
LINE
  5
EA
330
17
100
AcDbEntity
  8
lens_outline
370
-3
100
AcDbLine
 10
70.93846153846154
 20
144.18717948717946
 30
0.0
 11
71.07435897435897
 21
144.3230769230769
 31
0.0
  0
LINE
  5
EB
330
17
100
AcDbEntity
  8
lens_outline
370
-3
100
AcDbLine
 10
71.07435897435897
 20
144.3230769230769
 30
0.0
 11
71.6179487179487
 21
144.3230769230769
 31
0.0
  0
LINE
  5
EC
330
17
100
AcDbEntity
  8
lens_outline
370
-3
100
AcDbLine
 10
71.6179487179487
 20
144.3230769230769
 30
0.0
 11
71.75384615384615
 21
144.45897435897436
 31
0.0
  0
LINE
  5
ED
330
17
100
AcDbEntity
  8
lens_outline
370
-3
100
AcDbLine
 10
71.75384615384615
 20
144.45897435897436
 30
0.0
 11
72.16153846153846
 21
144.45897435897436
 31
0.0
  0
LINE
  5
EE
330
17
100
AcDbEntity
  8
lens_outline
370
-3
100
AcDbLine
 10
72.16153846153846
 20
144.45897435897436
 30
0.0
 11
72.29743589743589
 21
144.59487179487178
 31
0.0
  0
LINE
  5
EF
330
17
100
AcDbEntity
  8
lens_outline
370
-3
100
AcDbLine
 10
72.29743589743589
 20
144.59487179487178
 30
0.0
 11
72.7051282051282
 21
144.59487179487178
 31
0.0
  0
LINE
  5
F0
330
17
100
AcDbEntity
  8
lens_outline
370
-3
100
AcDbLine
 10
72.7051282051282
 20
144.59487179487178
 30
0.0
 11
72.84102564102564
 21
144.73076923076923
 31
0.0
  0
LINE
  5
F1
330
17
100
AcDbEntity
  8
lens_outline
370
-3
100
AcDbLine
 10
72.84102564102564
 20
144.73076923076923
 30
0.0
 11
73.24871794871794
 21
144.73076923076923
 31
0.0
  0
LINE
  5
F2
330
17
100
AcDbEntity
  8
lens_outline
370
-3
100
AcDbLine
 10
73.24871794871794
 20
144.73076923076923
 30
0.0
 11
73.38461538461537
 21
144.86666666666665
 31
0.0
  0
LINE
  5
F3
330
17
100
AcDbEntity
  8
lens_outline
370
-3
100
AcDbLine
 10
73.38461538461537
 20
144.86666666666665
 30
0.0
 11
73.79230769230769
 21
144.86666666666665
 31
0.0
  0
LINE
  5
F4
330
17
100
AcDbEntity
  8
lens_outline
370
-3
100
AcDbLine
 10
73.79230769230769
 20
144.86666666666665
 30
0.0
 11
73.92820512820512
 21
145.0025641025641
 31
0.0
  0
LINE
  5
F5
330
17
100
AcDbEntity
  8
lens_outline
370
-3
100
AcDbLine
 10
73.92820512820512
 20
145.0025641025641
 30
0.0
 11
74.47179487179487
 21
145.0025641025641
 31
0.0
  0
LINE
  5
F6
330
17
100
AcDbEntity
  8
lens_outline
370
-3
100
AcDbLine
 10
74.47179487179487
 20
145.0025641025641
 30
0.0
 11
74.6076923076923
 21
145.1384615384615
 31
0.0
  0
LINE
  5
F7
330
17
100
AcDbEntity
  8
lens_outline
370
-3
100
AcDbLine
 10
74.6076923076923
 20
145.1384615384615
 30
0.0
 11
75.0153846153846
 21
145.1384615384615
 31
0.0
  0
LINE
  5
F8
330
17
100
AcDbEntity
  8
lens_outline
370
-3
100
AcDbLine
 10
75.0153846153846
 20
145.1384615384615
 30
0.0
 11
75.15128205128204
 21
145.27435897435896
 31
0.0
  0
LINE
  5
F9
330
17
100
AcDbEntity
  8
lens_outline
370
-3
100
AcDbLine
 10
75.15128205128204
 20
145.27435897435896
 30
0.0
 11
75.96666666666665
 21
145.27435897435896
 31
0.0
  0
LINE
  5
FA
330
17
100
AcDbEntity
  8
lens_outline
370
-3
100
AcDbLine
 10
75.96666666666665
 20
145.27435897435896
 30
0.0
 11
76.1025641025641
 21
145.4102564102564
 31
0.0
  0
LINE
  5
FB
330
17
100
AcDbEntity
  8
lens_outline
370
-3
100
AcDbLine
 10
76.1025641025641
 20
145.4102564102564
 30
0.0
 11
78.0051282051282
 21
145.4102564102564
 31
0.0
  0
LINE
  5
FC
330
17
100
AcDbEntity
  8
lens_outline
370
-3
100
AcDbLine
 10
78.0051282051282
 20
145.4102564102564
 30
0.0
 11
78.14102564102564
 21
145.54615384615383
 31
0.0
  0
LINE
  5
FD
330
17
100
AcDbEntity
  8
lens_outline
370
-3
100
AcDbLine
 10
78.14102564102564
 20
145.54615384615383
 30
0.0
 11
82.62564102564102
 21
145.54615384615383
 31
0.0
  0
LINE
  5
FE
330
17
100
AcDbEntity
  8
lens_outline
370
-3
100
AcDbLine
 10
82.62564102564102
 20
145.54615384615383
 30
0.0
 11
82.76153846153845
 21
145.4102564102564
 31
0.0
  0
LINE
  5
FF
330
17
100
AcDbEntity
  8
lens_outline
370
-3
100
AcDbLine
 10
82.76153846153845
 20
145.4102564102564
 30
0.0
 11
85.75128205128205
 21
145.4102564102564
 31
0.0
  0
LINE
  5
100
330
17
100
AcDbEntity
  8
lens_outline
370
-3
100
AcDbLine
 10
85.75128205128205
 20
145.4102564102564
 30
0.0
 11
85.88717948717948
 21
145.27435897435896
 31
0.0
  0
LINE
  5
101
330
17
100
AcDbEntity
  8
lens_outline
370
-3
100
AcDbLine
 10
85.88717948717948
 20
145.27435897435896
 30
0.0
 11
86.97435897435896
 21
145.27435897435896
 31
0.0
  0
LINE
  5
102
330
17
100
AcDbEntity
  8
lens_outline
370
-3
100
AcDbLine
 10
86.97435897435896
 20
145.27435897435896
 30
0.0
 11
87.1102564102564
 21
145.1384615384615
 31
0.0
  0
LINE
  5
103
330
17
100
AcDbEntity
  8
lens_outline
370
-3
100
AcDbLine
 10
87.1102564102564
 20
145.1384615384615
 30
0.0
 11
87.78974358974358
 21
145.1384615384615
 31
0.0
  0
LINE
  5
104
330
17
100
AcDbEntity
  8
lens_outline
370
-3
100
AcDbLine
 10
87.78974358974358
 20
145.1384615384615
 30
0.0
 11
87.92564102564101
 21
145.0025641025641
 31
0.0
  0
LINE
  5
105
330
17
100
AcDbEntity
  8
lens_outline
370
-3
100
AcDbLine
 10
87.92564102564101
 20
145.0025641025641
 30
0.0
 11
88.6051282051282
 21
145.0025641025641
 31
0.0
  0
LINE
  5
106
330
17
100
AcDbEntity
  8
lens_outline
370
-3
100
AcDbLine
 10
88.6051282051282
 20
145.0025641025641
 30
0.0
 11
88.74102564102563
 21
144.86666666666665
 31
0.0
  0
LINE
  5
107
330
17
100
AcDbEntity
  8
lens_outline
370
-3
100
AcDbLine
 10
88.74102564102563
 20
144.86666666666665
 30
0.0
 11
89.28461538461538
 21
144.86666666666665
 31
0.0
  0
LINE
  5
108
330
17
100
AcDbEntity
  8
lens_outline
370
-3
100
AcDbLine
 10
89.28461538461538
 20
144.86666666666665
 30
0.0
 11
89.42051282051281
 21
144.73076923076923
 31
0.0
  0
LINE
  5
109
330
17
100
AcDbEntity
  8
lens_outline
370
-3
100
AcDbLine
 10
89.42051282051281
 20
144.73076923076923
 30
0.0
 11
89.82820512820513
 21
144.73076923076923
 31
0.0
  0
LINE
  5
10A
330
17
100
AcDbEntity
  8
lens_outline
370
-3
100
AcDbLine
 10
89.82820512820513
 20
144.73076923076923
 30
0.0
 11
89.96410256410256
 21
144.59487179487178
 31
0.0
  0
LINE
  5
10B
330
17
100
AcDbEntity
  8
lens_outline
370
-3
100
AcDbLine
 10
89.96410256410256
 20
144.59487179487178
 30
0.0
 11
90.37179487179486
 21
144.59487179487178
 31
0.0
  0
LINE
  5
10C
330
17
100
AcDbEntity
  8
lens_outline
370
-3
100
AcDbLine
 10
90.37179487179486
 20
144.59487179487178
 30
0.0
 11
90.5076923076923
 21
144.45897435897436
 31
0.0
  0
LINE
  5
10D
330
17
100
AcDbEntity
  8
lens_outline
370
-3
100
AcDbLine
 10
90.5076923076923
 20
144.45897435897436
 30
0.0
 11
91.05128205128204
 21
144.45897435897436
 31
0.0
  0
LINE
  5
10E
330
17
100
AcDbEntity
  8
lens_outline
370
-3
100
AcDbLine
 10
91.05128205128204
 20
144.45897435897436
 30
0.0
 11
91.18717948717948
 21
144.3230769230769
 31
0.0
  0
LINE
  5
10F
330
17
100
AcDbEntity
  8
lens_outline
370
-3
100
AcDbLine
 10
91.18717948717948
 20
144.3230769230769
 30
0.0
 11
91.59487179487179
 21
144.3230769230769
 31
0.0
  0
LINE
  5
110
330
17
100
AcDbEntity
  8
lens_outline
370
-3
100
AcDbLine
 10
91.59487179487179
 20
144.3230769230769
 30
0.0
 11
91.73076923076923
 21
144.18717948717946
 31
0.0
  0
LINE
  5
111
330
17
100
AcDbEntity
  8
lens_outline
370
-3
100
AcDbLine
 10
91.73076923076923
 20
144.18717948717946
 30
0.0
 11
92.13846153846153
 21
144.18717948717946
 31
0.0
  0
LINE
  5
112
330
17
100
AcDbEntity
  8
lens_outline
370
-3
100
AcDbLine
 10
92.13846153846153
 20
144.18717948717946
 30
0.0
 11
92.27435897435896
 21
144.05128205128204
 31
0.0
  0
LINE
  5
113
330
17
100
AcDbEntity
  8
lens_outline
370
-3
100
AcDbLine
 10
92.27435897435896
 20
144.05128205128204
 30
0.0
 11
92.68205128205128
 21
144.05128205128204
 31
0.0
  0
LINE
  5
114
330
17
100
AcDbEntity
  8
lens_outline
370
-3
100
AcDbLine
 10
92.68205128205128
 20
144.05128205128204
 30
0.0
 11
92.81794871794871
 21
143.9153846153846
 31
0.0
  0
LINE
  5
115
330
17
100
AcDbEntity
  8
lens_outline
370
-3
100
AcDbLine
 10
92.81794871794871
 20
143.9153846153846
 30
0.0
 11
93.22564102564102
 21
143.9153846153846
 31
0.0
  0
LINE
  5
116
330
17
100
AcDbEntity
  8
lens_outline
370
-3
100
AcDbLine
 10
93.22564102564102
 20
143.9153846153846
 30
0.0
 11
93.36153846153846
 21
143.77948717948718
 31
0.0
  0
LINE
  5
117
330
17
100
AcDbEntity
  8
lens_outline
370
-3
100
AcDbLine
 10
93.36153846153846
 20
143.77948717948718
 30
0.0
 11
93.76923076923076
 21
143.77948717948718
 31
0.0
  0
LINE
  5
118
330
17
100
AcDbEntity
  8
lens_outline
370
-3
100
AcDbLine
 10
93.76923076923076
 20
143.77948717948718
 30
0.0
 11
93.9051282051282
 21
143.64358974358973
 31
0.0
  0
LINE
  5
119
330
17
100
AcDbEntity
  8
lens_outline
370
-3
100
AcDbLine
 10
93.9051282051282
 20
143.64358974358973
 30
0.0
 11
94.17692307692307
 21
143.64358974358973
 31
0.0
  0
LINE
  5
11A
330
17
100
AcDbEntity
  8
lens_outline
370
-3
100
AcDbLine
 10
94.17692307692307
 20
143.64358974358973
 30
0.0
 11
94.31282051282051
 21
143.5076923076923
 31
0.0
  0
LINE
  5
11B
330
17
100
AcDbEntity
  8
lens_outline
370
-3
100
AcDbLine
 10
94.31282051282051
 20
143.5076923076923
 30
0.0
 11
94.44871794871794
 21
143.5076923076923
 31
0.0
  0
LINE
  5
11C
330
17
100
AcDbEntity
  8
lens_outline
370
-3
100
AcDbLine
 10
94.44871794871794
 20
143.5076923076923
 30
0.0
 11
94.72051282051281
 21
143.2358974358974
 31
0.0
  0
LINE
  5
11D
330
17
100
AcDbEntity
  8
lens_outline
370
-3
100
AcDbLine
 10
94.72051282051281
 20
143.2358974358974
 30
0.0
 11
94.85641025641024
 21
143.2358974358974
 31
0.0
  0
LINE
  5
11E
330
17
100
AcDbEntity
  8
lens_outline
370
-3
100
AcDbLine
 10
94.85641025641024
 20
143.2358974358974
 30
0.0
 11
94.99230769230769
 21
143.1
 31
0.0
  0
LINE
  5
11F
330
17
100
AcDbEntity
  8
lens_outline
370
-3
100
AcDbLine
 10
94.99230769230769
 20
143.1
 30
0.0
 11
95.12820512820512
 21
143.1
 31
0.0
  0
LINE
  5
120
330
17
100
AcDbEntity
  8
lens_outline
370
-3
100
AcDbLine
 10
95.12820512820512
 20
143.1
 30
0.0
 11
95.26410256410256
 21
142.96410256410255
 31
0.0
  0
LINE
  5
121
330
17
100
AcDbEntity
  8
lens_outline
370
-3
100
AcDbLine
 10
95.26410256410256
 20
142.96410256410255
 30
0.0
 11
95.39999999999999
 21
142.96410256410255
 31
0.0
  0
LINE
  5
122
330
17
100
AcDbEntity
  8
lens_outline
370
-3
100
AcDbLine
 10
95.39999999999999
 20
142.96410256410255
 30
0.0
 11
95.67179487179486
 21
142.69230769230768
 31
0.0
  0
LINE
  5
123
330
17
100
AcDbEntity
  8
lens_outline
370
-3
100
AcDbLine
 10
95.67179487179486
 20
142.69230769230768
 30
0.0
 11
95.8076923076923
 21
142.69230769230768
 31
0.0
  0
LINE
  5
124
330
17
100
AcDbEntity
  8
lens_outline
370
-3
100
AcDbLine
 10
95.8076923076923
 20
142.69230769230768
 30
0.0
 11
95.94358974358974
 21
142.55641025641023
 31
0.0
  0
LINE
  5
125
330
17
100
AcDbEntity
  8
lens_outline
370
-3
100
AcDbLine
 10
95.94358974358974
 20
142.55641025641023
 30
0.0
 11
96.07948717948717
 21
142.55641025641023
 31
0.0
  0
LINE
  5
126
330
17
100
AcDbEntity
  8
lens_outline
370
-3
100
AcDbLine
 10
96.07948717948717
 20
142.55641025641023
 30
0.0
 11
96.21538461538461
 21
142.4205128205128
 31
0.0
  0
LINE
  5
127
330
17
100
AcDbEntity
  8
lens_outline
370
-3
100
AcDbLine
 10
96.21538461538461
 20
142.4205128205128
 30
0.0
 11
96.35128205128204
 21
142.4205128205128
 31
0.0
  0
LINE
  5
128
330
17
100
AcDbEntity
  8
lens_outline
370
-3
100
AcDbLine
 10
96.35128205128204
 20
142.4205128205128
 30
0.0
 11
96.62307692307691
 21
142.14871794871794
 31
0.0
  0
LINE
  5
129
330
17
100
AcDbEntity
  8
lens_outline
370
-3
100
AcDbLine
 10
96.62307692307691
 20
142.14871794871794
 30
0.0
 11
96.75897435897436
 21
142.14871794871794
 31
0.0
  0
LINE
  5
12A
330
17
100
AcDbEntity
  8
lens_outline
370
-3
100
AcDbLine
 10
96.75897435897436
 20
142.14871794871794
 30
0.0
 11
98.1179487179487
 21
140.78974358974358
 31
0.0
  0
LINE
  5
12B
330
17
100
AcDbEntity
  8
lens_outline
370
-3
100
AcDbLine
 10
98.1179487179487
 20
140.78974358974358
 30
0.0
 11
98.1179487179487
 21
140.65384615384613
 31
0.0
  0
LINE
  5
12C
330
17
100
AcDbEntity
  8
lens_outline
370
-3
100
AcDbLine
 10
98.1179487179487
 20
140.65384615384613
 30
0.0
 11
99.06923076923076
 21
139.70256410256408
 31
0.0
  0
LINE
  5
12D
330
17
100
AcDbEntity
  8
lens_outline
370
-3
100
AcDbLine
 10
99.06923076923076
 20
139.70256410256408
 30
0.0
 11
99.06923076923076
 21
139.56666666666666
 31
0.0
  0
LINE
  5
12E
330
17
100
AcDbEntity
  8
lens_outline
370
-3
100
AcDbLine
 10
99.06923076923076
 20
139.56666666666666
 30
0.0
 11
100.29230769230769
 21
138.34358974358975
 31
0.0
  0
LINE
  5
12F
330
17
100
AcDbEntity
  8
lens_outline
370
-3
100
AcDbLine
 10
100.29230769230769
 20
138.34358974358975
 30
0.0
 11
100.29230769230769
 21
138.2076923076923
 31
0.0
  0
LINE
  5
130
330
17
100
AcDbEntity
  8
lens_outline
370
-3
100
AcDbLine
 10
100.29230769230769
 20
138.2076923076923
 30
0.0
 11
100.56410256410255
 21
137.93589743589743
 31
0.0
  0
LINE
  5
131
330
17
100
AcDbEntity
  8
lens_outline
370
-3
100
AcDbLine
 10
100.56410256410255
 20
137.93589743589743
 30
0.0
 11
100.56410256410255
 21
137.79999999999998
 31
0.0
  0
LINE
  5
132
330
17
100
AcDbEntity
  8
lens_outline
370
-3
100
AcDbLine
 10
100.56410256410255
 20
137.79999999999998
 30
0.0
 11
100.83589743589742
 21
137.52820512820512
 31
0.0
  0
LINE
  5
133
330
17
100
AcDbEntity
  8
lens_outline
370
-3
100
AcDbLine
 10
100.83589743589742
 20
137.52820512820512
 30
0.0
 11
100.83589743589742
 21
137.39230769230767
 31
0.0
  0
LINE
  5
134
330
17
100
AcDbEntity
  8
lens_outline
370
-3
100
AcDbLine
 10
100.83589743589742
 20
137.39230769230767
 30
0.0
 11
100.97179487179487
 21
137.25641025641025
 31
0.0
  0
LINE
  5
135
330
17
100
AcDbEntity
  8
lens_outline
370
-3
100
AcDbLine
 10
100.97179487179487
 20
137.25641025641025
 30
0.0
 11
100.97179487179487
 21
137.1205128205128
 31
0.0
  0
LINE
  5
136
330
17
100
AcDbEntity
  8
lens_outline
370
-3
100
AcDbLine
 10
100.97179487179487
 20
137.1205128205128
 30
0.0
 11
101.1076923076923
 21
136.98461538461538
 31
0.0
  0
LINE
  5
137
330
17
100
AcDbEntity
  8
lens_outline
370
-3
100
AcDbLine
 10
101.1076923076923
 20
136.98461538461538
 30
0.0
 11
101.1076923076923
 21
136.84871794871793
 31
0.0
  0
LINE
  5
138
330
17
100
AcDbEntity
  8
lens_outline
370
-3
100
AcDbLine
 10
101.1076923076923
 20
136.84871794871793
 30
0.0
 11
101.24358974358974
 21
136.7128205128205
 31
0.0
  0
LINE
  5
139
330
17
100
AcDbEntity
  8
lens_outline
370
-3
100
AcDbLine
 10
101.24358974358974
 20
136.7128205128205
 30
0.0
 11
101.24358974358974
 21
136.57692307692307
 31
0.0
  0
LINE
  5
13A
330
17
100
AcDbEntity
  8
lens_outline
370
-3
100
AcDbLine
 10
101.24358974358974
 20
136.57692307692307
 30
0.0
 11
101.37948717948717
 21
136.44102564102562
 31
0.0
  0
LINE
  5
13B
330
17
100
AcDbEntity
  8
lens_outline
370
-3
100
AcDbLine
 10
101.37948717948717
 20
136.44102564102562
 30
0.0
 11
101.37948717948717
 21
136.3051282051282
 31
0.0
  0
LINE
  5
13C
330
17
100
AcDbEntity
  8
lens_outline
370
-3
100
AcDbLine
 10
101.37948717948717
 20
136.3051282051282
 30
0.0
 11
101.5153846153846
 21
136.16923076923075
 31
0.0
  0
LINE
  5
13D
330
17
100
AcDbEntity
  8
lens_outline
370
-3
100
AcDbLine
 10
101.5153846153846
 20
136.16923076923075
 30
0.0
 11
101.5153846153846
 21
136.03333333333333
 31
0.0
  0
LINE
  5
13E
330
17
100
AcDbEntity
  8
lens_outline
370
-3
100
AcDbLine
 10
101.5153846153846
 20
136.03333333333333
 30
0.0
 11
101.65128205128204
 21
135.89743589743588
 31
0.0
  0
LINE
  5
13F
330
17
100
AcDbEntity
  8
lens_outline
370
-3
100
AcDbLine
 10
101.65128205128204
 20
135.89743589743588
 30
0.0
 11
101.65128205128204
 21
135.76153846153846
 31
0.0
  0
LINE
  5
140
330
17
100
AcDbEntity
  8
lens_outline
370
-3
100
AcDbLine
 10
101.65128205128204
 20
135.76153846153846
 30
0.0
 11
101.78717948717947
 21
135.62564102564102
 31
0.0
  0
LINE
  5
141
330
17
100
AcDbEntity
  8
lens_outline
370
-3
100
AcDbLine
 10
101.78717948717947
 20
135.62564102564102
 30
0.0
 11
101.78717948717947
 21
135.48974358974357
 31
0.0
  0
LINE
  5
142
330
17
100
AcDbEntity
  8
lens_outline
370
-3
100
AcDbLine
 10
101.78717948717947
 20
135.48974358974357
 30
0.0
 11
101.92307692307692
 21
135.35384615384615
 31
0.0
  0
LINE
  5
143
330
17
100
AcDbEntity
  8
lens_outline
370
-3
100
AcDbLine
 10
101.92307692307692
 20
135.35384615384615
 30
0.0
 11
101.92307692307692
 21
135.08205128205128
 31
0.0
  0
LINE
  5
144
330
17
100
AcDbEntity
  8
lens_outline
370
-3
100
AcDbLine
 10
101.92307692307692
 20
135.08205128205128
 30
0.0
 11
102.05897435897435
 21
134.94615384615383
 31
0.0
  0
LINE
  5
145
330
17
100
AcDbEntity
  8
lens_outline
370
-3
100
AcDbLine
 10
102.05897435897435
 20
134.94615384615383
 30
0.0
 11
102.05897435897435
 21
134.67435897435897
 31
0.0
  0
LINE
  5
146
330
17
100
AcDbEntity
  8
lens_outline
370
-3
100
AcDbLine
 10
102.05897435897435
 20
134.67435897435897
 30
0.0
 11
102.19487179487179
 21
134.53846153846152
 31
0.0
  0
LINE
  5
147
330
17
100
AcDbEntity
  8
lens_outline
370
-3
100
AcDbLine
 10
102.19487179487179
 20
134.53846153846152
 30
0.0
 11
102.19487179487179
 21
134.4025641025641
 31
0.0
  0
LINE
  5
148
330
17
100
AcDbEntity
  8
lens_outline
370
-3
100
AcDbLine
 10
102.19487179487179
 20
134.4025641025641
 30
0.0
 11
102.33076923076922
 21
134.26666666666665
 31
0.0
  0
LINE
  5
149
330
17
100
AcDbEntity
  8
lens_outline
370
-3
100
AcDbLine
 10
102.33076923076922
 20
134.26666666666665
 30
0.0
 11
102.33076923076922
 21
133.99487179487178
 31
0.0
  0
LINE
  5
14A
330
17
100
AcDbEntity
  8
lens_outline
370
-3
100
AcDbLine
 10
102.33076923076922
 20
133.99487179487178
 30
0.0
 11
102.46666666666665
 21
133.85897435897434
 31
0.0
  0
LINE
  5
14B
330
17
100
AcDbEntity
  8
lens_outline
370
-3
100
AcDbLine
 10
102.46666666666665
 20
133.85897435897434
 30
0.0
 11
102.46666666666665
 21
133.72307692307692
 31
0.0
  0
LINE
  5
14C
330
17
100
AcDbEntity
  8
lens_outline
370
-3
100
AcDbLine
 10
102.46666666666665
 20
133.72307692307692
 30
0.0
 11
102.60256410256409
 21
133.58717948717947
 31
0.0
  0
LINE
  5
14D
330
17
100
AcDbEntity
  8
lens_outline
370
-3
100
AcDbLine
 10
102.60256410256409
 20
133.58717948717947
 30
0.0
 11
102.60256410256409
 21
133.45128205128205
 31
0.0
  0
LINE
  5
14E
330
17
100
AcDbEntity
  8
lens_outline
370
-3
100
AcDbLine
 10
102.60256410256409
 20
133.45128205128205
 30
0.0
 11
102.73846153846154
 21
133.3153846153846
 31
0.0
  0
LINE
  5
14F
330
17
100
AcDbEntity
  8
lens_outline
370
-3
100
AcDbLine
 10
102.73846153846154
 20
133.3153846153846
 30
0.0
 11
102.73846153846154
 21
133.17948717948718
 31
0.0
  0
LINE
  5
150
330
17
100
AcDbEntity
  8
lens_outline
370
-3
100
AcDbLine
 10
102.73846153846154
 20
133.17948717948718
 30
0.0
 11
102.87435897435897
 21
133.04358974358973
 31
0.0
  0
LINE
  5
151
330
17
100
AcDbEntity
  8
lens_outline
370
-3
100
AcDbLine
 10
102.87435897435897
 20
133.04358974358973
 30
0.0
 11
102.87435897435897
 21
132.77179487179487
 31
0.0
  0
LINE
  5
152
330
17
100
AcDbEntity
  8
lens_outline
370
-3
100
AcDbLine
 10
102.87435897435897
 20
132.77179487179487
 30
0.0
 11
103.0102564102564
 21
132.63589743589742
 31
0.0
  0
LINE
  5
153
330
17
100
AcDbEntity
  8
lens_outline
370
-3
100
AcDbLine
 10
103.0102564102564
 20
132.63589743589742
 30
0.0
 11
103.0102564102564
 21
132.36410256410255
 31
0.0
  0
LINE
  5
154
330
17
100
AcDbEntity
  8
lens_outline
370
-3
100
AcDbLine
 10
103.0102564102564
 20
132.36410256410255
 30
0.0
 11
103.14615384615384
 21
132.2282051282051
 31
0.0
  0
LINE
  5
155
330
17
100
AcDbEntity
  8
lens_outline
370
-3
100
AcDbLine
 10
103.14615384615384
 20
132.2282051282051
 30
0.0
 11
103.14615384615384
 21
131.82051282051282
 31
0.0
  0
LINE
  5
156
330
17
100
AcDbEntity
  8
lens_outline
370
-3
100
AcDbLine
 10
103.14615384615384
 20
131.82051282051282
 30
0.0
 11
103.28205128205127
 21
131.68461538461537
 31
0.0
  0
LINE
  5
157
330
17
100
AcDbEntity
  8
lens_outline
370
-3
100
AcDbLine
 10
103.28205128205127
 20
131.68461538461537
 30
0.0
 11
103.28205128205127
 21
131.27692307692305
 31
0.0
  0
LINE
  5
158
330
17
100
AcDbEntity
  8
lens_outline
370
-3
100
AcDbLine
 10
103.28205128205127
 20
131.27692307692305
 30
0.0
 11
103.4179487179487
 21
131.14102564102564
 31
0.0
  0
LINE
  5
159
330
17
100
AcDbEntity
  8
lens_outline
370
-3
100
AcDbLine
 10
103.4179487179487
 20
131.14102564102564
 30
0.0
 11
103.4179487179487
 21
130.46153846153845
 31
0.0
  0
LINE
  5
15A
330
17
100
AcDbEntity
  8
lens_outline
370
-3
100
AcDbLine
 10
103.4179487179487
 20
130.46153846153845
 30
0.0
 11
103.55384615384615
 21
130.325641025641
 31
0.0
  0
LINE
  5
15B
330
17
100
AcDbEntity
  8
lens_outline
370
-3
100
AcDbLine
 10
103.55384615384615
 20
130.325641025641
 30
0.0
 11
103.55384615384615
 21
129.64615384615382
 31
0.0
  0
LINE
  5
15C
330
17
100
AcDbEntity
  8
lens_outline
370
-3
100
AcDbLine
 10
103.55384615384615
 20
129.64615384615382
 30
0.0
 11
103.68974358974359
 21
129.5102564102564
 31
0.0
  0
LINE
  5
15D
330
17
100
AcDbEntity
  8
lens_outline
370
-3
100
AcDbLine
 10
103.68974358974359
 20
129.5102564102564
 30
0.0
 11
103.68974358974359
 21
128.69487179487177
 31
0.0
  0
LINE
  5
15E
330
17
100
AcDbEntity
  8
lens_outline
370
-3
100
AcDbLine
 10
103.68974358974359
 20
128.69487179487177
 30
0.0
 11
103.82564102564102
 21
128.55897435897435
 31
0.0
  0
LINE
  5
15F
330
17
100
AcDbEntity
  8
lens_outline
370
-3
100
AcDbLine
 10
103.82564102564102
 20
128.55897435897435
 30
0.0
 11
103.82564102564102
 21
127.47179487179486
 31
0.0
  0
LINE
  5
160
330
17
100
AcDbEntity
  8
lens_outline
370
-3
100
AcDbLine
 10
103.82564102564102
 20
127.47179487179486
 30
0.0
 11
103.96153846153845
 21
127.33589743589742
 31
0.0
  0
LINE
  5
161
330
17
100
AcDbEntity
  8
lens_outline
370
-3
100
AcDbLine
 10
103.96153846153845
 20
127.33589743589742
 30
0.0
 11
103.96153846153845
 21
125.70512820512819
 31
0.0
  0
LINE
  5
162
330
17
100
AcDbEntity
  8
lens_outline
370
-3
100
AcDbLine
 10
103.96153846153845
 20
125.70512820512819
 30
0.0
 11
104.09743589743589
 21
125.56923076923076
 31
0.0
  0
LINE
  5
163
330
17
100
AcDbEntity
  8
lens_outline
370
-3
100
AcDbLine
 10
104.09743589743589
 20
125.56923076923076
 30
0.0
 11
104.09743589743589
 21
123.66666666666666
 31
0.0
  0
LINE
  5
164
330
17
100
AcDbEntity
  8
lens_outline
370
-3
100
AcDbLine
 10
104.09743589743589
 20
123.66666666666666
 30
0.0
 11
103.96153846153845
 21
123.53076923076922
 31
0.0
  0
LINE
  5
165
330
17
100
AcDbEntity
  8
lens_outline
370
-3
100
AcDbLine
 10
103.96153846153845
 20
123.53076923076922
 30
0.0
 11
103.96153846153845
 21
122.30769230769229
 31
0.0
  0
LINE
  5
166
330
17
100
AcDbEntity
  8
lens_outline
370
-3
100
AcDbLine
 10
103.96153846153845
 20
122.30769230769229
 30
0.0
 11
103.82564102564102
 21
122.17179487179486
 31
0.0
  0
LINE
  5
167
330
17
100
AcDbEntity
  8
lens_outline
370
-3
100
AcDbLine
 10
103.82564102564102
 20
122.17179487179486
 30
0.0
 11
103.82564102564102
 21
121.08461538461538
 31
0.0
  0
LINE
  5
168
330
17
100
AcDbEntity
  8
lens_outline
370
-3
100
AcDbLine
 10
103.82564102564102
 20
121.08461538461538
 30
0.0
 11
103.68974358974359
 21
120.94871794871794
 31
0.0
  0
LINE
  5
169
330
17
100
AcDbEntity
  8
lens_outline
370
-3
100
AcDbLine
 10
103.68974358974359
 20
120.94871794871794
 30
0.0
 11
103.68974358974359
 21
120.13333333333333
 31
0.0
  0
LINE
  5
16A
330
17
100
AcDbEntity
  8
lens_outline
370
-3
100
AcDbLine
 10
103.68974358974359
 20
120.13333333333333
 30
0.0
 11
103.55384615384615
 21
119.99743589743589
 31
0.0
  0
LINE
  5
16B
330
17
100
AcDbEntity
  8
lens_outline
370
-3
100
AcDbLine
 10
103.55384615384615
 20
119.99743589743589
 30
0.0
 11
103.55384615384615
 21
119.45384615384614
 31
0.0
  0
LINE
  5
16C
330
17
100
AcDbEntity
  8
lens_outline
370
-3
100
AcDbLine
 10
103.55384615384615
 20
119.45384615384614
 30
0.0
 11
103.4179487179487
 21
119.31794871794871
 31
0.0
  0
LINE
  5
16D
330
17
100
AcDbEntity
  8
lens_outline
370
-3
100
AcDbLine
 10
103.4179487179487
 20
119.31794871794871
 30
0.0
 11
103.4179487179487
 21
119.04615384615384
 31
0.0
  0
LINE
  5
16E
330
17
100
AcDbEntity
  8
lens_outline
370
-3
100
AcDbLine
 10
103.4179487179487
 20
119.04615384615384
 30
0.0
 11
103.28205128205127
 21
118.9102564102564
 31
0.0
  0
LINE
  5
16F
330
17
100
AcDbEntity
  8
lens_outline
370
-3
100
AcDbLine
 10
103.28205128205127
 20
118.9102564102564
 30
0.0
 11
103.28205128205127
 21
118.5025641025641
 31
0.0
  0
LINE
  5
170
330
17
100
AcDbEntity
  8
lens_outline
370
-3
100
AcDbLine
 10
103.28205128205127
 20
118.5025641025641
 30
0.0
 11
103.14615384615384
 21
118.36666666666666
 31
0.0
  0
LINE
  5
171
330
17
100
AcDbEntity
  8
lens_outline
370
-3
100
AcDbLine
 10
103.14615384615384
 20
118.36666666666666
 30
0.0
 11
103.14615384615384
 21
117.95897435897434
 31
0.0
  0
LINE
  5
172
330
17
100
AcDbEntity
  8
lens_outline
370
-3
100
AcDbLine
 10
103.14615384615384
 20
117.95897435897434
 30
0.0
 11
103.0102564102564
 21
117.82307692307691
 31
0.0
  0
LINE
  5
173
330
17
100
AcDbEntity
  8
lens_outline
370
-3
100
AcDbLine
 10
103.0102564102564
 20
117.82307692307691
 30
0.0
 11
103.0102564102564
 21
117.41538461538461
 31
0.0
  0
LINE
  5
174
330
17
100
AcDbEntity
  8
lens_outline
370
-3
100
AcDbLine
 10
103.0102564102564
 20
117.41538461538461
 30
0.0
 11
102.87435897435897
 21
117.27948717948718
 31
0.0
  0
LINE
  5
175
330
17
100
AcDbEntity
  8
lens_outline
370
-3
100
AcDbLine
 10
102.87435897435897
 20
117.27948717948718
 30
0.0
 11
102.87435897435897
 21
117.0076923076923
 31
0.0
  0
LINE
  5
176
330
17
100
AcDbEntity
  8
lens_outline
370
-3
100
AcDbLine
 10
102.87435897435897
 20
117.0076923076923
 30
0.0
 11
102.73846153846154
 21
116.87179487179486
 31
0.0
  0
LINE
  5
177
330
17
100
AcDbEntity
  8
lens_outline
370
-3
100
AcDbLine
 10
102.73846153846154
 20
116.87179487179486
 30
0.0
 11
102.73846153846154
 21
116.6
 31
0.0
  0
LINE
  5
178
330
17
100
AcDbEntity
  8
lens_outline
370
-3
100
AcDbLine
 10
102.73846153846154
 20
116.6
 30
0.0
 11
102.60256410256409
 21
116.46410256410256
 31
0.0
  0
LINE
  5
179
330
17
100
AcDbEntity
  8
lens_outline
370
-3
100
AcDbLine
 10
102.60256410256409
 20
116.46410256410256
 30
0.0
 11
102.60256410256409
 21
116.19230769230768
 31
0.0
  0
LINE
  5
17A
330
17
100
AcDbEntity
  8
lens_outline
370
-3
100
AcDbLine
 10
102.60256410256409
 20
116.19230769230768
 30
0.0
 11
102.46666666666665
 21
116.05641025641025
 31
0.0
  0
LINE
  5
17B
330
17
100
AcDbEntity
  8
lens_outline
370
-3
100
AcDbLine
 10
102.46666666666665
 20
116.05641025641025
 30
0.0
 11
102.46666666666665
 21
115.92051282051281
 31
0.0
  0
LINE
  5
17C
330
17
100
AcDbEntity
  8
lens_outline
370
-3
100
AcDbLine
 10
102.46666666666665
 20
115.92051282051281
 30
0.0
 11
101.78717948717947
 21
115.24102564102563
 31
0.0
  0
LINE
  5
17D
330
17
100
AcDbEntity
  8
lens_outline
370
-3
100
AcDbLine
 10
101.78717948717947
 20
115.24102564102563
 30
0.0
 11
101.65128205128204
 21
115.24102564102563
 31
0.0
  0
LINE
  5
17E
330
17
100
AcDbEntity
  8
lens_outline
370
-3
100
AcDbLine
 10
101.65128205128204
 20
115.24102564102563
 30
0.0
 11
101.5153846153846
 21
115.1051282051282
 31
0.0
  0
LINE
  5
17F
330
17
100
AcDbEntity
  8
lens_outline
370
-3
100
AcDbLine
 10
101.5153846153846
 20
115.1051282051282
 30
0.0
 11
101.37948717948717
 21
115.1051282051282
 31
0.0
  0
LINE
  5
180
330
17
100
AcDbEntity
  8
lens_outline
370
-3
100
AcDbLine
 10
101.37948717948717
 20
115.1051282051282
 30
0.0
 11
101.24358974358974
 21
114.96923076923076
 31
0.0
  0
LINE
  5
181
330
17
100
AcDbEntity
  8
lens_outline
370
-3
100
AcDbLine
 10
101.24358974358974
 20
114.96923076923076
 30
0.0
 11
101.1076923076923
 21
114.96923076923076
 31
0.0
  0
LINE
  5
182
330
17
100
AcDbEntity
  8
lens_outline
370
-3
100
AcDbLine
 10
101.1076923076923
 20
114.96923076923076
 30
0.0
 11
100.83589743589742
 21
114.6974358974359
 31
0.0
  0
LINE
  5
183
330
17
100
AcDbEntity
  8
lens_outline
370
-3
100
AcDbLine
 10
100.83589743589742
 20
114.6974358974359
 30
0.0
 11
100.42820512820512
 21
114.6974358974359
 31
0.0
  0
LINE
  5
184
330
17
100
AcDbEntity
  8
lens_outline
370
-3
100
AcDbLine
 10
100.42820512820512
 20
114.6974358974359
 30
0.0
 11
100.29230769230769
 21
114.56153846153845
 31
0.0
  0
LINE
  5
185
330
17
100
AcDbEntity
  8
lens_outline
370
-3
100
AcDbLine
 10
100.29230769230769
 20
114.56153846153845
 30
0.0
 11
100.15641025641025
 21
114.56153846153845
 31
0.0
  0
LINE
  5
186
330
17
100
AcDbEntity
  8
lens_outline
370
-3
100
AcDbLine
 10
100.15641025641025
 20
114.56153846153845
 30
0.0
 11
100.0205128205128
 21
114.42564102564101
 31
0.0
  0
LINE
  5
187
330
17
100
AcDbEntity
  8
lens_outline
370
-3
100
AcDbLine
 10
100.0205128205128
 20
114.42564102564101
 30
0.0
 11
99.74871794871794
 21
114.42564102564101
 31
0.0
  0
LINE
  5
188
330
17
100
AcDbEntity
  8
lens_outline
370
-3
100
AcDbLine
 10
99.74871794871794
 20
114.42564102564101
 30
0.0
 11
99.6128205128205
 21
114.28974358974358
 31
0.0
  0
LINE
  5
189
330
17
100
AcDbEntity
  8
lens_outline
370
-3
100
AcDbLine
 10
99.6128205128205
 20
114.28974358974358
 30
0.0
 11
99.34102564102564
 21
114.28974358974358
 31
0.0
  0
LINE
  5
18A
330
17
100
AcDbEntity
  8
lens_outline
370
-3
100
AcDbLine
 10
99.34102564102564
 20
114.28974358974358
 30
0.0
 11
99.20512820512819
 21
114.15384615384615
 31
0.0
  0
LINE
  5
18B
330
17
100
AcDbEntity
  8
lens_outline
370
-3
100
AcDbLine
 10
99.20512820512819
 20
114.15384615384615
 30
0.0
 11
98.93333333333332
 21
114.15384615384615
 31
0.0
  0
LINE
  5
18C
330
17
100
AcDbEntity
  8
lens_outline
370
-3
100
AcDbLine
 10
98.93333333333332
 20
114.15384615384615
 30
0.0
 11
98.79743589743589
 21
114.01794871794871
 31
0.0
  0
LINE
  5
18D
330
17
100
AcDbEntity
  8
lens_outline
370
-3
100
AcDbLine
 10
98.79743589743589
 20
114.01794871794871
 30
0.0
 11
98.66153846153846
 21
114.01794871794871
 31
0.0
  0
LINE
  5
18E
330
17
100
AcDbEntity
  8
lens_outline
370
-3
100
AcDbLine
 10
98.66153846153846
 20
114.01794871794871
 30
0.0
 11
98.52564102564102
 21
113.88205128205128
 31
0.0
  0
LINE
  5
18F
330
17
100
AcDbEntity
  8
lens_outline
370
-3
100
AcDbLine
 10
98.52564102564102
 20
113.88205128205128
 30
0.0
 11
98.25384615384614
 21
113.88205128205128
 31
0.0
  0
LINE
  5
190
330
17
100
AcDbEntity
  8
lens_outline
370
-3
100
AcDbLine
 10
98.25384615384614
 20
113.88205128205128
 30
0.0
 11
98.1179487179487
 21
113.74615384615383
 31
0.0
  0
LINE
  5
191
330
17
100
AcDbEntity
  8
lens_outline
370
-3
100
AcDbLine
 10
98.1179487179487
 20
113.74615384615383
 30
0.0
 11
97.7102564102564
 21
113.74615384615383
 31
0.0
  0
LINE
  5
192
330
17
100
AcDbEntity
  8
lens_outline
370
-3
100
AcDbLine
 10
97.7102564102564
 20
113.74615384615383
 30
0.0
 11
97.57435897435897
 21
113.6102564102564
 31
0.0
  0
LINE
  5
193
330
17
100
AcDbEntity
  8
lens_outline
370
-3
100
AcDbLine
 10
97.57435897435897
 20
113.6102564102564
 30
0.0
 11
97.16666666666666
 21
113.6102564102564
 31
0.0
  0
LINE
  5
194
330
17
100
AcDbEntity
  8
lens_outline
370
-3
100
AcDbLine
 10
97.16666666666666
 20
113.6102564102564
 30
0.0
 11
97.03076923076922
 21
113.47435897435896
 31
0.0
  0
LINE
  5
195
330
17
100
AcDbEntity
  8
lens_outline
370
-3
100
AcDbLine
 10
97.03076923076922
 20
113.47435897435896
 30
0.0
 11
96.75897435897436
 21
113.47435897435896
 31
0.0
  0
LINE
  5
196
330
17
100
AcDbEntity
  8
lens_outline
370
-3
100
AcDbLine
 10
96.75897435897436
 20
113.47435897435896
 30
0.0
 11
96.62307692307691
 21
113.33846153846153
 31
0.0
  0
LINE
  5
197
330
17
100
AcDbEntity
  8
lens_outline
370
-3
100
AcDbLine
 10
96.62307692307691
 20
113.33846153846153
 30
0.0
 11
96.35128205128204
 21
113.33846153846153
 31
0.0
  0
LINE
  5
198
330
17
100
AcDbEntity
  8
lens_outline
370
-3
100
AcDbLine
 10
96.35128205128204
 20
113.33846153846153
 30
0.0
 11
96.21538461538461
 21
113.2025641025641
 31
0.0
  0
LINE
  5
199
330
17
100
AcDbEntity
  8
lens_outline
370
-3
100
AcDbLine
 10
96.21538461538461
 20
113.2025641025641
 30
0.0
 11
95.8076923076923
 21
113.2025641025641
 31
0.0
  0
LINE
  5
19A
330
17
100
AcDbEntity
  8
lens_outline
370
-3
100
AcDbLine
 10
95.8076923076923
 20
113.2025641025641
 30
0.0
 11
95.67179487179486
 21
113.06666666666666
 31
0.0
  0
LINE
  5
19B
330
17
100
AcDbEntity
  8
lens_outline
370
-3
100
AcDbLine
 10
95.67179487179486
 20
113.06666666666666
 30
0.0
 11
95.26410256410256
 21
113.06666666666666
 31
0.0
  0
LINE
  5
19C
330
17
100
AcDbEntity
  8
lens_outline
370
-3
100
AcDbLine
 10
95.26410256410256
 20
113.06666666666666
 30
0.0
 11
95.12820512820512
 21
112.93076923076922
 31
0.0
  0
LINE
  5
19D
330
17
100
AcDbEntity
  8
lens_outline
370
-3
100
AcDbLine
 10
95.12820512820512
 20
112.93076923076922
 30
0.0
 11
94.72051282051281
 21
112.93076923076922
 31
0.0
  0
LINE
  5
19E
330
17
100
AcDbEntity
  8
lens_outline
370
-3
100
AcDbLine
 10
94.72051282051281
 20
112.93076923076922
 30
0.0
 11
94.58461538461538
 21
112.79487179487178
 31
0.0
  0
LINE
  5
19F
330
17
100
AcDbEntity
  8
lens_outline
370
-3
100
AcDbLine
 10
94.58461538461538
 20
112.79487179487178
 30
0.0
 11
94.17692307692307
 21
112.79487179487178
 31
0.0
  0
LINE
  5
1A0
330
17
100
AcDbEntity
  8
lens_outline
370
-3
100
AcDbLine
 10
94.17692307692307
 20
112.79487179487178
 30
0.0
 11
94.04102564102563
 21
112.65897435897435
 31
0.0
  0
LINE
  5
1A1
330
17
100
AcDbEntity
  8
lens_outline
370
-3
100
AcDbLine
 10
94.04102564102563
 20
112.65897435897435
 30
0.0
 11
93.49743589743589
 21
112.65897435897435
 31
0.0
  0
LINE
  5
1A2
330
17
100
AcDbEntity
  8
lens_outline
370
-3
100
AcDbLine
 10
93.49743589743589
 20
112.65897435897435
 30
0.0
 11
93.36153846153846
 21
112.52307692307691
 31
0.0
  0
LINE
  5
1A3
330
17
100
AcDbEntity
  8
lens_outline
370
-3
100
AcDbLine
 10
93.36153846153846
 20
112.52307692307691
 30
0.0
 11
92.68205128205128
 21
112.52307692307691
 31
0.0
  0
LINE
  5
1A4
330
17
100
AcDbEntity
  8
lens_outline
370
-3
100
AcDbLine
 10
92.68205128205128
 20
112.52307692307691
 30
0.0
 11
92.54615384615384
 21
112.38717948717948
 31
0.0
  0
LINE
  5
1A5
330
17
100
AcDbEntity
  8
lens_outline
370
-3
100
AcDbLine
 10
92.54615384615384
 20
112.38717948717948
 30
0.0
 11
92.13846153846153
 21
112.38717948717948
 31
0.0
  0
LINE
  5
1A6
330
17
100
AcDbEntity
  8
lens_outline
370
-3
100
AcDbLine
 10
92.13846153846153
 20
112.38717948717948
 30
0.0
 11
92.0025641025641
 21
112.25128205128205
 31
0.0
  0
LINE
  5
1A7
330
17
100
AcDbEntity
  8
lens_outline
370
-3
100
AcDbLine
 10
92.0025641025641
 20
112.25128205128205
 30
0.0
 11
91.59487179487179
 21
112.25128205128205
 31
0.0
  0
LINE
  5
1A8
330
17
100
AcDbEntity
  8
lens_outline
370
-3
100
AcDbLine
 10
91.59487179487179
 20
112.25128205128205
 30
0.0
 11
91.45897435897434
 21
112.11538461538461
 31
0.0
  0
LINE
  5
1A9
330
17
100
AcDbEntity
  8
lens_outline
370
-3
100
AcDbLine
 10
91.45897435897434
 20
112.11538461538461
 30
0.0
 11
90.77948717948718
 21
112.11538461538461
 31
0.0
  0
LINE
  5
1AA
330
17
100
AcDbEntity
  8
lens_outline
370
-3
100
AcDbLine
 10
90.77948717948718
 20
112.11538461538461
 30
0.0
 11
90.64358974358974
 21
111.97948717948717
 31
0.0
  0
LINE
  5
1AB
330
17
100
AcDbEntity
  8
lens_outline
370
-3
100
AcDbLine
 10
90.64358974358974
 20
111.97948717948717
 30
0.0
 11
89.96410256410256
 21
111.97948717948717
 31
0.0
  0
LINE
  5
1AC
330
17
100
AcDbEntity
  8
lens_outline
370
-3
100
AcDbLine
 10
89.96410256410256
 20
111.97948717948717
 30
0.0
 11
89.82820512820513
 21
111.84358974358973
 31
0.0
  0
LINE
  5
1AD
330
17
100
AcDbEntity
  8
lens_outline
370
-3
100
AcDbLine
 10
89.82820512820513
 20
111.84358974358973
 30
0.0
 11
89.14871794871794
 21
111.84358974358973
 31
0.0
  0
LINE
  5
1AE
330
17
100
AcDbEntity
  8
lens_outline
370
-3
100
AcDbLine
 10
89.14871794871794
 20
111.84358974358973
 30
0.0
 11
89.01282051282051
 21
111.7076923076923
 31
0.0
  0
LINE
  5
1AF
330
17
100
AcDbEntity
  8
lens_outline
370
-3
100
AcDbLine
 10
89.01282051282051
 20
111.7076923076923
 30
0.0
 11
88.1974358974359
 21
111.7076923076923
 31
0.0
  0
LINE
  5
1B0
330
17
100
AcDbEntity
  8
lens_outline
370
-3
100
AcDbLine
 10
88.1974358974359
 20
111.7076923076923
 30
0.0
 11
88.06153846153846
 21
111.57179487179486
 31
0.0
  0
LINE
  5
1B1
330
17
100
AcDbEntity
  8
lens_outline
370
-3
100
AcDbLine
 10
88.06153846153846
 20
111.57179487179486
 30
0.0
 11
86.83846153846153
 21
111.57179487179486
 31
0.0
  0
LINE
  5
1B2
330
17
100
AcDbEntity
  8
lens_outline
370
-3
100
AcDbLine
 10
86.83846153846153
 20
111.57179487179486
 30
0.0
 11
86.7025641025641
 21
111.43589743589743
 31
0.0
  0
LINE
  5
1B3
330
17
100
AcDbEntity
  8
lens_outline
370
-3
100
AcDbLine
 10
86.7025641025641
 20
111.43589743589743
 30
0.0
 11
84.93589743589743
 21
111.43589743589743
 31
0.0
  0
LINE
  5
1B4
330
17
100
AcDbEntity
  8
lens_outline
370
-3
100
AcDbLine
 10
84.93589743589743
 20
111.43589743589743
 30
0.0
 11
84.8
 21
111.3
 31
0.0
  0
LINE
  5
1B5
330
17
100
AcDbEntity
  8
lens_outline
370
-3
100
AcDbLine
 10
84.8
 20
111.3
 30
0.0
 11
78.14102564102564
 21
111.3
 31
0.0
  0
LINE
  5
1B6
330
17
100
AcDbEntity
  8
lens_outline
370
-3
100
AcDbLine
 10
74.87948717948717
 20
107.76666666666665
 30
0.0
 11
74.74358974358974
 21
107.9025641025641
 31
0.0
  0
LINE
  5
1B7
330
17
100
AcDbEntity
  8
lens_outline
370
-3
100
AcDbLine
 10
74.74358974358974
 20
107.9025641025641
 30
0.0
 11
72.97692307692307
 21
107.9025641025641
 31
0.0
  0
LINE
  5
1B8
330
17
100
AcDbEntity
  8
lens_outline
370
-3
100
AcDbLine
 10
72.97692307692307
 20
107.9025641025641
 30
0.0
 11
72.84102564102564
 21
108.03846153846153
 31
0.0
  0
LINE
  5
1B9
330
17
100
AcDbEntity
  8
lens_outline
370
-3
100
AcDbLine
 10
72.84102564102564
 20
108.03846153846153
 30
0.0
 11
71.6179487179487
 21
108.03846153846153
 31
0.0
  0
LINE
  5
1BA
330
17
100
AcDbEntity
  8
lens_outline
370
-3
100
AcDbLine
 10
71.6179487179487
 20
108.03846153846153
 30
0.0
 11
71.48205128205127
 21
108.17435897435897
 31
0.0
  0
LINE
  5
1BB
330
17
100
AcDbEntity
  8
lens_outline
370
-3
100
AcDbLine
 10
71.48205128205127
 20
108.17435897435897
 30
0.0
 11
70.66666666666666
 21
108.17435897435897
 31
0.0
  0
LINE
  5
1BC
330
17
100
AcDbEntity
  8
lens_outline
370
-3
100
AcDbLine
 10
70.66666666666666
 20
108.17435897435897
 30
0.0
 11
70.53076923076922
 21
108.3102564102564
 31
0.0
  0
LINE
  5
1BD
330
17
100
AcDbEntity
  8
lens_outline
370
-3
100
AcDbLine
 10
70.53076923076922
 20
108.3102564102564
 30
0.0
 11
69.57948717948717
 21
108.3102564102564
 31
0.0
  0
LINE
  5
1BE
330
17
100
AcDbEntity
  8
lens_outline
370
-3
100
AcDbLine
 10
69.57948717948717
 20
108.3102564102564
 30
0.0
 11
69.44358974358974
 21
108.44615384615383
 31
0.0
  0
LINE
  5
1BF
330
17
100
AcDbEntity
  8
lens_outline
370
-3
100
AcDbLine
 10
69.44358974358974
 20
108.44615384615383
 30
0.0
 11
68.49230769230769
 21
108.44615384615383
 31
0.0
  0
LINE
  5
1C0
330
17
100
AcDbEntity
  8
lens_outline
370
-3
100
AcDbLine
 10
68.49230769230769
 20
108.44615384615383
 30
0.0
 11
68.35641025641026
 21
108.58205128205127
 31
0.0
  0
LINE
  5
1C1
330
17
100
AcDbEntity
  8
lens_outline
370
-3
100
AcDbLine
 10
68.35641025641026
 20
108.58205128205127
 30
0.0
 11
67.67692307692307
 21
108.58205128205127
 31
0.0
  0
LINE
  5
1C2
330
17
100
AcDbEntity
  8
lens_outline
370
-3
100
AcDbLine
 10
67.67692307692307
 20
108.58205128205127
 30
0.0
 11
67.54102564102564
 21
108.71794871794872
 31
0.0
  0
LINE
  5
1C3
330
17
100
AcDbEntity
  8
lens_outline
370
-3
100
AcDbLine
 10
67.54102564102564
 20
108.71794871794872
 30
0.0
 11
66.99743589743589
 21
108.71794871794872
 31
0.0
  0
LINE
  5
1C4
330
17
100
AcDbEntity
  8
lens_outline
370
-3
100
AcDbLine
 10
66.99743589743589
 20
108.71794871794872
 30
0.0
 11
66.86153846153846
 21
108.85384615384615
 31
0.0
  0
LINE
  5
1C5
330
17
100
AcDbEntity
  8
lens_outline
370
-3
100
AcDbLine
 10
66.86153846153846
 20
108.85384615384615
 30
0.0
 11
66.45384615384614
 21
108.85384615384615
 31
0.0
  0
LINE
  5
1C6
330
17
100
AcDbEntity
  8
lens_outline
370
-3
100
AcDbLine
 10
66.45384615384614
 20
108.85384615384615
 30
0.0
 11
66.31794871794871
 21
108.98974358974358
 31
0.0
  0
LINE
  5
1C7
330
17
100
AcDbEntity
  8
lens_outline
370
-3
100
AcDbLine
 10
66.31794871794871
 20
108.98974358974358
 30
0.0
 11
65.77435897435898
 21
108.98974358974358
 31
0.0
  0
LINE
  5
1C8
330
17
100
AcDbEntity
  8
lens_outline
370
-3
100
AcDbLine
 10
65.77435897435898
 20
108.98974358974358
 30
0.0
 11
65.63846153846153
 21
109.12564102564102
 31
0.0
  0
LINE
  5
1C9
330
17
100
AcDbEntity
  8
lens_outline
370
-3
100
AcDbLine
 10
65.63846153846153
 20
109.12564102564102
 30
0.0
 11
65.23076923076923
 21
109.12564102564102
 31
0.0
  0
LINE
  5
1CA
330
17
100
AcDbEntity
  8
lens_outline
370
-3
100
AcDbLine
 10
65.23076923076923
 20
109.12564102564102
 30
0.0
 11
65.09487179487179
 21
109.26153846153845
 31
0.0
  0
LINE
  5
1CB
330
17
100
AcDbEntity
  8
lens_outline
370
-3
100
AcDbLine
 10
65.09487179487179
 20
109.26153846153845
 30
0.0
 11
64.68717948717948
 21
109.26153846153845
 31
0.0
  0
LINE
  5
1CC
330
17
100
AcDbEntity
  8
lens_outline
370
-3
100
AcDbLine
 10
64.68717948717948
 20
109.26153846153845
 30
0.0
 11
64.55128205128204
 21
109.39743589743588
 31
0.0
  0
LINE
  5
1CD
330
17
100
AcDbEntity
  8
lens_outline
370
-3
100
AcDbLine
 10
64.55128205128204
 20
109.39743589743588
 30
0.0
 11
64.27948717948718
 21
109.39743589743588
 31
0.0
  0
LINE
  5
1CE
330
17
100
AcDbEntity
  8
lens_outline
370
-3
100
AcDbLine
 10
64.27948717948718
 20
109.39743589743588
 30
0.0
 11
64.14358974358974
 21
109.53333333333333
 31
0.0
  0
LINE
  5
1CF
330
17
100
AcDbEntity
  8
lens_outline
370
-3
100
AcDbLine
 10
64.14358974358974
 20
109.53333333333333
 30
0.0
 11
63.73589743589743
 21
109.53333333333333
 31
0.0
  0
LINE
  5
1D0
330
17
100
AcDbEntity
  8
lens_outline
370
-3
100
AcDbLine
 10
63.73589743589743
 20
109.53333333333333
 30
0.0
 11
63.599999999999994
 21
109.66923076923077
 31
0.0
  0
LINE
  5
1D1
330
17
100
AcDbEntity
  8
lens_outline
370
-3
100
AcDbLine
 10
63.599999999999994
 20
109.66923076923077
 30
0.0
 11
63.32820512820512
 21
109.66923076923077
 31
0.0
  0
LINE
  5
1D2
330
17
100
AcDbEntity
  8
lens_outline
370
-3
100
AcDbLine
 10
63.32820512820512
 20
109.66923076923077
 30
0.0
 11
63.192307692307686
 21
109.8051282051282
 31
0.0
  0
LINE
  5
1D3
330
17
100
AcDbEntity
  8
lens_outline
370
-3
100
AcDbLine
 10
63.192307692307686
 20
109.8051282051282
 30
0.0
 11
62.78461538461538
 21
109.8051282051282
 31
0.0
  0
LINE
  5
1D4
330
17
100
AcDbEntity
  8
lens_outline
370
-3
100
AcDbLine
 10
62.78461538461538
 20
109.8051282051282
 30
0.0
 11
62.648717948717945
 21
109.94102564102563
 31
0.0
  0
LINE
  5
1D5
330
17
100
AcDbEntity
  8
lens_outline
370
-3
100
AcDbLine
 10
62.648717948717945
 20
109.94102564102563
 30
0.0
 11
62.37692307692307
 21
109.94102564102563
 31
0.0
  0
LINE
  5
1D6
330
17
100
AcDbEntity
  8
lens_outline
370
-3
100
AcDbLine
 10
62.37692307692307
 20
109.94102564102563
 30
0.0
 11
62.24102564102564
 21
110.07692307692307
 31
0.0
  0
LINE
  5
1D7
330
17
100
AcDbEntity
  8
lens_outline
370
-3
100
AcDbLine
 10
62.24102564102564
 20
110.07692307692307
 30
0.0
 11
61.96923076923076
 21
110.07692307692307
 31
0.0
  0
LINE
  5
1D8
330
17
100
AcDbEntity
  8
lens_outline
370
-3
100
AcDbLine
 10
61.96923076923076
 20
110.07692307692307
 30
0.0
 11
61.83333333333333
 21
110.2128205128205
 31
0.0
  0
LINE
  5
1D9
330
17
100
AcDbEntity
  8
lens_outline
370
-3
100
AcDbLine
 10
61.83333333333333
 20
110.2128205128205
 30
0.0
 11
61.561538461538454
 21
110.2128205128205
 31
0.0
  0
LINE
  5
1DA
330
17
100
AcDbEntity
  8
lens_outline
370
-3
100
AcDbLine
 10
61.561538461538454
 20
110.2128205128205
 30
0.0
 11
61.42564102564102
 21
110.34871794871793
 31
0.0
  0
LINE
  5
1DB
330
17
100
AcDbEntity
  8
lens_outline
370
-3
100
AcDbLine
 10
61.42564102564102
 20
110.34871794871793
 30
0.0
 11
61.153846153846146
 21
110.34871794871793
 31
0.0
  0
LINE
  5
1DC
330
17
100
AcDbEntity
  8
lens_outline
370
-3
100
AcDbLine
 10
61.153846153846146
 20
110.34871794871793
 30
0.0
 11
61.01794871794871
 21
110.48461538461538
 31
0.0
  0
LINE
  5
1DD
330
17
100
AcDbEntity
  8
lens_outline
370
-3
100
AcDbLine
 10
61.01794871794871
 20
110.48461538461538
 30
0.0
 11
60.88205128205128
 21
110.48461538461538
 31
0.0
  0
LINE
  5
1DE
330
17
100
AcDbEntity
  8
lens_outline
370
-3
100
AcDbLine
 10
60.88205128205128
 20
110.48461538461538
 30
0.0
 11
60.74615384615384
 21
110.62051282051281
 31
0.0
  0
LINE
  5
1DF
330
17
100
AcDbEntity
  8
lens_outline
370
-3
100
AcDbLine
 10
60.74615384615384
 20
110.62051282051281
 30
0.0
 11
60.47435897435897
 21
110.62051282051281
 31
0.0
  0
LINE
  5
1E0
330
17
100
AcDbEntity
  8
lens_outline
370
-3
100
AcDbLine
 10
60.47435897435897
 20
110.62051282051281
 30
0.0
 11
60.33846153846153
 21
110.75641025641025
 31
0.0
  0
LINE
  5
1E1
330
17
100
AcDbEntity
  8
lens_outline
370
-3
100
AcDbLine
 10
60.33846153846153
 20
110.75641025641025
 30
0.0
 11
60.06666666666666
 21
110.75641025641025
 31
0.0
  0
LINE
  5
1E2
330
17
100
AcDbEntity
  8
lens_outline
370
-3
100
AcDbLine
 10
60.06666666666666
 20
110.75641025641025
 30
0.0
 11
59.93076923076923
 21
110.89230769230768
 31
0.0
  0
LINE
  5
1E3
330
17
100
AcDbEntity
  8
lens_outline
370
-3
100
AcDbLine
 10
59.93076923076923
 20
110.89230769230768
 30
0.0
 11
59.658974358974355
 21
110.89230769230768
 31
0.0
  0
LINE
  5
1E4
330
17
100
AcDbEntity
  8
lens_outline
370
-3
100
AcDbLine
 10
59.658974358974355
 20
110.89230769230768
 30
0.0
 11
59.52307692307692
 21
111.02820512820512
 31
0.0
  0
LINE
  5
1E5
330
17
100
AcDbEntity
  8
lens_outline
370
-3
100
AcDbLine
 10
59.52307692307692
 20
111.02820512820512
 30
0.0
 11
59.38717948717948
 21
111.02820512820512
 31
0.0
  0
LINE
  5
1E6
330
17
100
AcDbEntity
  8
lens_outline
370
-3
100
AcDbLine
 10
59.38717948717948
 20
111.02820512820512
 30
0.0
 11
59.25128205128205
 21
111.16410256410255
 31
0.0
  0
LINE
  5
1E7
330
17
100
AcDbEntity
  8
lens_outline
370
-3
100
AcDbLine
 10
59.25128205128205
 20
111.16410256410255
 30
0.0
 11
58.97948717948717
 21
111.16410256410255
 31
0.0
  0
LINE
  5
1E8
330
17
100
AcDbEntity
  8
lens_outline
370
-3
100
AcDbLine
 10
58.97948717948717
 20
111.16410256410255
 30
0.0
 11
58.84358974358974
 21
111.3
 31
0.0
  0
LINE
  5
1E9
330
17
100
AcDbEntity
  8
lens_outline
370
-3
100
AcDbLine
 10
58.84358974358974
 20
111.3
 30
0.0
 11
58.571794871794864
 21
111.3
 31
0.0
  0
LINE
  5
1EA
330
17
100
AcDbEntity
  8
lens_outline
370
-3
100
AcDbLine
 10
58.571794871794864
 20
111.3
 30
0.0
 11
58.43589743589743
 21
111.43589743589743
 31
0.0
  0
LINE
  5
1EB
330
17
100
AcDbEntity
  8
lens_outline
370
-3
100
AcDbLine
 10
58.43589743589743
 20
111.43589743589743
 30
0.0
 11
58.3
 21
111.43589743589743
 31
0.0
  0
LINE
  5
1EC
330
17
100
AcDbEntity
  8
lens_outline
370
-3
100
AcDbLine
 10
58.3
 20
111.43589743589743
 30
0.0
 11
58.164102564102556
 21
111.57179487179486
 31
0.0
  0
LINE
  5
1ED
330
17
100
AcDbEntity
  8
lens_outline
370
-3
100
AcDbLine
 10
58.164102564102556
 20
111.57179487179486
 30
0.0
 11
58.02820512820512
 21
111.57179487179486
 31
0.0
  0
LINE
  5
1EE
330
17
100
AcDbEntity
  8
lens_outline
370
-3
100
AcDbLine
 10
58.02820512820512
 20
111.57179487179486
 30
0.0
 11
57.89230769230769
 21
111.7076923076923
 31
0.0
  0
LINE
  5
1EF
330
17
100
AcDbEntity
  8
lens_outline
370
-3
100
AcDbLine
 10
57.89230769230769
 20
111.7076923076923
 30
0.0
 11
57.75641025641025
 21
111.7076923076923
 31
0.0
  0
LINE
  5
1F0
330
17
100
AcDbEntity
  8
lens_outline
370
-3
100
AcDbLine
 10
57.75641025641025
 20
111.7076923076923
 30
0.0
 11
57.48461538461538
 21
111.97948717948717
 31
0.0
  0
LINE
  5
1F1
330
17
100
AcDbEntity
  8
lens_outline
370
-3
100
AcDbLine
 10
57.48461538461538
 20
111.97948717948717
 30
0.0
 11
57.34871794871795
 21
111.97948717948717
 31
0.0
  0
LINE
  5
1F2
330
17
100
AcDbEntity
  8
lens_outline
370
-3
100
AcDbLine
 10
57.34871794871795
 20
111.97948717948717
 30
0.0
 11
56.8051282051282
 21
112.52307692307691
 31
0.0
  0
LINE
  5
1F3
330
17
100
AcDbEntity
  8
lens_outline
370
-3
100
AcDbLine
 10
56.8051282051282
 20
112.52307692307691
 30
0.0
 11
56.669230769230765
 21
112.52307692307691
 31
0.0
  0
LINE
  5
1F4
330
17
100
AcDbEntity
  8
lens_outline
370
-3
100
AcDbLine
 10
56.669230769230765
 20
112.52307692307691
 30
0.0
 11
53.679487179487175
 21
115.5128205128205
 31
0.0
  0
LINE
  5
1F5
330
17
100
AcDbEntity
  8
lens_outline
370
-3
100
AcDbLine
 10
53.679487179487175
 20
115.5128205128205
 30
0.0
 11
53.679487179487175
 21
115.64871794871794
 31
0.0
  0
LINE
  5
1F6
330
17
100
AcDbEntity
  8
lens_outline
370
-3
100
AcDbLine
 10
53.679487179487175
 20
115.64871794871794
 30
0.0
 11
52.728205128205126
 21
116.6
 31
0.0
  0
LINE
  5
1F7
330
17
100
AcDbEntity
  8
lens_outline
370
-3
100
AcDbLine
 10
52.728205128205126
 20
116.6
 30
0.0
 11
52.728205128205126
 21
116.73589743589743
 31
0.0
  0
LINE
  5
1F8
330
17
100
AcDbEntity
  8
lens_outline
370
-3
100
AcDbLine
 10
52.728205128205126
 20
116.73589743589743
 30
0.0
 11
52.45641025641025
 21
117.0076923076923
 31
0.0
  0
LINE
  5
1F9
330
17
100
AcDbEntity
  8
lens_outline
370
-3
100
AcDbLine
 10
52.45641025641025
 20
117.0076923076923
 30
0.0
 11
52.45641025641025
 21
117.14358974358973
 31
0.0
  0
LINE
  5
1FA
330
17
100
AcDbEntity
  8
lens_outline
370
-3
100
AcDbLine
 10
52.45641025641025
 20
117.14358974358973
 30
0.0
 11
52.184615384615384
 21
117.41538461538461
 31
0.0
  0
LINE
  5
1FB
330
17
100
AcDbEntity
  8
lens_outline
370
-3
100
AcDbLine
 10
52.184615384615384
 20
117.41538461538461
 30
0.0
 11
52.184615384615384
 21
117.55128205128204
 31
0.0
  0
LINE
  5
1FC
330
17
100
AcDbEntity
  8
lens_outline
370
-3
100
AcDbLine
 10
52.184615384615384
 20
117.55128205128204
 30
0.0
 11
51.91282051282051
 21
117.82307692307691
 31
0.0
  0
LINE
  5
1FD
330
17
100
AcDbEntity
  8
lens_outline
370
-3
100
AcDbLine
 10
51.91282051282051
 20
117.82307692307691
 30
0.0
 11
51.91282051282051
 21
117.95897435897434
 31
0.0
  0
LINE
  5
1FE
330
17
100
AcDbEntity
  8
lens_outline
370
-3
100
AcDbLine
 10
51.91282051282051
 20
117.95897435897434
 30
0.0
 11
51.641025641025635
 21
118.23076923076923
 31
0.0
  0
LINE
  5
1FF
330
17
100
AcDbEntity
  8
lens_outline
370
-3
100
AcDbLine
 10
51.641025641025635
 20
118.23076923076923
 30
0.0
 11
51.641025641025635
 21
118.36666666666666
 31
0.0
  0
LINE
  5
200
330
17
100
AcDbEntity
  8
lens_outline
370
-3
100
AcDbLine
 10
51.641025641025635
 20
118.36666666666666
 30
0.0
 11
51.5051282051282
 21
118.5025641025641
 31
0.0
  0
LINE
  5
201
330
17
100
AcDbEntity
  8
lens_outline
370
-3
100
AcDbLine
 10
51.5051282051282
 20
118.5025641025641
 30
0.0
 11
51.5051282051282
 21
118.77435897435896
 31
0.0
  0
LINE
  5
202
330
17
100
AcDbEntity
  8
lens_outline
370
-3
100
AcDbLine
 10
51.5051282051282
 20
118.77435897435896
 30
0.0
 11
51.36923076923077
 21
118.9102564102564
 31
0.0
  0
LINE
  5
203
330
17
100
AcDbEntity
  8
lens_outline
370
-3
100
AcDbLine
 10
51.36923076923077
 20
118.9102564102564
 30
0.0
 11
51.36923076923077
 21
119.31794871794871
 31
0.0
  0
LINE
  5
204
330
17
100
AcDbEntity
  8
lens_outline
370
-3
100
AcDbLine
 10
51.36923076923077
 20
119.31794871794871
 30
0.0
 11
51.23333333333333
 21
119.45384615384614
 31
0.0
  0
LINE
  5
205
330
17
100
AcDbEntity
  8
lens_outline
370
-3
100
AcDbLine
 10
51.23333333333333
 20
119.45384615384614
 30
0.0
 11
51.23333333333333
 21
119.99743589743589
 31
0.0
  0
LINE
  5
206
330
17
100
AcDbEntity
  8
lens_outline
370
-3
100
AcDbLine
 10
51.23333333333333
 20
119.99743589743589
 30
0.0
 11
51.09743589743589
 21
120.13333333333333
 31
0.0
  0
LINE
  5
207
330
17
100
AcDbEntity
  8
lens_outline
370
-3
100
AcDbLine
 10
51.09743589743589
 20
120.13333333333333
 30
0.0
 11
51.09743589743589
 21
131.14102564102564
 31
0.0
  0
LINE
  5
208
330
17
100
AcDbEntity
  8
lens_outline
370
-3
100
AcDbLine
 10
51.09743589743589
 20
131.14102564102564
 30
0.0
 11
51.23333333333333
 21
131.27692307692305
 31
0.0
  0
LINE
  5
209
330
17
100
AcDbEntity
  8
lens_outline
370
-3
100
AcDbLine
 10
51.23333333333333
 20
131.27692307692305
 30
0.0
 11
51.23333333333333
 21
131.95641025641024
 31
0.0
  0
LINE
  5
20A
330
17
100
AcDbEntity
  8
lens_outline
370
-3
100
AcDbLine
 10
51.23333333333333
 20
131.95641025641024
 30
0.0
 11
51.36923076923077
 21
132.09230769230768
 31
0.0
  0
LINE
  5
20B
330
17
100
AcDbEntity
  8
lens_outline
370
-3
100
AcDbLine
 10
51.36923076923077
 20
132.09230769230768
 30
0.0
 11
51.36923076923077
 21
132.9076923076923
 31
0.0
  0
LINE
  5
20C
330
17
100
AcDbEntity
  8
lens_outline
370
-3
100
AcDbLine
 10
51.36923076923077
 20
132.9076923076923
 30
0.0
 11
51.5051282051282
 21
133.04358974358973
 31
0.0
  0
LINE
  5
20D
330
17
100
AcDbEntity
  8
lens_outline
370
-3
100
AcDbLine
 10
51.5051282051282
 20
133.04358974358973
 30
0.0
 11
51.5051282051282
 21
133.85897435897434
 31
0.0
  0
LINE
  5
20E
330
17
100
AcDbEntity
  8
lens_outline
370
-3
100
AcDbLine
 10
51.5051282051282
 20
133.85897435897434
 30
0.0
 11
51.641025641025635
 21
133.99487179487178
 31
0.0
  0
LINE
  5
20F
330
17
100
AcDbEntity
  8
lens_outline
370
-3
100
AcDbLine
 10
51.641025641025635
 20
133.99487179487178
 30
0.0
 11
51.641025641025635
 21
134.8102564102564
 31
0.0
  0
LINE
  5
210
330
17
100
AcDbEntity
  8
lens_outline
370
-3
100
AcDbLine
 10
51.641025641025635
 20
134.8102564102564
 30
0.0
 11
51.776923076923076
 21
134.94615384615383
 31
0.0
  0
LINE
  5
211
330
17
100
AcDbEntity
  8
lens_outline
370
-3
100
AcDbLine
 10
51.776923076923076
 20
134.94615384615383
 30
0.0
 11
51.776923076923076
 21
135.08205128205128
 31
0.0
  0
LINE
  5
212
330
17
100
AcDbEntity
  8
lens_outline
370
-3
100
AcDbLine
 10
51.776923076923076
 20
135.08205128205128
 30
0.0
 11
51.91282051282051
 21
135.2179487179487
 31
0.0
  0
LINE
  5
213
330
17
100
AcDbEntity
  8
lens_outline
370
-3
100
AcDbLine
 10
51.91282051282051
 20
135.2179487179487
 30
0.0
 11
51.91282051282051
 21
135.48974358974357
 31
0.0
  0
LINE
  5
214
330
17
100
AcDbEntity
  8
lens_outline
370
-3
100
AcDbLine
 10
51.91282051282051
 20
135.48974358974357
 30
0.0
 11
52.04871794871794
 21
135.62564102564102
 31
0.0
  0
LINE
  5
215
330
17
100
AcDbEntity
  8
lens_outline
370
-3
100
AcDbLine
 10
52.04871794871794
 20
135.62564102564102
 30
0.0
 11
52.04871794871794
 21
135.89743589743588
 31
0.0
  0
LINE
  5
216
330
17
100
AcDbEntity
  8
lens_outline
370
-3
100
AcDbLine
 10
52.04871794871794
 20
135.89743589743588
 30
0.0
 11
52.184615384615384
 21
136.03333333333333
 31
0.0
  0
LINE
  5
217
330
17
100
AcDbEntity
  8
lens_outline
370
-3
100
AcDbLine
 10
52.184615384615384
 20
136.03333333333333
 30
0.0
 11
52.184615384615384
 21
136.16923076923075
 31
0.0
  0
LINE
  5
218
330
17
100
AcDbEntity
  8
lens_outline
370
-3
100
AcDbLine
 10
52.184615384615384
 20
136.16923076923075
 30
0.0
 11
52.32051282051282
 21
136.3051282051282
 31
0.0
  0
LINE
  5
219
330
17
100
AcDbEntity
  8
lens_outline
370
-3
100
AcDbLine
 10
52.32051282051282
 20
136.3051282051282
 30
0.0
 11
52.32051282051282
 21
136.57692307692307
 31
0.0
  0
LINE
  5
21A
330
17
100
AcDbEntity
  8
lens_outline
370
-3
100
AcDbLine
 10
52.32051282051282
 20
136.57692307692307
 30
0.0
 11
52.45641025641025
 21
136.7128205128205
 31
0.0
  0
LINE
  5
21B
330
17
100
AcDbEntity
  8
lens_outline
370
-3
100
AcDbLine
 10
52.45641025641025
 20
136.7128205128205
 30
0.0
 11
52.45641025641025
 21
136.84871794871793
 31
0.0
  0
LINE
  5
21C
330
17
100
AcDbEntity
  8
lens_outline
370
-3
100
AcDbLine
 10
52.45641025641025
 20
136.84871794871793
 30
0.0
 11
52.592307692307685
 21
136.98461538461538
 31
0.0
  0
LINE
  5
21D
330
17
100
AcDbEntity
  8
lens_outline
370
-3
100
AcDbLine
 10
52.592307692307685
 20
136.98461538461538
 30
0.0
 11
52.592307692307685
 21
137.25641025641025
 31
0.0
  0
LINE
  5
21E
330
17
100
AcDbEntity
  8
lens_outline
370
-3
100
AcDbLine
 10
52.592307692307685
 20
137.25641025641025
 30
0.0
 11
52.728205128205126
 21
137.39230769230767
 31
0.0
  0
LINE
  5
21F
330
17
100
AcDbEntity
  8
lens_outline
370
-3
100
AcDbLine
 10
52.728205128205126
 20
137.39230769230767
 30
0.0
 11
52.728205128205126
 21
137.52820512820512
 31
0.0
  0
LINE
  5
220
330
17
100
AcDbEntity
  8
lens_outline
370
-3
100
AcDbLine
 10
52.728205128205126
 20
137.52820512820512
 30
0.0
 11
52.86410256410256
 21
137.66410256410256
 31
0.0
  0
LINE
  5
221
330
17
100
AcDbEntity
  8
lens_outline
370
-3
100
AcDbLine
 10
52.86410256410256
 20
137.66410256410256
 30
0.0
 11
52.86410256410256
 21
137.79999999999998
 31
0.0
  0
LINE
  5
222
330
17
100
AcDbEntity
  8
lens_outline
370
-3
100
AcDbLine
 10
52.86410256410256
 20
137.79999999999998
 30
0.0
 11
52.99999999999999
 21
137.93589743589743
 31
0.0
  0
LINE
  5
223
330
17
100
AcDbEntity
  8
lens_outline
370
-3
100
AcDbLine
 10
52.99999999999999
 20
137.93589743589743
 30
0.0
 11
52.99999999999999
 21
138.07179487179485
 31
0.0
  0
LINE
  5
224
330
17
100
AcDbEntity
  8
lens_outline
370
-3
100
AcDbLine
 10
52.99999999999999
 20
138.07179487179485
 30
0.0
 11
53.135897435897434
 21
138.2076923076923
 31
0.0
  0
LINE
  5
225
330
17
100
AcDbEntity
  8
lens_outline
370
-3
100
AcDbLine
 10
53.135897435897434
 20
138.2076923076923
 30
0.0
 11
53.135897435897434
 21
138.34358974358975
 31
0.0
  0
LINE
  5
226
330
17
100
AcDbEntity
  8
lens_outline
370
-3
100
AcDbLine
 10
53.135897435897434
 20
138.34358974358975
 30
0.0
 11
53.27179487179487
 21
138.47948717948717
 31
0.0
  0
LINE
  5
227
330
17
100
AcDbEntity
  8
lens_outline
370
-3
100
AcDbLine
 10
53.27179487179487
 20
138.47948717948717
 30
0.0
 11
53.27179487179487
 21
138.6153846153846
 31
0.0
  0
LINE
  5
228
330
17
100
AcDbEntity
  8
lens_outline
370
-3
100
AcDbLine
 10
53.27179487179487
 20
138.6153846153846
 30
0.0
 11
53.54358974358974
 21
138.88717948717948
 31
0.0
  0
LINE
  5
229
330
17
100
AcDbEntity
  8
lens_outline
370
-3
100
AcDbLine
 10
53.54358974358974
 20
138.88717948717948
 30
0.0
 11
53.54358974358974
 21
139.0230769230769
 31
0.0
  0
LINE
  5
22A
330
17
100
AcDbEntity
  8
lens_outline
370
-3
100
AcDbLine
 10
53.54358974358974
 20
139.0230769230769
 30
0.0
 11
53.679487179487175
 21
139.15897435897435
 31
0.0
  0
LINE
  5
22B
330
17
100
AcDbEntity
  8
lens_outline
370
-3
100
AcDbLine
 10
53.679487179487175
 20
139.15897435897435
 30
0.0
 11
53.679487179487175
 21
139.2948717948718
 31
0.0
  0
LINE
  5
22C
330
17
100
AcDbEntity
  8
lens_outline
370
-3
100
AcDbLine
 10
53.679487179487175
 20
139.2948717948718
 30
0.0
 11
54.22307692307692
 21
139.83846153846153
 31
0.0
  0
LINE
  5
22D
330
17
100
AcDbEntity
  8
lens_outline
370
-3
100
AcDbLine
 10
54.22307692307692
 20
139.83846153846153
 30
0.0
 11
54.22307692307692
 21
139.97435897435895
 31
0.0
  0
LINE
  5
22E
330
17
100
AcDbEntity
  8
lens_outline
370
-3
100
AcDbLine
 10
54.22307692307692
 20
139.97435897435895
 30
0.0
 11
55.717948717948715
 21
141.46923076923076
 31
0.0
  0
LINE
  5
22F
330
17
100
AcDbEntity
  8
lens_outline
370
-3
100
AcDbLine
 10
55.717948717948715
 20
141.46923076923076
 30
0.0
 11
55.85384615384615
 21
141.46923076923076
 31
0.0
  0
LINE
  5
230
330
17
100
AcDbEntity
  8
lens_outline
370
-3
100
AcDbLine
 10
55.85384615384615
 20
141.46923076923076
 30
0.0
 11
56.26153846153846
 21
141.87692307692308
 31
0.0
  0
LINE
  5
231
330
17
100
AcDbEntity
  8
lens_outline
370
-3
100
AcDbLine
 10
56.26153846153846
 20
141.87692307692308
 30
0.0
 11
56.39743589743589
 21
141.87692307692308
 31
0.0
  0
LINE
  5
232
330
17
100
AcDbEntity
  8
lens_outline
370
-3
100
AcDbLine
 10
56.39743589743589
 20
141.87692307692308
 30
0.0
 11
56.8051282051282
 21
142.28461538461536
 31
0.0
  0
LINE
  5
233
330
17
100
AcDbEntity
  8
lens_outline
370
-3
100
AcDbLine
 10
56.8051282051282
 20
142.28461538461536
 30
0.0
 11
56.94102564102564
 21
142.28461538461536
 31
0.0
  0
LINE
  5
234
330
17
100
AcDbEntity
  8
lens_outline
370
-3
100
AcDbLine
 10
56.94102564102564
 20
142.28461538461536
 30
0.0
 11
57.21282051282051
 21
142.55641025641023
 31
0.0
  0
LINE
  5
235
330
17
100
AcDbEntity
  8
lens_outline
370
-3
100
AcDbLine
 10
57.21282051282051
 20
142.55641025641023
 30
0.0
 11
57.34871794871795
 21
142.55641025641023
 31
0.0
  0
LINE
  5
236
330
17
100
AcDbEntity
  8
lens_outline
370
-3
100
AcDbLine
 10
57.34871794871795
 20
142.55641025641023
 30
0.0
 11
57.75641025641025
 21
142.96410256410255
 31
0.0
  0
LINE
  5
237
330
17
100
AcDbEntity
  8
lens_outline
370
-3
100
AcDbLine
 10
57.75641025641025
 20
142.96410256410255
 30
0.0
 11
57.89230769230769
 21
142.96410256410255
 31
0.0
  0
LINE
  5
238
330
17
100
AcDbEntity
  8
lens_outline
370
-3
100
AcDbLine
 10
57.89230769230769
 20
142.96410256410255
 30
0.0
 11
58.164102564102556
 21
143.2358974358974
 31
0.0
  0
LINE
  5
239
330
17
100
AcDbEntity
  8
lens_outline
370
-3
100
AcDbLine
 10
58.164102564102556
 20
143.2358974358974
 30
0.0
 11
58.3
 21
143.2358974358974
 31
0.0
  0
LINE
  5
23A
330
17
100
AcDbEntity
  8
lens_outline
370
-3
100
AcDbLine
 10
58.3
 20
143.2358974358974
 30
0.0
 11
58.571794871794864
 21
143.5076923076923
 31
0.0
  0
LINE
  5
23B
330
17
100
AcDbEntity
  8
lens_outline
370
-3
100
AcDbLine
 10
58.571794871794864
 20
143.5076923076923
 30
0.0
 11
58.707692307692305
 21
143.5076923076923
 31
0.0
  0
LINE
  5
23C
330
17
100
AcDbEntity
  8
lens_outline
370
-3
100
AcDbLine
 10
58.707692307692305
 20
143.5076923076923
 30
0.0
 11
58.97948717948717
 21
143.77948717948718
 31
0.0
  0
LINE
  5
23D
330
17
100
AcDbEntity
  8
lens_outline
370
-3
100
AcDbLine
 10
58.97948717948717
 20
143.77948717948718
 30
0.0
 11
59.11538461538461
 21
143.77948717948718
 31
0.0
  0
LINE
  5
23E
330
17
100
AcDbEntity
  8
lens_outline
370
-3
100
AcDbLine
 10
59.11538461538461
 20
143.77948717948718
 30
0.0
 11
59.38717948717948
 21
144.05128205128204
 31
0.0
  0
LINE
  5
23F
330
17
100
AcDbEntity
  8
lens_outline
370
-3
100
AcDbLine
 10
59.38717948717948
 20
144.05128205128204
 30
0.0
 11
59.52307692307692
 21
144.05128205128204
 31
0.0
  0
LINE
  5
240
330
17
100
AcDbEntity
  8
lens_outline
370
-3
100
AcDbLine
 10
59.52307692307692
 20
144.05128205128204
 30
0.0
 11
59.658974358974355
 21
144.18717948717946
 31
0.0
  0
LINE
  5
241
330
17
100
AcDbEntity
  8
lens_outline
370
-3
100
AcDbLine
 10
59.658974358974355
 20
144.18717948717946
 30
0.0
 11
59.79487179487179
 21
144.18717948717946
 31
0.0
  0
LINE
  5
242
330
17
100
AcDbEntity
  8
lens_outline
370
-3
100
AcDbLine
 10
59.79487179487179
 20
144.18717948717946
 30
0.0
 11
60.06666666666666
 21
144.45897435897436
 31
0.0
  0
LINE
  5
243
330
17
100
AcDbEntity
  8
lens_outline
370
-3
100
AcDbLine
 10
60.06666666666666
 20
144.45897435897436
 30
0.0
 11
60.2025641025641
 21
144.45897435897436
 31
0.0
  0
LINE
  5
244
330
17
100
AcDbEntity
  8
lens_outline
370
-3
100
AcDbLine
 10
60.2025641025641
 20
144.45897435897436
 30
0.0
 11
60.33846153846153
 21
144.59487179487178
 31
0.0
  0
LINE
  5
245
330
17
100
AcDbEntity
  8
lens_outline
370
-3
100
AcDbLine
 10
60.33846153846153
 20
144.59487179487178
 30
0.0
 11
60.47435897435897
 21
144.59487179487178
 31
0.0
  0
LINE
  5
246
330
17
100
AcDbEntity
  8
lens_outline
370
-3
100
AcDbLine
 10
60.47435897435897
 20
144.59487179487178
 30
0.0
 11
60.74615384615384
 21
144.86666666666665
 31
0.0
  0
LINE
  5
247
330
17
100
AcDbEntity
  8
lens_outline
370
-3
100
AcDbLine
 10
60.74615384615384
 20
144.86666666666665
 30
0.0
 11
60.88205128205128
 21
144.86666666666665
 31
0.0
  0
LINE
  5
248
330
17
100
AcDbEntity
  8
lens_outline
370
-3
100
AcDbLine
 10
60.88205128205128
 20
144.86666666666665
 30
0.0
 11
61.01794871794871
 21
145.0025641025641
 31
0.0
  0
LINE
  5
249
330
17
100
AcDbEntity
  8
lens_outline
370
-3
100
AcDbLine
 10
61.01794871794871
 20
145.0025641025641
 30
0.0
 11
61.153846153846146
 21
145.0025641025641
 31
0.0
  0
LINE
  5
24A
330
17
100
AcDbEntity
  8
lens_outline
370
-3
100
AcDbLine
 10
61.153846153846146
 20
145.0025641025641
 30
0.0
 11
61.42564102564102
 21
145.27435897435896
 31
0.0
  0
LINE
  5
24B
330
17
100
AcDbEntity
  8
lens_outline
370
-3
100
AcDbLine
 10
61.42564102564102
 20
145.27435897435896
 30
0.0
 11
61.561538461538454
 21
145.27435897435896
 31
0.0
  0
LINE
  5
24C
330
17
100
AcDbEntity
  8
lens_outline
370
-3
100
AcDbLine
 10
61.561538461538454
 20
145.27435897435896
 30
0.0
 11
61.697435897435895
 21
145.4102564102564
 31
0.0
  0
LINE
  5
24D
330
17
100
AcDbEntity
  8
lens_outline
370
-3
100
AcDbLine
 10
61.697435897435895
 20
145.4102564102564
 30
0.0
 11
61.83333333333333
 21
145.4102564102564
 31
0.0
  0
LINE
  5
24E
330
17
100
AcDbEntity
  8
lens_outline
370
-3
100
AcDbLine
 10
61.83333333333333
 20
145.4102564102564
 30
0.0
 11
62.1051282051282
 21
145.68205128205128
 31
0.0
  0
LINE
  5
24F
330
17
100
AcDbEntity
  8
lens_outline
370
-3
100
AcDbLine
 10
62.1051282051282
 20
145.68205128205128
 30
0.0
 11
62.24102564102564
 21
145.68205128205128
 31
0.0
  0
LINE
  5
250
330
17
100
AcDbEntity
  8
lens_outline
370
-3
100
AcDbLine
 10
62.24102564102564
 20
145.68205128205128
 30
0.0
 11
62.37692307692307
 21
145.8179487179487
 31
0.0
  0
LINE
  5
251
330
17
100
AcDbEntity
  8
lens_outline
370
-3
100
AcDbLine
 10
62.37692307692307
 20
145.8179487179487
 30
0.0
 11
62.51282051282051
 21
145.8179487179487
 31
0.0
  0
LINE
  5
252
330
17
100
AcDbEntity
  8
lens_outline
370
-3
100
AcDbLine
 10
62.51282051282051
 20
145.8179487179487
 30
0.0
 11
62.648717948717945
 21
145.95384615384614
 31
0.0
  0
LINE
  5
253
330
17
100
AcDbEntity
  8
lens_outline
370
-3
100
AcDbLine
 10
62.648717948717945
 20
145.95384615384614
 30
0.0
 11
62.78461538461538
 21
145.95384615384614
 31
0.0
  0
LINE
  5
254
330
17
100
AcDbEntity
  8
lens_outline
370
-3
100
AcDbLine
 10
62.78461538461538
 20
145.95384615384614
 30
0.0
 11
62.92051282051281
 21
146.0897435897436
 31
0.0
  0
LINE
  5
255
330
17
100
AcDbEntity
  8
lens_outline
370
-3
100
AcDbLine
 10
62.92051282051281
 20
146.0897435897436
 30
0.0
 11
63.05641025641025
 21
146.0897435897436
 31
0.0
  0
LINE
  5
256
330
17
100
AcDbEntity
  8
lens_outline
370
-3
100
AcDbLine
 10
63.05641025641025
 20
146.0897435897436
 30
0.0
 11
63.192307692307686
 21
146.225641025641
 31
0.0
  0
LINE
  5
257
330
17
100
AcDbEntity
  8
lens_outline
370
-3
100
AcDbLine
 10
63.192307692307686
 20
146.225641025641
 30
0.0
 11
63.32820512820512
 21
146.225641025641
 31
0.0
  0
LINE
  5
258
330
17
100
AcDbEntity
  8
lens_outline
370
-3
100
AcDbLine
 10
63.32820512820512
 20
146.225641025641
 30
0.0
 11
63.46410256410256
 21
146.36153846153846
 31
0.0
  0
LINE
  5
259
330
17
100
AcDbEntity
  8
lens_outline
370
-3
100
AcDbLine
 10
63.46410256410256
 20
146.36153846153846
 30
0.0
 11
63.599999999999994
 21
146.36153846153846
 31
0.0
  0
LINE
  5
25A
330
17
100
AcDbEntity
  8
lens_outline
370
-3
100
AcDbLine
 10
63.599999999999994
 20
146.36153846153846
 30
0.0
 11
63.73589743589743
 21
146.49743589743588
 31
0.0
  0
LINE
  5
25B
330
17
100
AcDbEntity
  8
lens_outline
370
-3
100
AcDbLine
 10
63.73589743589743
 20
146.49743589743588
 30
0.0
 11
63.87179487179487
 21
146.49743589743588
 31
0.0
  0
LINE
  5
25C
330
17
100
AcDbEntity
  8
lens_outline
370
-3
100
AcDbLine
 10
63.87179487179487
 20
146.49743589743588
 30
0.0
 11
64.00769230769231
 21
146.63333333333333
 31
0.0
  0
LINE
  5
25D
330
17
100
AcDbEntity
  8
lens_outline
370
-3
100
AcDbLine
 10
64.00769230769231
 20
146.63333333333333
 30
0.0
 11
64.14358974358974
 21
146.63333333333333
 31
0.0
  0
LINE
  5
25E
330
17
100
AcDbEntity
  8
lens_outline
370
-3
100
AcDbLine
 10
64.14358974358974
 20
146.63333333333333
 30
0.0
 11
64.27948717948718
 21
146.76923076923075
 31
0.0
  0
LINE
  5
25F
330
17
100
AcDbEntity
  8
lens_outline
370
-3
100
AcDbLine
 10
64.27948717948718
 20
146.76923076923075
 30
0.0
 11
64.55128205128204
 21
146.76923076923075
 31
0.0
  0
LINE
  5
260
330
17
100
AcDbEntity
  8
lens_outline
370
-3
100
AcDbLine
 10
64.55128205128204
 20
146.76923076923075
 30
0.0
 11
64.68717948717948
 21
146.9051282051282
 31
0.0
  0
LINE
  5
261
330
17
100
AcDbEntity
  8
lens_outline
370
-3
100
AcDbLine
 10
64.68717948717948
 20
146.9051282051282
 30
0.0
 11
64.82307692307691
 21
146.9051282051282
 31
0.0
  0
LINE
  5
262
330
17
100
AcDbEntity
  8
lens_outline
370
-3
100
AcDbLine
 10
64.82307692307691
 20
146.9051282051282
 30
0.0
 11
64.95897435897436
 21
147.04102564102564
 31
0.0
  0
LINE
  5
263
330
17
100
AcDbEntity
  8
lens_outline
370
-3
100
AcDbLine
 10
64.95897435897436
 20
147.04102564102564
 30
0.0
 11
65.23076923076923
 21
147.04102564102564
 31
0.0
  0
LINE
  5
264
330
17
100
AcDbEntity
  8
lens_outline
370
-3
100
AcDbLine
 10
65.23076923076923
 20
147.04102564102564
 30
0.0
 11
65.36666666666666
 21
147.17692307692306
 31
0.0
  0
LINE
  5
265
330
17
100
AcDbEntity
  8
lens_outline
370
-3
100
AcDbLine
 10
65.36666666666666
 20
147.17692307692306
 30
0.0
 11
65.5025641025641
 21
147.17692307692306
 31
0.0
  0
LINE
  5
266
330
17
100
AcDbEntity
  8
lens_outline
370
-3
100
AcDbLine
 10
65.5025641025641
 20
147.17692307692306
 30
0.0
 11
65.63846153846153
 21
147.3128205128205
 31
0.0
  0
LINE
  5
267
330
17
100
AcDbEntity
  8
lens_outline
370
-3
100
AcDbLine
 10
65.63846153846153
 20
147.3128205128205
 30
0.0
 11
65.77435897435898
 21
147.3128205128205
 31
0.0
  0
LINE
  5
268
330
17
100
AcDbEntity
  8
lens_outline
370
-3
100
AcDbLine
 10
65.77435897435898
 20
147.3128205128205
 30
0.0
 11
65.91025641025641
 21
147.44871794871793
 31
0.0
  0
LINE
  5
269
330
17
100
AcDbEntity
  8
lens_outline
370
-3
100
AcDbLine
 10
65.91025641025641
 20
147.44871794871793
 30
0.0
 11
66.31794871794871
 21
147.44871794871793
 31
0.0
  0
LINE
  5
26A
330
17
100
AcDbEntity
  8
lens_outline
370
-3
100
AcDbLine
 10
66.31794871794871
 20
147.44871794871793
 30
0.0
 11
66.45384615384614
 21
147.58461538461538
 31
0.0
  0
LINE
  5
26B
330
17
100
AcDbEntity
  8
lens_outline
370
-3
100
AcDbLine
 10
66.45384615384614
 20
147.58461538461538
 30
0.0
 11
66.72564102564102
 21
147.58461538461538
 31
0.0
  0
LINE
  5
26C
330
17
100
AcDbEntity
  8
lens_outline
370
-3
100
AcDbLine
 10
66.72564102564102
 20
147.58461538461538
 30
0.0
 11
66.86153846153846
 21
147.7205128205128
 31
0.0
  0
LINE
  5
26D
330
17
100
AcDbEntity
  8
lens_outline
370
-3
100
AcDbLine
 10
66.86153846153846
 20
147.7205128205128
 30
0.0
 11
67.26923076923076
 21
147.7205128205128
 31
0.0
  0
LINE
  5
26E
330
17
100
AcDbEntity
  8
lens_outline
370
-3
100
AcDbLine
 10
67.26923076923076
 20
147.7205128205128
 30
0.0
 11
67.4051282051282
 21
147.85641025641024
 31
0.0
  0
LINE
  5
26F
330
17
100
AcDbEntity
  8
lens_outline
370
-3
100
AcDbLine
 10
67.4051282051282
 20
147.85641025641024
 30
0.0
 11
67.67692307692307
 21
147.85641025641024
 31
0.0
  0
LINE
  5
270
330
17
100
AcDbEntity
  8
lens_outline
370
-3
100
AcDbLine
 10
67.67692307692307
 20
147.85641025641024
 30
0.0
 11
67.81282051282051
 21
147.9923076923077
 31
0.0
  0
LINE
  5
271
330
17
100
AcDbEntity
  8
lens_outline
370
-3
100
AcDbLine
 10
67.81282051282051
 20
147.9923076923077
 30
0.0
 11
68.35641025641026
 21
147.9923076923077
 31
0.0
  0
LINE
  5
272
330
17
100
AcDbEntity
  8
lens_outline
370
-3
100
AcDbLine
 10
68.35641025641026
 20
147.9923076923077
 30
0.0
 11
68.49230769230769
 21
148.1282051282051
 31
0.0
  0
LINE
  5
273
330
17
100
AcDbEntity
  8
lens_outline
370
-3
100
AcDbLine
 10
68.49230769230769
 20
148.1282051282051
 30
0.0
 11
68.89999999999999
 21
148.1282051282051
 31
0.0
  0
LINE
  5
274
330
17
100
AcDbEntity
  8
lens_outline
370
-3
100
AcDbLine
 10
68.89999999999999
 20
148.1282051282051
 30
0.0
 11
69.03589743589743
 21
148.26410256410256
 31
0.0
  0
LINE
  5
275
330
17
100
AcDbEntity
  8
lens_outline
370
-3
100
AcDbLine
 10
69.03589743589743
 20
148.26410256410256
 30
0.0
 11
69.44358974358974
 21
148.26410256410256
 31
0.0
  0
LINE
  5
276
330
17
100
AcDbEntity
  8
lens_outline
370
-3
100
AcDbLine
 10
69.44358974358974
 20
148.26410256410256
 30
0.0
 11
69.57948717948717
 21
148.39999999999998
 31
0.0
  0
LINE
  5
277
330
17
100
AcDbEntity
  8
lens_outline
370
-3
100
AcDbLine
 10
69.57948717948717
 20
148.39999999999998
 30
0.0
 11
69.98717948717947
 21
148.39999999999998
 31
0.0
  0
LINE
  5
278
330
17
100
AcDbEntity
  8
lens_outline
370
-3
100
AcDbLine
 10
69.98717948717947
 20
148.39999999999998
 30
0.0
 11
70.12307692307692
 21
148.53589743589743
 31
0.0
  0
LINE
  5
279
330
17
100
AcDbEntity
  8
lens_outline
370
-3
100
AcDbLine
 10
70.12307692307692
 20
148.53589743589743
 30
0.0
 11
70.53076923076922
 21
148.53589743589743
 31
0.0
  0
LINE
  5
27A
330
17
100
AcDbEntity
  8
lens_outline
370
-3
100
AcDbLine
 10
70.53076923076922
 20
148.53589743589743
 30
0.0
 11
70.66666666666666
 21
148.67179487179487
 31
0.0
  0
LINE
  5
27B
330
17
100
AcDbEntity
  8
lens_outline
370
-3
100
AcDbLine
 10
70.66666666666666
 20
148.67179487179487
 30
0.0
 11
71.2102564102564
 21
148.67179487179487
 31
0.0
  0
LINE
  5
27C
330
17
100
AcDbEntity
  8
lens_outline
370
-3
100
AcDbLine
 10
71.2102564102564
 20
148.67179487179487
 30
0.0
 11
71.34615384615384
 21
148.8076923076923
 31
0.0
  0
LINE
  5
27D
330
17
100
AcDbEntity
  8
lens_outline
370
-3
100
AcDbLine
 10
71.34615384615384
 20
148.8076923076923
 30
0.0
 11
71.75384615384615
 21
148.8076923076923
 31
0.0
  0
LINE
  5
27E
330
17
100
AcDbEntity
  8
lens_outline
370
-3
100
AcDbLine
 10
71.75384615384615
 20
148.8076923076923
 30
0.0
 11
71.88974358974359
 21
148.94358974358974
 31
0.0
  0
LINE
  5
27F
330
17
100
AcDbEntity
  8
lens_outline
370
-3
100
AcDbLine
 10
71.88974358974359
 20
148.94358974358974
 30
0.0
 11
72.7051282051282
 21
148.94358974358974
 31
0.0
  0
LINE
  5
280
330
17
100
AcDbEntity
  8
lens_outline
370
-3
100
AcDbLine
 10
72.7051282051282
 20
148.94358974358974
 30
0.0
 11
72.84102564102564
 21
149.07948717948716
 31
0.0
  0
LINE
  5
281
330
17
100
AcDbEntity
  8
lens_outline
370
-3
100
AcDbLine
 10
72.84102564102564
 20
149.07948717948716
 30
0.0
 11
74.74358974358974
 21
149.07948717948716
 31
0.0
  0
LINE
  5
282
330
17
100
AcDbEntity
  8
lens_outline
370
-3
100
AcDbLine
 10
74.74358974358974
 20
149.07948717948716
 30
0.0
 11
74.87948717948717
 21
149.2153846153846
 31
0.0
  0
LINE
  5
283
330
17
100
AcDbEntity
  8
lens_outline
370
-3
100
AcDbLine
 10
74.87948717948717
 20
149.2153846153846
 30
0.0
 11
86.02307692307691
 21
149.2153846153846
 31
0.0
  0
LINE
  5
284
330
17
100
AcDbEntity
  8
lens_outline
370
-3
100
AcDbLine
 10
86.02307692307691
 20
149.2153846153846
 30
0.0
 11
86.15897435897435
 21
149.07948717948716
 31
0.0
  0
LINE
  5
285
330
17
100
AcDbEntity
  8
lens_outline
370
-3
100
AcDbLine
 10
86.15897435897435
 20
149.07948717948716
 30
0.0
 11
89.14871794871794
 21
149.07948717948716
 31
0.0
  0
LINE
  5
286
330
17
100
AcDbEntity
  8
lens_outline
370
-3
100
AcDbLine
 10
89.14871794871794
 20
149.07948717948716
 30
0.0
 11
89.28461538461538
 21
148.94358974358974
 31
0.0
  0
LINE
  5
287
330
17
100
AcDbEntity
  8
lens_outline
370
-3
100
AcDbLine
 10
89.28461538461538
 20
148.94358974358974
 30
0.0
 11
90.37179487179486
 21
148.94358974358974
 31
0.0
  0
LINE
  5
288
330
17
100
AcDbEntity
  8
lens_outline
370
-3
100
AcDbLine
 10
90.37179487179486
 20
148.94358974358974
 30
0.0
 11
90.5076923076923
 21
148.8076923076923
 31
0.0
  0
LINE
  5
289
330
17
100
AcDbEntity
  8
lens_outline
370
-3
100
AcDbLine
 10
90.5076923076923
 20
148.8076923076923
 30
0.0
 11
91.18717948717948
 21
148.8076923076923
 31
0.0
  0
LINE
  5
28A
330
17
100
AcDbEntity
  8
lens_outline
370
-3
100
AcDbLine
 10
91.18717948717948
 20
148.8076923076923
 30
0.0
 11
91.32307692307691
 21
148.67179487179487
 31
0.0
  0
LINE
  5
28B
330
17
100
AcDbEntity
  8
lens_outline
370
-3
100
AcDbLine
 10
91.32307692307691
 20
148.67179487179487
 30
0.0
 11
92.0025641025641
 21
148.67179487179487
 31
0.0
  0
LINE
  5
28C
330
17
100
AcDbEntity
  8
lens_outline
370
-3
100
AcDbLine
 10
92.0025641025641
 20
148.67179487179487
 30
0.0
 11
92.13846153846153
 21
148.53589743589743
 31
0.0
  0
LINE
  5
28D
330
17
100
AcDbEntity
  8
lens_outline
370
-3
100
AcDbLine
 10
92.13846153846153
 20
148.53589743589743
 30
0.0
 11
92.68205128205128
 21
148.53589743589743
 31
0.0
  0
LINE
  5
28E
330
17
100
AcDbEntity
  8
lens_outline
370
-3
100
AcDbLine
 10
92.68205128205128
 20
148.53589743589743
 30
0.0
 11
92.81794871794871
 21
148.39999999999998
 31
0.0
  0
LINE
  5
28F
330
17
100
AcDbEntity
  8
lens_outline
370
-3
100
AcDbLine
 10
92.81794871794871
 20
148.39999999999998
 30
0.0
 11
93.22564102564102
 21
148.39999999999998
 31
0.0
  0
LINE
  5
290
330
17
100
AcDbEntity
  8
lens_outline
370
-3
100
AcDbLine
 10
93.22564102564102
 20
148.39999999999998
 30
0.0
 11
93.36153846153846
 21
148.26410256410256
 31
0.0
  0
LINE
  5
291
330
17
100
AcDbEntity
  8
lens_outline
370
-3
100
AcDbLine
 10
93.36153846153846
 20
148.26410256410256
 30
0.0
 11
93.76923076923076
 21
148.26410256410256
 31
0.0
  0
LINE
  5
292
330
17
100
AcDbEntity
  8
lens_outline
370
-3
100
AcDbLine
 10
93.76923076923076
 20
148.26410256410256
 30
0.0
 11
93.9051282051282
 21
148.1282051282051
 31
0.0
  0
LINE
  5
293
330
17
100
AcDbEntity
  8
lens_outline
370
-3
100
AcDbLine
 10
93.9051282051282
 20
148.1282051282051
 30
0.0
 11
94.44871794871794
 21
148.1282051282051
 31
0.0
  0
LINE
  5
294
330
17
100
AcDbEntity
  8
lens_outline
370
-3
100
AcDbLine
 10
94.44871794871794
 20
148.1282051282051
 30
0.0
 11
94.58461538461538
 21
147.9923076923077
 31
0.0
  0
LINE
  5
295
330
17
100
AcDbEntity
  8
lens_outline
370
-3
100
AcDbLine
 10
94.58461538461538
 20
147.9923076923077
 30
0.0
 11
94.99230769230769
 21
147.9923076923077
 31
0.0
  0
LINE
  5
296
330
17
100
AcDbEntity
  8
lens_outline
370
-3
100
AcDbLine
 10
94.99230769230769
 20
147.9923076923077
 30
0.0
 11
95.12820512820512
 21
147.85641025641024
 31
0.0
  0
LINE
  5
297
330
17
100
AcDbEntity
  8
lens_outline
370
-3
100
AcDbLine
 10
95.12820512820512
 20
147.85641025641024
 30
0.0
 11
95.53589743589743
 21
147.85641025641024
 31
0.0
  0
LINE
  5
298
330
17
100
AcDbEntity
  8
lens_outline
370
-3
100
AcDbLine
 10
95.53589743589743
 20
147.85641025641024
 30
0.0
 11
95.67179487179486
 21
147.7205128205128
 31
0.0
  0
LINE
  5
299
330
17
100
AcDbEntity
  8
lens_outline
370
-3
100
AcDbLine
 10
95.67179487179486
 20
147.7205128205128
 30
0.0
 11
96.07948717948717
 21
147.7205128205128
 31
0.0
  0
LINE
  5
29A
330
17
100
AcDbEntity
  8
lens_outline
370
-3
100
AcDbLine
 10
96.07948717948717
 20
147.7205128205128
 30
0.0
 11
96.21538461538461
 21
147.58461538461538
 31
0.0
  0
LINE
  5
29B
330
17
100
AcDbEntity
  8
lens_outline
370
-3
100
AcDbLine
 10
96.21538461538461
 20
147.58461538461538
 30
0.0
 11
96.62307692307691
 21
147.58461538461538
 31
0.0
  0
LINE
  5
29C
330
17
100
AcDbEntity
  8
lens_outline
370
-3
100
AcDbLine
 10
96.62307692307691
 20
147.58461538461538
 30
0.0
 11
96.75897435897436
 21
147.44871794871793
 31
0.0
  0
LINE
  5
29D
330
17
100
AcDbEntity
  8
lens_outline
370
-3
100
AcDbLine
 10
96.75897435897436
 20
147.44871794871793
 30
0.0
 11
97.16666666666666
 21
147.44871794871793
 31
0.0
  0
LINE
  5
29E
330
17
100
AcDbEntity
  8
lens_outline
370
-3
100
AcDbLine
 10
97.16666666666666
 20
147.44871794871793
 30
0.0
 11
97.30256410256409
 21
147.3128205128205
 31
0.0
  0
LINE
  5
29F
330
17
100
AcDbEntity
  8
lens_outline
370
-3
100
AcDbLine
 10
97.30256410256409
 20
147.3128205128205
 30
0.0
 11
97.43846153846152
 21
147.3128205128205
 31
0.0
  0
LINE
  5
2A0
330
17
100
AcDbEntity
  8
lens_outline
370
-3
100
AcDbLine
 10
97.43846153846152
 20
147.3128205128205
 30
0.0
 11
97.57435897435897
 21
147.17692307692306
 31
0.0
  0
LINE
  5
2A1
330
17
100
AcDbEntity
  8
lens_outline
370
-3
100
AcDbLine
 10
97.57435897435897
 20
147.17692307692306
 30
0.0
 11
97.7102564102564
 21
147.17692307692306
 31
0.0
  0
LINE
  5
2A2
330
17
100
AcDbEntity
  8
lens_outline
370
-3
100
AcDbLine
 10
97.7102564102564
 20
147.17692307692306
 30
0.0
 11
97.98205128205127
 21
146.9051282051282
 31
0.0
  0
LINE
  5
2A3
330
17
100
AcDbEntity
  8
lens_outline
370
-3
100
AcDbLine
 10
97.98205128205127
 20
146.9051282051282
 30
0.0
 11
98.1179487179487
 21
146.9051282051282
 31
0.0
  0
LINE
  5
2A4
330
17
100
AcDbEntity
  8
lens_outline
370
-3
100
AcDbLine
 10
98.1179487179487
 20
146.9051282051282
 30
0.0
 11
98.25384615384614
 21
146.76923076923075
 31
0.0
  0
LINE
  5
2A5
330
17
100
AcDbEntity
  8
lens_outline
370
-3
100
AcDbLine
 10
98.25384615384614
 20
146.76923076923075
 30
0.0
 11
98.38974358974359
 21
146.76923076923075
 31
0.0
  0
LINE
  5
2A6
330
17
100
AcDbEntity
  8
lens_outline
370
-3
100
AcDbLine
 10
98.38974358974359
 20
146.76923076923075
 30
0.0
 11
98.52564102564102
 21
146.63333333333333
 31
0.0
  0
LINE
  5
2A7
330
17
100
AcDbEntity
  8
lens_outline
370
-3
100
AcDbLine
 10
98.52564102564102
 20
146.63333333333333
 30
0.0
 11
98.66153846153846
 21
146.63333333333333
 31
0.0
  0
LINE
  5
2A8
330
17
100
AcDbEntity
  8
lens_outline
370
-3
100
AcDbLine
 10
98.66153846153846
 20
146.63333333333333
 30
0.0
 11
98.93333333333332
 21
146.36153846153846
 31
0.0
  0
LINE
  5
2A9
330
17
100
AcDbEntity
  8
lens_outline
370
-3
100
AcDbLine
 10
98.93333333333332
 20
146.36153846153846
 30
0.0
 11
99.06923076923076
 21
146.36153846153846
 31
0.0
  0
LINE
  5
2AA
330
17
100
AcDbEntity
  8
lens_outline
370
-3
100
AcDbLine
 10
99.06923076923076
 20
146.36153846153846
 30
0.0
 11
99.20512820512819
 21
146.225641025641
 31
0.0
  0
LINE
  5
2AB
330
17
100
AcDbEntity
  8
lens_outline
370
-3
100
AcDbLine
 10
99.20512820512819
 20
146.225641025641
 30
0.0
 11
99.34102564102564
 21
146.225641025641
 31
0.0
  0
LINE
  5
2AC
330
17
100
AcDbEntity
  8
lens_outline
370
-3
100
AcDbLine
 10
99.34102564102564
 20
146.225641025641
 30
0.0
 11
99.47692307692307
 21
146.0897435897436
 31
0.0
  0
LINE
  5
2AD
330
17
100
AcDbEntity
  8
lens_outline
370
-3
100
AcDbLine
 10
99.47692307692307
 20
146.0897435897436
 30
0.0
 11
99.6128205128205
 21
146.0897435897436
 31
0.0
  0
LINE
  5
2AE
330
17
100
AcDbEntity
  8
lens_outline
370
-3
100
AcDbLine
 10
99.6128205128205
 20
146.0897435897436
 30
0.0
 11
99.88461538461537
 21
145.8179487179487
 31
0.0
  0
LINE
  5
2AF
330
17
100
AcDbEntity
  8
lens_outline
370
-3
100
AcDbLine
 10
99.88461538461537
 20
145.8179487179487
 30
0.0
 11
100.0205128205128
 21
145.8179487179487
 31
0.0
  0
LINE
  5
2B0
330
17
100
AcDbEntity
  8
lens_outline
370
-3
100
AcDbLine
 10
100.0205128205128
 20
145.8179487179487
 30
0.0
 11
101.78717948717947
 21
144.05128205128204
 31
0.0
  0
LINE
  5
2B1
330
17
100
AcDbEntity
  8
lens_outline
370
-3
100
AcDbLine
 10
101.78717948717947
 20
144.05128205128204
 30
0.0
 11
101.78717948717947
 21
143.9153846153846
 31
0.0
  0
LINE
  5
2B2
330
17
100
AcDbEntity
  8
lens_outline
370
-3
100
AcDbLine
 10
101.78717948717947
 20
143.9153846153846
 30
0.0
 11
102.73846153846154
 21
142.96410256410255
 31
0.0
  0
LINE
  5
2B3
330
17
100
AcDbEntity
  8
lens_outline
370
-3
100
AcDbLine
 10
102.73846153846154
 20
142.96410256410255
 30
0.0
 11
102.73846153846154
 21
142.82820512820513
 31
0.0
  0
LINE
  5
2B4
330
17
100
AcDbEntity
  8
lens_outline
370
-3
100
AcDbLine
 10
102.73846153846154
 20
142.82820512820513
 30
0.0
 11
103.96153846153845
 21
141.60512820512818
 31
0.0
  0
LINE
  5
2B5
330
17
100
AcDbEntity
  8
lens_outline
370
-3
100
AcDbLine
 10
103.96153846153845
 20
141.60512820512818
 30
0.0
 11
103.96153846153845
 21
141.46923076923076
 31
0.0
  0
LINE
  5
2B6
330
17
100
AcDbEntity
  8
lens_outline
370
-3
100
AcDbLine
 10
103.96153846153845
 20
141.46923076923076
 30
0.0
 11
104.23333333333332
 21
141.1974358974359
 31
0.0
  0
LINE
  5
2B7
330
17
100
AcDbEntity
  8
lens_outline
370
-3
100
AcDbLine
 10
104.23333333333332
 20
141.1974358974359
 30
0.0
 11
104.23333333333332
 21
141.06153846153845
 31
0.0
  0
LINE
  5
2B8
330
17
100
AcDbEntity
  8
lens_outline
370
-3
100
AcDbLine
 10
104.23333333333332
 20
141.06153846153845
 30
0.0
 11
104.5051282051282
 21
140.78974358974358
 31
0.0
  0
LINE
  5
2B9
330
17
100
AcDbEntity
  8
lens_outline
370
-3
100
AcDbLine
 10
104.5051282051282
 20
140.78974358974358
 30
0.0
 11
104.5051282051282
 21
140.65384615384613
 31
0.0
  0
LINE
  5
2BA
330
17
100
AcDbEntity
  8
lens_outline
370
-3
100
AcDbLine
 10
104.5051282051282
 20
140.65384615384613
 30
0.0
 11
104.64102564102564
 21
140.5179487179487
 31
0.0
  0
LINE
  5
2BB
330
17
100
AcDbEntity
  8
lens_outline
370
-3
100
AcDbLine
 10
104.64102564102564
 20
140.5179487179487
 30
0.0
 11
104.64102564102564
 21
140.38205128205126
 31
0.0
  0
LINE
  5
2BC
330
17
100
AcDbEntity
  8
lens_outline
370
-3
100
AcDbLine
 10
104.64102564102564
 20
140.38205128205126
 30
0.0
 11
104.77692307692307
 21
140.24615384615385
 31
0.0
  0
LINE
  5
2BD
330
17
100
AcDbEntity
  8
lens_outline
370
-3
100
AcDbLine
 10
104.77692307692307
 20
140.24615384615385
 30
0.0
 11
104.77692307692307
 21
140.1102564102564
 31
0.0
  0
LINE
  5
2BE
330
17
100
AcDbEntity
  8
lens_outline
370
-3
100
AcDbLine
 10
104.77692307692307
 20
140.1102564102564
 30
0.0
 11
104.9128205128205
 21
139.97435897435895
 31
0.0
  0
LINE
  5
2BF
330
17
100
AcDbEntity
  8
lens_outline
370
-3
100
AcDbLine
 10
104.9128205128205
 20
139.97435897435895
 30
0.0
 11
104.9128205128205
 21
139.83846153846153
 31
0.0
  0
LINE
  5
2C0
330
17
100
AcDbEntity
  8
lens_outline
370
-3
100
AcDbLine
 10
104.9128205128205
 20
139.83846153846153
 30
0.0
 11
105.04871794871794
 21
139.70256410256408
 31
0.0
  0
LINE
  5
2C1
330
17
100
AcDbEntity
  8
lens_outline
370
-3
100
AcDbLine
 10
105.04871794871794
 20
139.70256410256408
 30
0.0
 11
105.04871794871794
 21
139.56666666666666
 31
0.0
  0
LINE
  5
2C2
330
17
100
AcDbEntity
  8
lens_outline
370
-3
100
AcDbLine
 10
105.04871794871794
 20
139.56666666666666
 30
0.0
 11
105.18461538461537
 21
139.43076923076922
 31
0.0
  0
LINE
  5
2C3
330
17
100
AcDbEntity
  8
lens_outline
370
-3
100
AcDbLine
 10
105.18461538461537
 20
139.43076923076922
 30
0.0
 11
105.18461538461537
 21
139.2948717948718
 31
0.0
  0
LINE
  5
2C4
330
17
100
AcDbEntity
  8
lens_outline
370
-3
100
AcDbLine
 10
105.18461538461537
 20
139.2948717948718
 30
0.0
 11
105.32051282051282
 21
139.15897435897435
 31
0.0
  0
LINE
  5
2C5
330
17
100
AcDbEntity
  8
lens_outline
370
-3
100
AcDbLine
 10
105.32051282051282
 20
139.15897435897435
 30
0.0
 11
105.32051282051282
 21
139.0230769230769
 31
0.0
  0
LINE
  5
2C6
330
17
100
AcDbEntity
  8
lens_outline
370
-3
100
AcDbLine
 10
105.32051282051282
 20
139.0230769230769
 30
0.0
 11
105.45641025641025
 21
138.88717948717948
 31
0.0
  0
LINE
  5
2C7
330
17
100
AcDbEntity
  8
lens_outline
370
-3
100
AcDbLine
 10
105.45641025641025
 20
138.88717948717948
 30
0.0
 11
105.45641025641025
 21
138.75128205128203
 31
0.0
  0
LINE
  5
2C8
330
17
100
AcDbEntity
  8
lens_outline
370
-3
100
AcDbLine
 10
105.45641025641025
 20
138.75128205128203
 30
0.0
 11
105.59230769230768
 21
138.6153846153846
 31
0.0
  0
LINE
  5
2C9
330
17
100
AcDbEntity
  8
lens_outline
370
-3
100
AcDbLine
 10
105.59230769230768
 20
138.6153846153846
 30
0.0
 11
105.59230769230768
 21
138.47948717948717
 31
0.0
  0
LINE
  5
2CA
330
17
100
AcDbEntity
  8
lens_outline
370
-3
100
AcDbLine
 10
105.59230769230768
 20
138.47948717948717
 30
0.0
 11
105.72820512820512
 21
138.34358974358975
 31
0.0
  0
LINE
  5
2CB
330
17
100
AcDbEntity
  8
lens_outline
370
-3
100
AcDbLine
 10
105.72820512820512
 20
138.34358974358975
 30
0.0
 11
105.72820512820512
 21
138.07179487179485
 31
0.0
  0
LINE
  5
2CC
330
17
100
AcDbEntity
  8
lens_outline
370
-3
100
AcDbLine
 10
105.72820512820512
 20
138.07179487179485
 30
0.0
 11
105.86410256410255
 21
137.93589743589743
 31
0.0
  0
LINE
  5
2CD
330
17
100
AcDbEntity
  8
lens_outline
370
-3
100
AcDbLine
 10
105.86410256410255
 20
137.93589743589743
 30
0.0
 11
105.86410256410255
 21
137.79999999999998
 31
0.0
  0
LINE
  5
2CE
330
17
100
AcDbEntity
  8
lens_outline
370
-3
100
AcDbLine
 10
105.86410256410255
 20
137.79999999999998
 30
0.0
 11
105.99999999999999
 21
137.66410256410256
 31
0.0
  0
LINE
  5
2CF
330
17
100
AcDbEntity
  8
lens_outline
370
-3
100
AcDbLine
 10
105.99999999999999
 20
137.66410256410256
 30
0.0
 11
105.99999999999999
 21
137.39230769230767
 31
0.0
  0
LINE
  5
2D0
330
17
100
AcDbEntity
  8
lens_outline
370
-3
100
AcDbLine
 10
105.99999999999999
 20
137.39230769230767
 30
0.0
 11
106.13589743589743
 21
137.25641025641025
 31
0.0
  0
LINE
  5
2D1
330
17
100
AcDbEntity
  8
lens_outline
370
-3
100
AcDbLine
 10
106.13589743589743
 20
137.25641025641025
 30
0.0
 11
106.13589743589743
 21
137.1205128205128
 31
0.0
  0
LINE
  5
2D2
330
17
100
AcDbEntity
  8
lens_outline
370
-3
100
AcDbLine
 10
106.13589743589743
 20
137.1205128205128
 30
0.0
 11
106.27179487179487
 21
136.98461538461538
 31
0.0
  0
LINE
  5
2D3
330
17
100
AcDbEntity
  8
lens_outline
370
-3
100
AcDbLine
 10
106.27179487179487
 20
136.98461538461538
 30
0.0
 11
106.27179487179487
 21
136.7128205128205
 31
0.0
  0
LINE
  5
2D4
330
17
100
AcDbEntity
  8
lens_outline
370
-3
100
AcDbLine
 10
106.27179487179487
 20
136.7128205128205
 30
0.0
 11
106.4076923076923
 21
136.57692307692307
 31
0.0
  0
LINE
  5
2D5
330
17
100
AcDbEntity
  8
lens_outline
370
-3
100
AcDbLine
 10
106.4076923076923
 20
136.57692307692307
 30
0.0
 11
106.4076923076923
 21
136.44102564102562
 31
0.0
  0
LINE
  5
2D6
330
17
100
AcDbEntity
  8
lens_outline
370
-3
100
AcDbLine
 10
106.4076923076923
 20
136.44102564102562
 30
0.0
 11
106.54358974358973
 21
136.3051282051282
 31
0.0
  0
LINE
  5
2D7
330
17
100
AcDbEntity
  8
lens_outline
370
-3
100
AcDbLine
 10
106.54358974358973
 20
136.3051282051282
 30
0.0
 11
106.54358974358973
 21
136.16923076923075
 31
0.0
  0
LINE
  5
2D8
330
17
100
AcDbEntity
  8
lens_outline
370
-3
100
AcDbLine
 10
106.54358974358973
 20
136.16923076923075
 30
0.0
 11
106.67948717948717
 21
136.03333333333333
 31
0.0
  0
LINE
  5
2D9
330
17
100
AcDbEntity
  8
lens_outline
370
-3
100
AcDbLine
 10
106.67948717948717
 20
136.03333333333333
 30
0.0
 11
106.67948717948717
 21
135.76153846153846
 31
0.0
  0
LINE
  5
2DA
330
17
100
AcDbEntity
  8
lens_outline
370
-3
100
AcDbLine
 10
106.67948717948717
 20
135.76153846153846
 30
0.0
 11
106.8153846153846
 21
135.62564102564102
 31
0.0
  0
LINE
  5
2DB
330
17
100
AcDbEntity
  8
lens_outline
370
-3
100
AcDbLine
 10
106.8153846153846
 20
135.62564102564102
 30
0.0
 11
106.8153846153846
 21
135.2179487179487
 31
0.0
  0
LINE
  5
2DC
330
17
100
AcDbEntity
  8
lens_outline
370
-3
100
AcDbLine
 10
106.8153846153846
 20
135.2179487179487
 30
0.0
 11
106.95128205128205
 21
135.08205128205128
 31
0.0
  0
LINE
  5
2DD
330
17
100
AcDbEntity
  8
lens_outline
370
-3
100
AcDbLine
 10
106.95128205128205
 20
135.08205128205128
 30
0.0
 11
106.95128205128205
 21
134.67435897435897
 31
0.0
  0
LINE
  5
2DE
330
17
100
AcDbEntity
  8
lens_outline
370
-3
100
AcDbLine
 10
106.95128205128205
 20
134.67435897435897
 30
0.0
 11
107.08717948717948
 21
134.53846153846152
 31
0.0
  0
LINE
  5
2DF
330
17
100
AcDbEntity
  8
lens_outline
370
-3
100
AcDbLine
 10
107.08717948717948
 20
134.53846153846152
 30
0.0
 11
107.08717948717948
 21
133.85897435897434
 31
0.0
  0
LINE
  5
2E0
330
17
100
AcDbEntity
  8
lens_outline
370
-3
100
AcDbLine
 10
107.08717948717948
 20
133.85897435897434
 30
0.0
 11
107.22307692307692
 21
133.72307692307692
 31
0.0
  0
LINE
  5
2E1
330
17
100
AcDbEntity
  8
lens_outline
370
-3
100
AcDbLine
 10
107.22307692307692
 20
133.72307692307692
 30
0.0
 11
107.22307692307692
 21
133.04358974358973
 31
0.0
  0
LINE
  5
2E2
330
17
100
AcDbEntity
  8
lens_outline
370
-3
100
AcDbLine
 10
107.22307692307692
 20
133.04358974358973
 30
0.0
 11
107.35897435897435
 21
132.9076923076923
 31
0.0
  0
LINE
  5
2E3
330
17
100
AcDbEntity
  8
lens_outline
370
-3
100
AcDbLine
 10
107.35897435897435
 20
132.9076923076923
 30
0.0
 11
107.35897435897435
 21
132.09230769230768
 31
0.0
  0
LINE
  5
2E4
330
17
100
AcDbEntity
  8
lens_outline
370
-3
100
AcDbLine
 10
107.35897435897435
 20
132.09230769230768
 30
0.0
 11
107.49487179487178
 21
131.95641025641024
 31
0.0
  0
LINE
  5
2E5
330
17
100
AcDbEntity
  8
lens_outline
370
-3
100
AcDbLine
 10
107.49487179487178
 20
131.95641025641024
 30
0.0
 11
107.49487179487178
 21
130.86923076923077
 31
0.0
  0
LINE
  5
2E6
330
17
100
AcDbEntity
  8
lens_outline
370
-3
100
AcDbLine
 10
107.49487179487178
 20
130.86923076923077
 30
0.0
 11
107.63076923076922
 21
130.73333333333332
 31
0.0
  0
LINE
  5
2E7
330
17
100
AcDbEntity
  8
lens_outline
370
-3
100
AcDbLine
 10
107.63076923076922
 20
130.73333333333332
 30
0.0
 11
107.63076923076922
 21
129.1025641025641
 31
0.0
  0
LINE
  5
2E8
330
17
100
AcDbEntity
  8
lens_outline
370
-3
100
AcDbLine
 10
107.63076923076922
 20
129.1025641025641
 30
0.0
 11
107.76666666666665
 21
128.96666666666667
 31
0.0
  0
LINE
  5
2E9
330
17
100
AcDbEntity
  8
lens_outline
370
-3
100
AcDbLine
 10
107.76666666666665
 20
128.96666666666667
 30
0.0
 11
107.76666666666665
 21
120.4051282051282
 31
0.0
  0
LINE
  5
2EA
330
17
100
AcDbEntity
  8
lens_outline
370
-3
100
AcDbLine
 10
107.76666666666665
 20
120.4051282051282
 30
0.0
 11
107.63076923076922
 21
120.26923076923076
 31
0.0
  0
LINE
  5
2EB
330
17
100
AcDbEntity
  8
lens_outline
370
-3
100
AcDbLine
 10
107.63076923076922
 20
120.26923076923076
 30
0.0
 11
107.63076923076922
 21
119.04615384615384
 31
0.0
  0
LINE
  5
2EC
330
17
100
AcDbEntity
  8
lens_outline
370
-3
100
AcDbLine
 10
107.63076923076922
 20
119.04615384615384
 30
0.0
 11
107.49487179487178
 21
118.9102564102564
 31
0.0
  0
LINE
  5
2ED
330
17
100
AcDbEntity
  8
lens_outline
370
-3
100
AcDbLine
 10
107.49487179487178
 20
118.9102564102564
 30
0.0
 11
107.49487179487178
 21
117.82307692307691
 31
0.0
  0
LINE
  5
2EE
330
17
100
AcDbEntity
  8
lens_outline
370
-3
100
AcDbLine
 10
107.49487179487178
 20
117.82307692307691
 30
0.0
 11
107.35897435897435
 21
117.68717948717948
 31
0.0
  0
LINE
  5
2EF
330
17
100
AcDbEntity
  8
lens_outline
370
-3
100
AcDbLine
 10
107.35897435897435
 20
117.68717948717948
 30
0.0
 11
107.35897435897435
 21
116.87179487179486
 31
0.0
  0
LINE
  5
2F0
330
17
100
AcDbEntity
  8
lens_outline
370
-3
100
AcDbLine
 10
107.35897435897435
 20
116.87179487179486
 30
0.0
 11
107.22307692307692
 21
116.73589743589743
 31
0.0
  0
LINE
  5
2F1
330
17
100
AcDbEntity
  8
lens_outline
370
-3
100
AcDbLine
 10
107.22307692307692
 20
116.73589743589743
 30
0.0
 11
107.22307692307692
 21
116.19230769230768
 31
0.0
  0
LINE
  5
2F2
330
17
100
AcDbEntity
  8
lens_outline
370
-3
100
AcDbLine
 10
107.22307692307692
 20
116.19230769230768
 30
0.0
 11
107.08717948717948
 21
116.05641025641025
 31
0.0
  0
LINE
  5
2F3
330
17
100
AcDbEntity
  8
lens_outline
370
-3
100
AcDbLine
 10
107.08717948717948
 20
116.05641025641025
 30
0.0
 11
107.08717948717948
 21
115.78461538461538
 31
0.0
  0
LINE
  5
2F4
330
17
100
AcDbEntity
  8
lens_outline
370
-3
100
AcDbLine
 10
107.08717948717948
 20
115.78461538461538
 30
0.0
 11
106.95128205128205
 21
115.64871794871794
 31
0.0
  0
LINE
  5
2F5
330
17
100
AcDbEntity
  8
lens_outline
370
-3
100
AcDbLine
 10
106.95128205128205
 20
115.64871794871794
 30
0.0
 11
106.95128205128205
 21
115.24102564102563
 31
0.0
  0
LINE
  5
2F6
330
17
100
AcDbEntity
  8
lens_outline
370
-3
100
AcDbLine
 10
106.95128205128205
 20
115.24102564102563
 30
0.0
 11
106.8153846153846
 21
115.1051282051282
 31
0.0
  0
LINE
  5
2F7
330
17
100
AcDbEntity
  8
lens_outline
370
-3
100
AcDbLine
 10
106.8153846153846
 20
115.1051282051282
 30
0.0
 11
106.8153846153846
 21
114.6974358974359
 31
0.0
  0
LINE
  5
2F8
330
17
100
AcDbEntity
  8
lens_outline
370
-3
100
AcDbLine
 10
106.8153846153846
 20
114.6974358974359
 30
0.0
 11
106.67948717948717
 21
114.56153846153845
 31
0.0
  0
LINE
  5
2F9
330
17
100
AcDbEntity
  8
lens_outline
370
-3
100
AcDbLine
 10
106.67948717948717
 20
114.56153846153845
 30
0.0
 11
106.67948717948717
 21
114.15384615384615
 31
0.0
  0
LINE
  5
2FA
330
17
100
AcDbEntity
  8
lens_outline
370
-3
100
AcDbLine
 10
106.67948717948717
 20
114.15384615384615
 30
0.0
 11
106.54358974358973
 21
114.01794871794871
 31
0.0
  0
LINE
  5
2FB
330
17
100
AcDbEntity
  8
lens_outline
370
-3
100
AcDbLine
 10
106.54358974358973
 20
114.01794871794871
 30
0.0
 11
106.54358974358973
 21
113.74615384615383
 31
0.0
  0
LINE
  5
2FC
330
17
100
AcDbEntity
  8
lens_outline
370
-3
100
AcDbLine
 10
106.54358974358973
 20
113.74615384615383
 30
0.0
 11
106.4076923076923
 21
113.6102564102564
 31
0.0
  0
LINE
  5
2FD
330
17
100
AcDbEntity
  8
lens_outline
370
-3
100
AcDbLine
 10
106.4076923076923
 20
113.6102564102564
 30
0.0
 11
106.4076923076923
 21
113.33846153846153
 31
0.0
  0
LINE
  5
2FE
330
17
100
AcDbEntity
  8
lens_outline
370
-3
100
AcDbLine
 10
106.4076923076923
 20
113.33846153846153
 30
0.0
 11
106.27179487179487
 21
113.2025641025641
 31
0.0
  0
LINE
  5
2FF
330
17
100
AcDbEntity
  8
lens_outline
370
-3
100
AcDbLine
 10
106.27179487179487
 20
113.2025641025641
 30
0.0
 11
106.27179487179487
 21
113.06666666666666
 31
0.0
  0
LINE
  5
300
330
17
100
AcDbEntity
  8
lens_outline
370
-3
100
AcDbLine
 10
106.27179487179487
 20
113.06666666666666
 30
0.0
 11
106.13589743589743
 21
112.93076923076922
 31
0.0
  0
LINE
  5
301
330
17
100
AcDbEntity
  8
lens_outline
370
-3
100
AcDbLine
 10
106.13589743589743
 20
112.93076923076922
 30
0.0
 11
106.13589743589743
 21
112.79487179487178
 31
0.0
  0
LINE
  5
302
330
17
100
AcDbEntity
  8
lens_outline
370
-3
100
AcDbLine
 10
106.13589743589743
 20
112.79487179487178
 30
0.0
 11
105.04871794871794
 21
111.7076923076923
 31
0.0
  0
LINE
  5
303
330
17
100
AcDbEntity
  8
lens_outline
370
-3
100
AcDbLine
 10
105.04871794871794
 20
111.7076923076923
 30
0.0
 11
104.9128205128205
 21
111.7076923076923
 31
0.0
  0
LINE
  5
304
330
17
100
AcDbEntity
  8
lens_outline
370
-3
100
AcDbLine
 10
104.9128205128205
 20
111.7076923076923
 30
0.0
 11
104.77692307692307
 21
111.57179487179486
 31
0.0
  0
LINE
  5
305
330
17
100
AcDbEntity
  8
lens_outline
370
-3
100
AcDbLine
 10
104.77692307692307
 20
111.57179487179486
 30
0.0
 11
104.64102564102564
 21
111.57179487179486
 31
0.0
  0
LINE
  5
306
330
17
100
AcDbEntity
  8
lens_outline
370
-3
100
AcDbLine
 10
104.64102564102564
 20
111.57179487179486
 30
0.0
 11
104.5051282051282
 21
111.43589743589743
 31
0.0
  0
LINE
  5
307
330
17
100
AcDbEntity
  8
lens_outline
370
-3
100
AcDbLine
 10
104.5051282051282
 20
111.43589743589743
 30
0.0
 11
104.36923076923077
 21
111.43589743589743
 31
0.0
  0
LINE
  5
308
330
17
100
AcDbEntity
  8
lens_outline
370
-3
100
AcDbLine
 10
104.36923076923077
 20
111.43589743589743
 30
0.0
 11
104.09743589743589
 21
111.16410256410255
 31
0.0
  0
LINE
  5
309
330
17
100
AcDbEntity
  8
lens_outline
370
-3
100
AcDbLine
 10
104.09743589743589
 20
111.16410256410255
 30
0.0
 11
103.82564102564102
 21
111.16410256410255
 31
0.0
  0
LINE
  5
30A
330
17
100
AcDbEntity
  8
lens_outline
370
-3
100
AcDbLine
 10
103.82564102564102
 20
111.16410256410255
 30
0.0
 11
103.68974358974359
 21
111.02820512820512
 31
0.0
  0
LINE
  5
30B
330
17
100
AcDbEntity
  8
lens_outline
370
-3
100
AcDbLine
 10
103.68974358974359
 20
111.02820512820512
 30
0.0
 11
103.55384615384615
 21
111.02820512820512
 31
0.0
  0
LINE
  5
30C
330
17
100
AcDbEntity
  8
lens_outline
370
-3
100
AcDbLine
 10
103.55384615384615
 20
111.02820512820512
 30
0.0
 11
103.4179487179487
 21
110.89230769230768
 31
0.0
  0
LINE
  5
30D
330
17
100
AcDbEntity
  8
lens_outline
370
-3
100
AcDbLine
 10
103.4179487179487
 20
110.89230769230768
 30
0.0
 11
103.14615384615384
 21
110.89230769230768
 31
0.0
  0
LINE
  5
30E
330
17
100
AcDbEntity
  8
lens_outline
370
-3
100
AcDbLine
 10
103.14615384615384
 20
110.89230769230768
 30
0.0
 11
103.0102564102564
 21
110.75641025641025
 31
0.0
  0
LINE
  5
30F
330
17
100
AcDbEntity
  8
lens_outline
370
-3
100
AcDbLine
 10
103.0102564102564
 20
110.75641025641025
 30
0.0
 11
102.73846153846154
 21
110.75641025641025
 31
0.0
  0
LINE
  5
310
330
17
100
AcDbEntity
  8
lens_outline
370
-3
100
AcDbLine
 10
102.73846153846154
 20
110.75641025641025
 30
0.0
 11
102.60256410256409
 21
110.62051282051281
 31
0.0
  0
LINE
  5
311
330
17
100
AcDbEntity
  8
lens_outline
370
-3
100
AcDbLine
 10
102.60256410256409
 20
110.62051282051281
 30
0.0
 11
102.33076923076922
 21
110.62051282051281
 31
0.0
  0
LINE
  5
312
330
17
100
AcDbEntity
  8
lens_outline
370
-3
100
AcDbLine
 10
102.33076923076922
 20
110.62051282051281
 30
0.0
 11
102.19487179487179
 21
110.48461538461538
 31
0.0
  0
LINE
  5
313
330
17
100
AcDbEntity
  8
lens_outline
370
-3
100
AcDbLine
 10
102.19487179487179
 20
110.48461538461538
 30
0.0
 11
102.05897435897435
 21
110.48461538461538
 31
0.0
  0
LINE
  5
314
330
17
100
AcDbEntity
  8
lens_outline
370
-3
100
AcDbLine
 10
102.05897435897435
 20
110.48461538461538
 30
0.0
 11
101.92307692307692
 21
110.34871794871793
 31
0.0
  0
LINE
  5
315
330
17
100
AcDbEntity
  8
lens_outline
370
-3
100
AcDbLine
 10
101.92307692307692
 20
110.34871794871793
 30
0.0
 11
101.65128205128204
 21
110.34871794871793
 31
0.0
  0
LINE
  5
316
330
17
100
AcDbEntity
  8
lens_outline
370
-3
100
AcDbLine
 10
101.65128205128204
 20
110.34871794871793
 30
0.0
 11
101.5153846153846
 21
110.2128205128205
 31
0.0
  0
LINE
  5
317
330
17
100
AcDbEntity
  8
lens_outline
370
-3
100
AcDbLine
 10
101.5153846153846
 20
110.2128205128205
 30
0.0
 11
101.1076923076923
 21
110.2128205128205
 31
0.0
  0
LINE
  5
318
330
17
100
AcDbEntity
  8
lens_outline
370
-3
100
AcDbLine
 10
101.1076923076923
 20
110.2128205128205
 30
0.0
 11
100.97179487179487
 21
110.07692307692307
 31
0.0
  0
LINE
  5
319
330
17
100
AcDbEntity
  8
lens_outline
370
-3
100
AcDbLine
 10
100.97179487179487
 20
110.07692307692307
 30
0.0
 11
100.56410256410255
 21
110.07692307692307
 31
0.0
  0
LINE
  5
31A
330
17
100
AcDbEntity
  8
lens_outline
370
-3
100
AcDbLine
 10
100.56410256410255
 20
110.07692307692307
 30
0.0
 11
100.42820512820512
 21
109.94102564102563
 31
0.0
  0
LINE
  5
31B
330
17
100
AcDbEntity
  8
lens_outline
370
-3
100
AcDbLine
 10
100.42820512820512
 20
109.94102564102563
 30
0.0
 11
100.15641025641025
 21
109.94102564102563
 31
0.0
  0
LINE
  5
31C
330
17
100
AcDbEntity
  8
lens_outline
370
-3
100
AcDbLine
 10
100.15641025641025
 20
109.94102564102563
 30
0.0
 11
100.0205128205128
 21
109.8051282051282
 31
0.0
  0
LINE
  5
31D
330
17
100
AcDbEntity
  8
lens_outline
370
-3
100
AcDbLine
 10
100.0205128205128
 20
109.8051282051282
 30
0.0
 11
99.74871794871794
 21
109.8051282051282
 31
0.0
  0
LINE
  5
31E
330
17
100
AcDbEntity
  8
lens_outline
370
-3
100
AcDbLine
 10
99.74871794871794
 20
109.8051282051282
 30
0.0
 11
99.6128205128205
 21
109.66923076923077
 31
0.0
  0
LINE
  5
31F
330
17
100
AcDbEntity
  8
lens_outline
370
-3
100
AcDbLine
 10
99.6128205128205
 20
109.66923076923077
 30
0.0
 11
99.20512820512819
 21
109.66923076923077
 31
0.0
  0
LINE
  5
320
330
17
100
AcDbEntity
  8
lens_outline
370
-3
100
AcDbLine
 10
99.20512820512819
 20
109.66923076923077
 30
0.0
 11
99.06923076923076
 21
109.53333333333333
 31
0.0
  0
LINE
  5
321
330
17
100
AcDbEntity
  8
lens_outline
370
-3
100
AcDbLine
 10
99.06923076923076
 20
109.53333333333333
 30
0.0
 11
98.66153846153846
 21
109.53333333333333
 31
0.0
  0
LINE
  5
322
330
17
100
AcDbEntity
  8
lens_outline
370
-3
100
AcDbLine
 10
98.66153846153846
 20
109.53333333333333
 30
0.0
 11
98.52564102564102
 21
109.39743589743588
 31
0.0
  0
LINE
  5
323
330
17
100
AcDbEntity
  8
lens_outline
370
-3
100
AcDbLine
 10
98.52564102564102
 20
109.39743589743588
 30
0.0
 11
98.1179487179487
 21
109.39743589743588
 31
0.0
  0
LINE
  5
324
330
17
100
AcDbEntity
  8
lens_outline
370
-3
100
AcDbLine
 10
98.1179487179487
 20
109.39743589743588
 30
0.0
 11
97.98205128205127
 21
109.26153846153845
 31
0.0
  0
LINE
  5
325
330
17
100
AcDbEntity
  8
lens_outline
370
-3
100
AcDbLine
 10
97.98205128205127
 20
109.26153846153845
 30
0.0
 11
97.57435897435897
 21
109.26153846153845
 31
0.0
  0
LINE
  5
326
330
17
100
AcDbEntity
  8
lens_outline
370
-3
100
AcDbLine
 10
97.57435897435897
 20
109.26153846153845
 30
0.0
 11
97.43846153846152
 21
109.12564102564102
 31
0.0
  0
LINE
  5
327
330
17
100
AcDbEntity
  8
lens_outline
370
-3
100
AcDbLine
 10
97.43846153846152
 20
109.12564102564102
 30
0.0
 11
96.89487179487179
 21
109.12564102564102
 31
0.0
  0
LINE
  5
328
330
17
100
AcDbEntity
  8
lens_outline
370
-3
100
AcDbLine
 10
96.89487179487179
 20
109.12564102564102
 30
0.0
 11
96.75897435897436
 21
108.98974358974358
 31
0.0
  0
LINE
  5
329
330
17
100
AcDbEntity
  8
lens_outline
370
-3
100
AcDbLine
 10
96.75897435897436
 20
108.98974358974358
 30
0.0
 11
96.07948717948717
 21
108.98974358974358
 31
0.0
  0
LINE
  5
32A
330
17
100
AcDbEntity
  8
lens_outline
370
-3
100
AcDbLine
 10
96.07948717948717
 20
108.98974358974358
 30
0.0
 11
95.94358974358974
 21
108.85384615384615
 31
0.0
  0
LINE
  5
32B
330
17
100
AcDbEntity
  8
lens_outline
370
-3
100
AcDbLine
 10
95.94358974358974
 20
108.85384615384615
 30
0.0
 11
95.53589743589743
 21
108.85384615384615
 31
0.0
  0
LINE
  5
32C
330
17
100
AcDbEntity
  8
lens_outline
370
-3
100
AcDbLine
 10
95.53589743589743
 20
108.85384615384615
 30
0.0
 11
95.39999999999999
 21
108.71794871794872
 31
0.0
  0
LINE
  5
32D
330
17
100
AcDbEntity
  8
lens_outline
370
-3
100
AcDbLine
 10
95.39999999999999
 20
108.71794871794872
 30
0.0
 11
94.99230769230769
 21
108.71794871794872
 31
0.0
  0
LINE
  5
32E
330
17
100
AcDbEntity
  8
lens_outline
370
-3
100
AcDbLine
 10
94.99230769230769
 20
108.71794871794872
 30
0.0
 11
94.85641025641024
 21
108.58205128205127
 31
0.0
  0
LINE
  5
32F
330
17
100
AcDbEntity
  8
lens_outline
370
-3
100
AcDbLine
 10
94.85641025641024
 20
108.58205128205127
 30
0.0
 11
94.17692307692307
 21
108.58205128205127
 31
0.0
  0
LINE
  5
330
330
17
100
AcDbEntity
  8
lens_outline
370
-3
100
AcDbLine
 10
94.17692307692307
 20
108.58205128205127
 30
0.0
 11
94.04102564102563
 21
108.44615384615383
 31
0.0
  0
LINE
  5
331
330
17
100
AcDbEntity
  8
lens_outline
370
-3
100
AcDbLine
 10
94.04102564102563
 20
108.44615384615383
 30
0.0
 11
93.36153846153846
 21
108.44615384615383
 31
0.0
  0
LINE
  5
332
330
17
100
AcDbEntity
  8
lens_outline
370
-3
100
AcDbLine
 10
93.36153846153846
 20
108.44615384615383
 30
0.0
 11
93.22564102564102
 21
108.3102564102564
 31
0.0
  0
LINE
  5
333
330
17
100
AcDbEntity
  8
lens_outline
370
-3
100
AcDbLine
 10
93.22564102564102
 20
108.3102564102564
 30
0.0
 11
92.54615384615384
 21
108.3102564102564
 31
0.0
  0
LINE
  5
334
330
17
100
AcDbEntity
  8
lens_outline
370
-3
100
AcDbLine
 10
92.54615384615384
 20
108.3102564102564
 30
0.0
 11
92.41025641025641
 21
108.17435897435897
 31
0.0
  0
LINE
  5
335
330
17
100
AcDbEntity
  8
lens_outline
370
-3
100
AcDbLine
 10
92.41025641025641
 20
108.17435897435897
 30
0.0
 11
91.59487179487179
 21
108.17435897435897
 31
0.0
  0
LINE
  5
336
330
17
100
AcDbEntity
  8
lens_outline
370
-3
100
AcDbLine
 10
91.59487179487179
 20
108.17435897435897
 30
0.0
 11
91.45897435897434
 21
108.03846153846153
 31
0.0
  0
LINE
  5
337
330
17
100
AcDbEntity
  8
lens_outline
370
-3
100
AcDbLine
 10
91.45897435897434
 20
108.03846153846153
 30
0.0
 11
90.23589743589743
 21
108.03846153846153
 31
0.0
  0
LINE
  5
338
330
17
100
AcDbEntity
  8
lens_outline
370
-3
100
AcDbLine
 10
90.23589743589743
 20
108.03846153846153
 30
0.0
 11
90.1
 21
107.9025641025641
 31
0.0
  0
LINE
  5
339
330
17
100
AcDbEntity
  8
lens_outline
370
-3
100
AcDbLine
 10
90.1
 20
107.9025641025641
 30
0.0
 11
88.33333333333333
 21
107.9025641025641
 31
0.0
  0
LINE
  5
33A
330
17
100
AcDbEntity
  8
lens_outline
370
-3
100
AcDbLine
 10
88.33333333333333
 20
107.9025641025641
 30
0.0
 11
88.1974358974359
 21
107.76666666666665
 31
0.0
  0
LINE
  5
33B
330
17
100
AcDbEntity
  8
lens_outline
370
-3
100
AcDbLine
 10
88.1974358974359
 20
107.76666666666665
 30
0.0
 11
74.87948717948717
 21
107.76666666666665
 31
0.0
  0
ENDSEC
  0
SECTION
  2
OBJECTS
  0
DICTIONARY
  5
A
330
0
100
AcDbDictionary
280
0
281
1
  3
ACAD_COLOR
350
B
  3
ACAD_GROUP
350
C
  3
ACAD_LAYOUT
350
D
  3
ACAD_MATERIAL
350
E
  3
ACAD_MLEADERSTYLE
350
F
  3
ACAD_MLINESTYLE
350
10
  3
ACAD_PLOTSETTINGS
350
11
  3
ACAD_PLOTSTYLENAME
350
12
  3
ACAD_SCALELIST
350
14
  3
ACAD_TABLESTYLE
350
15
  3
ACAD_VISUALSTYLE
350
16
  3
EZDXF_META
350
2D
  0
DICTIONARY
  5
B
330
A
100
AcDbDictionary
280
0
281
1
  0
DICTIONARY
  5
C
330
A
100
AcDbDictionary
280
0
281
1
  0
DICTIONARY
  5
D
330
A
100
AcDbDictionary
280
0
281
1
  3
Model
350
1A
  3
Layout1
350
1E
  0
DICTIONARY
  5
E
330
A
100
AcDbDictionary
280
0
281
1
  3
ByBlock
350
1F
  3
ByLayer
350
20
  3
Global
350
21
  0
DICTIONARY
  5
F
330
A
100
AcDbDictionary
280
0
281
1
  3
Standard
350
2C
  0
DICTIONARY
  5
10
330
A
100
AcDbDictionary
280
0
281
1
  3
Standard
350
22
  0
DICTIONARY
  5
11
330
A
100
AcDbDictionary
280
0
281
1
  0
ACDBDICTIONARYWDFLT
  5
12
330
A
100
AcDbDictionary
280
0
281
1
  3
Normal
350
13
100
AcDbDictionaryWithDefault
340
13
  0
ACDBPLACEHOLDER
  5
13
330
12
  0
DICTIONARY
  5
14
330
A
100
AcDbDictionary
280
0
281
1
  0
DICTIONARY
  5
15
330
A
100
AcDbDictionary
280
0
281
1
  0
DICTIONARY
  5
16
330
A
100
AcDbDictionary
280
0
281
1
  0
LAYOUT
  5
1A
330
D
100
AcDbPlotSettings
  1

  2
Adobe PDF
  4
A3
  6

 40
7.5
 41
20.0
 42
7.5
 43
20.0
 44
420.0
 45
297.0
 46
0.0
 47
0.0
 48
0.0
 49
0.0
140
0.0
141
0.0
142
1.0
143
1.0
 70
1024
 72
1
 73
0
 74
5
  7

 75
16
 76
0
 77
2
 78
300
147
1.0
148
0.0
149
0.0
100
AcDbLayout
  1
Model
 70
1
 71
0
 10
0.0
 20
0.0
 11
420.0
 21
297.0
 12
0.0
 22
0.0
 32
0.0
 14
1e+20
 24
1e+20
 34
1e+20
 15
-1e+20
 25
-1e+20
 35
-1e+20
146
0.0
 13
0.0
 23
0.0
 33
0.0
 16
1.0
 26
0.0
 36
0.0
 17
0.0
 27
1.0
 37
0.0
 76
1
330
17
  0
LAYOUT
  5
1E
330
D
100
AcDbPlotSettings
  1

  2
Adobe PDF
  4
A3
  6

 40
7.5
 41
20.0
 42
7.5
 43
20.0
 44
420.0
 45
297.0
 46
0.0
 47
0.0
 48
0.0
 49
0.0
140
0.0
141
0.0
142
1.0
143
1.0
 70
0
 72
1
 73
0
 74
5
  7

 75
16
 76
0
 77
2
 78
300
147
1.0
148
0.0
149
0.0
100
AcDbLayout
  1
Layout1
 70
1
 71
1
 10
0.0
 20
0.0
 11
420.0
 21
297.0
 12
0.0
 22
0.0
 32
0.0
 14
1e+20
 24
1e+20
 34
1e+20
 15
-1e+20
 25
-1e+20
 35
-1e+20
146
0.0
 13
0.0
 23
0.0
 33
0.0
 16
1.0
 26
0.0
 36
0.0
 17
0.0
 27
1.0
 37
0.0
 76
1
330
1B
  0
MATERIAL
  5
1F
102
{ACAD_REACTORS
330
E
102
}
330
E
100
AcDbMaterial
  1
ByBlock
  2

 70
0
 40
1.0
 71
1
 41
1.0
 91
-1023410177
 42
1.0
 72
1
  3

 73
1
 74
1
 75
1
 44
0.5
 73
0
 45
1.0
 46
1.0
 77
1
  4

 78
1
 79
1
170
1
 48
1.0
171
1
  6

172
1
173
1
174
1
140
1.0
141
1.0
175
1
  7

176
1
177
1
178
1
143
1.0
179
1
  8

270
1
271
1
272
1
145
1.0
146
1.0
273
1
  9

274
1
275
1
276
1
 42
1.0
 72
1
  3

 73
1
 74
1
 75
1
 94
63
  0
MATERIAL
  5
20
102
{ACAD_REACTORS
330
E
102
}
330
E
100
AcDbMaterial
  1
ByLayer
  2

 70
0
 40
1.0
 71
1
 41
1.0
 91
-1023410177
 42
1.0
 72
1
  3

 73
1
 74
1
 75
1
 44
0.5
 73
0
 45
1.0
 46
1.0
 77
1
  4

 78
1
 79
1
170
1
 48
1.0
171
1
  6

172
1
173
1
174
1
140
1.0
141
1.0
175
1
  7

176
1
177
1
178
1
143
1.0
179
1
  8

270
1
271
1
272
1
145
1.0
146
1.0
273
1
  9

274
1
275
1
276
1
 42
1.0
 72
1
  3

 73
1
 74
1
 75
1
 94
63
  0
MATERIAL
  5
21
102
{ACAD_REACTORS
330
E
102
}
330
E
100
AcDbMaterial
  1
Global
  2

 70
0
 40
1.0
 71
1
 41
1.0
 91
-1023410177
 42
1.0
 72
1
  3

 73
1
 74
1
 75
1
 44
0.5
 73
0
 45
1.0
 46
1.0
 77
1
  4

 78
1
 79
1
170
1
 48
1.0
171
1
  6

172
1
173
1
174
1
140
1.0
141
1.0
175
1
  7

176
1
177
1
178
1
143
1.0
179
1
  8

270
1
271
1
272
1
145
1.0
146
1.0
273
1
  9

274
1
275
1
276
1
 42
1.0
 72
1
  3

 73
1
 74
1
 75
1
 94
63
  0
MLINESTYLE
  5
22
102
{ACAD_REACTORS
330
10
102
}
330
10
100
AcDbMlineStyle
  2
Standard
 70
0
  3

 62
256
 51
90.0
 52
90.0
 71
2
 49
0.5
 62
256
  6
BYLAYER
 49
-0.5
 62
256
  6
BYLAYER
  0
MLEADERSTYLE
  5
2C
102
{ACAD_REACTORS
330
F
102
}
330
F
100
AcDbMLeaderStyle
179
2
170
2
171
1
172
0
 90
2
 40
0.0
 41
0.0
173
1
 91
-1056964608
 92
-2
290
1
 42
2.0
291
1
 43
8.0
  3
Standard
 44
4.0
300

342
29
174
1
175
1
176
0
178
1
 93
-1056964608
 45
4.0
292
0
297
0
 46
4.0
 94
-1056964608
 47
1.0
 49
1.0
140
1.0
294
1
141
0.0
177
0
142
1.0
295
0
296
0
143
3.75
271
0
272
9
273
9
  0
DICTIONARY
  5
2D
330
A
100
AcDbDictionary
281
1
  3
CREATED_BY_EZDXF
350
2E
  3
WRITTEN_BY_EZDXF
350
33E
  0
DICTIONARYVAR
  5
2E
330
2D
100
DictionaryVariables
280
0
  1
1.2.0 @ 2024-04-25T03:05:55.398171+00:00
  0
DICTIONARYVAR
  5
33E
330
2D
100
DictionaryVariables
280
0
  1
1.2.0 @ 2024-04-25T03:05:55.464063+00:00
  0
ENDSEC
  0
EOF
