  0
SECTION
  2
HEADER
  9
$ACADVER
  1
AC1024
  9
$ACADMAINTVER
 70
6
  9
$DWGCODEPAGE
  3
ANSI_1252
  9
$LASTSAVEDBY
  1
ezdxf
  9
$INSBASE
 10
0.0
 20
0.0
 30
0.0
  9
$EXTMIN
 10
1e+20
 20
1e+20
 30
1e+20
  9
$EXTMAX
 10
-1e+20
 20
-1e+20
 30
-1e+20
  9
$LIMMIN
 10
0.0
 20
0.0
  9
$LIMMAX
 10
420.0
 20
297.0
  9
$ORTHOMODE
 70
0
  9
$REGENMODE
 70
1
  9
$FILLMODE
 70
1
  9
$QTEXTMODE
 70
0
  9
$MIRRTEXT
 70
1
  9
$LTSCALE
 40
1.0
  9
$ATTMODE
 70
1
  9
$TEXTSIZE
 40
2.5
  9
$TRACEWID
 40
1.0
  9
$TEXTSTYLE
  7
Standard
  9
$CLAYER
  8
0
  9
$CELTYPE
  6
ByLayer
  9
$CECOLOR
 62
256
  9
$CELTSCALE
 40
1.0
  9
$DISPSILH
 70
0
  9
$DIMSCALE
 40
1.0
  9
$DIMASZ
 40
2.5
  9
$DIMEXO
 40
0.625
  9
$DIMDLI
 40
3.75
  9
$DIMRND
 40
0.0
  9
$DIMDLE
 40
0.0
  9
$DIMEXE
 40
1.25
  9
$DIMTP
 40
0.0
  9
$DIMTM
 40
0.0
  9
$DIMTXT
 40
2.5
  9
$DIMCEN
 40
2.5
  9
$DIMTSZ
 40
0.0
  9
$DIMTOL
 70
0
  9
$DIMLIM
 70
0
  9
$DIMTIH
 70
0
  9
$DIMTOH
 70
0
  9
$DIMSE1
 70
0
  9
$DIMSE2
 70
0
  9
$DIMTAD
 70
1
  9
$DIMZIN
 70
8
  9
$DIMBLK
  1

  9
$DIMASO
 70
1
  9
$DIMSHO
 70
1
  9
$DIMPOST
  1

  9
$DIMAPOST
  1

  9
$DIMALT
 70
0
  9
$DIMALTD
 70
3
  9
$DIMALTF
 40
0.03937007874
  9
$DIMLFAC
 40
1.0
  9
$DIMTOFL
 70
1
  9
$DIMTVP
 40
0.0
  9
$DIMTIX
 70
0
  9
$DIMSOXD
 70
0
  9
$DIMSAH
 70
0
  9
$DIMBLK1
  1

  9
$DIMBLK2
  1

  9
$DIMSTYLE
  2
ISO-25
  9
$DIMCLRD
 70
0
  9
$DIMCLRE
 70
0
  9
$DIMCLRT
 70
0
  9
$DIMTFAC
 40
1.0
  9
$DIMGAP
 40
0.625
  9
$DIMJUST
 70
0
  9
$DIMSD1
 70
0
  9
$DIMSD2
 70
0
  9
$DIMTOLJ
 70
0
  9
$DIMTZIN
 70
8
  9
$DIMALTZ
 70
0
  9
$DIMALTTZ
 70
0
  9
$DIMUPT
 70
0
  9
$DIMDEC
 70
2
  9
$DIMTDEC
 70
2
  9
$DIMALTU
 70
2
  9
$DIMALTTD
 70
3
  9
$DIMTXSTY
  7
Standard
  9
$DIMAUNIT
 70
0
  9
$DIMADEC
 70
0
  9
$DIMALTRND
 40
0.0
  9
$DIMAZIN
 70
0
  9
$DIMDSEP
 70
44
  9
$DIMATFIT
 70
3
  9
$DIMFRAC
 70
0
  9
$DIMLDRBLK
  1

  9
$DIMLUNIT
 70
2
  9
$DIMLWD
 70
-2
  9
$DIMLWE
 70
-2
  9
$DIMTMOVE
 70
0
  9
$DIMFXL
 40
1.0
  9
$DIMFXLON
 70
0
  9
$DIMJOGANG
 40
0.785398163397
  9
$DIMTFILL
 70
0
  9
$DIMTFILLCLR
 70
0
  9
$DIMARCSYM
 70
0
  9
$DIMLTYPE
  6

  9
$DIMLTEX1
  6

  9
$DIMLTEX2
  6

  9
$DIMTXTDIRECTION
 70
0
  9
$LUNITS
 70
2
  9
$LUPREC
 70
4
  9
$SKETCHINC
 40
1.0
  9
$FILLETRAD
 40
10.0
  9
$AUNITS
 70
0
  9
$AUPREC
 70
2
  9
$MENU
  1
.
  9
$ELEVATION
 40
0.0
  9
$PELEVATION
 40
0.0
  9
$THICKNESS
 40
0.0
  9
$LIMCHECK
 70
0
  9
$CHAMFERA
 40
0.0
  9
$CHAMFERB
 40
0.0
  9
$CHAMFERC
 40
0.0
  9
$CHAMFERD
 40
0.0
  9
$SKPOLY
 70
0
  9
$TDCREATE
 40
2460426.5324884257
  9
$TDUCREATE
 40
2458532.153996898
  9
$TDUPDATE
 40
2460426.5324884257
  9
$TDUUPDATE
 40
2458532.1544311
  9
$TDINDWG
 40
0.0
  9
$TDUSRTIMER
 40
0.0
  9
$USRTIMER
 70
1
  9
$ANGBASE
 50
0.0
  9
$ANGDIR
 70
0
  9
$PDMODE
 70
0
  9
$PDSIZE
 40
0.0
  9
$PLINEWID
 40
0.0
  9
$SPLFRAME
 70
0
  9
$SPLINETYPE
 70
6
  9
$SPLINESEGS
 70
8
  9
$HANDSEED
  5
26B
  9
$SURFTAB1
 70
6
  9
$SURFTAB2
 70
6
  9
$SURFTYPE
 70
6
  9
$SURFU
 70
6
  9
$SURFV
 70
6
  9
$UCSBASE
  2

  9
$UCSNAME
  2

  9
$UCSORG
 10
0.0
 20
0.0
 30
0.0
  9
$UCSXDIR
 10
1.0
 20
0.0
 30
0.0
  9
$UCSYDIR
 10
0.0
 20
1.0
 30
0.0
  9
$UCSORTHOREF
  2

  9
$UCSORTHOVIEW
 70
0
  9
$UCSORGTOP
 10
0.0
 20
0.0
 30
0.0
  9
$UCSORGBOTTOM
 10
0.0
 20
0.0
 30
0.0
  9
$UCSORGLEFT
 10
0.0
 20
0.0
 30
0.0
  9
$UCSORGRIGHT
 10
0.0
 20
0.0
 30
0.0
  9
$UCSORGFRONT
 10
0.0
 20
0.0
 30
0.0
  9
$UCSORGBACK
 10
0.0
 20
0.0
 30
0.0
  9
$PUCSBASE
  2

  9
$PUCSNAME
  2

  9
$PUCSORG
 10
0.0
 20
0.0
 30
0.0
  9
$PUCSXDIR
 10
1.0
 20
0.0
 30
0.0
  9
$PUCSYDIR
 10
0.0
 20
1.0
 30
0.0
  9
$PUCSORTHOREF
  2

  9
$PUCSORTHOVIEW
 70
0
  9
$PUCSORGTOP
 10
0.0
 20
0.0
 30
0.0
  9
$PUCSORGBOTTOM
 10
0.0
 20
0.0
 30
0.0
  9
$PUCSORGLEFT
 10
0.0
 20
0.0
 30
0.0
  9
$PUCSORGRIGHT
 10
0.0
 20
0.0
 30
0.0
  9
$PUCSORGFRONT
 10
0.0
 20
0.0
 30
0.0
  9
$PUCSORGBACK
 10
0.0
 20
0.0
 30
0.0
  9
$USERI1
 70
0
  9
$USERI2
 70
0
  9
$USERI3
 70
0
  9
$USERI4
 70
0
  9
$USERI5
 70
0
  9
$USERR1
 40
0.0
  9
$USERR2
 40
0.0
  9
$USERR3
 40
0.0
  9
$USERR4
 40
0.0
  9
$USERR5
 40
0.0
  9
$WORLDVIEW
 70
1
  9
$SHADEDGE
 70
3
  9
$SHADEDIF
 70
70
  9
$TILEMODE
 70
1
  9
$MAXACTVP
 70
64
  9
$PINSBASE
 10
0.0
 20
0.0
 30
0.0
  9
$PLIMCHECK
 70
0
  9
$PEXTMIN
 10
1e+20
 20
1e+20
 30
1e+20
  9
$PEXTMAX
 10
-1e+20
 20
-1e+20
 30
-1e+20
  9
$PLIMMIN
 10
0.0
 20
0.0
  9
$PLIMMAX
 10
420.0
 20
297.0
  9
$UNITMODE
 70
0
  9
$VISRETAIN
 70
1
  9
$PLINEGEN
 70
0
  9
$PSLTSCALE
 70
1
  9
$TREEDEPTH
 70
3020
  9
$CMLSTYLE
  2
Standard
  9
$CMLJUST
 70
0
  9
$CMLSCALE
 40
20.0
  9
$PROXYGRAPHICS
 70
1
  9
$MEASUREMENT
 70
1
  9
$CELWEIGHT
370
-1
  9
$ENDCAPS
280
0
  9
$JOINSTYLE
280
0
  9
$LWDISPLAY
290
0
  9
$INSUNITS
 70
6
  9
$HYPERLINKBASE
  1

  9
$STYLESHEET
  1

  9
$XEDIT
290
1
  9
$CEPSNTYPE
380
0
  9
$PSTYLEMODE
290
1
  9
$FINGERPRINTGUID
  2
{0E4EBD2C-CA74-46EC-B20E-006FAE36EAAC}
  9
$VERSIONGUID
  2
{14F4A899-18B3-4FAF-8CBA-AC1CFF7E70A8}
  9
$EXTNAMES
290
1
  9
$PSVPSCALE
 40
0.0
  9
$OLESTARTUP
290
0
  9
$SORTENTS
280
127
  9
$INDEXCTL
280
0
  9
$HIDETEXT
280
1
  9
$XCLIPFRAME
280
2
  9
$HALOGAP
280
0
  9
$OBSCOLOR
 70
257
  9
$OBSLTYPE
280
0
  9
$INTERSECTIONDISPLAY
280
0
  9
$INTERSECTIONCOLOR
 70
257
  9
$DIMASSOC
280
2
  9
$PROJECTNAME
  1

  9
$CAMERADISPLAY
290
0
  9
$LENSLENGTH
 40
50.0
  9
$CAMERAHEIGHT
 40
0.0
  9
$STEPSPERSEC
 40
24.0
  9
$STEPSIZE
 40
100.0
  9
$3DDWFPREC
 40
2.0
  9
$PSOLWIDTH
 40
0.005
  9
$PSOLHEIGHT
 40
0.08
  9
$LOFTANG1
 40
1.570796326795
  9
$LOFTANG2
 40
1.570796326795
  9
$LOFTMAG1
 40
0.0
  9
$LOFTMAG2
 40
0.0
  9
$LOFTPARAM
 70
7
  9
$LOFTNORMALS
280
1
  9
$LATITUDE
 40
37.795
  9
$LONGITUDE
 40
-122.394
  9
$NORTHDIRECTION
 40
0.0
  9
$TIMEZONE
 70
-8000
  9
$LIGHTGLYPHDISPLAY
280
1
  9
$TILEMODELIGHTSYNCH
280
1
  9
$CMATERIAL
347
20
  9
$SOLIDHIST
280
0
  9
$SHOWHIST
280
1
  9
$DWFFRAME
280
2
  9
$DGNFRAME
280
2
  9
$REALWORLDSCALE
290
1
  9
$INTERFERECOLOR
 62
256
  9
$CSHADOW
280
0
  9
$SHADOWPLANELOCATION
 40
0.0
  0
ENDSEC
  0
SECTION
  2
CLASSES
  0
CLASS
  1
ACDBDICTIONARYWDFLT
  2
AcDbDictionaryWithDefault
  3
ObjectDBX Classes
 90
0
 91
0
280
0
281
0
  0
CLASS
  1
SUN
  2
AcDbSun
  3
SCENEOE
 90
1153
 91
0
280
0
281
0
  0
CLASS
  1
VISUALSTYLE
  2
AcDbVisualStyle
  3
ObjectDBX Classes
 90
4095
 91
0
280
0
281
0
  0
CLASS
  1
MATERIAL
  2
AcDbMaterial
  3
ObjectDBX Classes
 90
1153
 91
0
280
0
281
0
  0
CLASS
  1
SCALE
  2
AcDbScale
  3
ObjectDBX Classes
 90
1153
 91
0
280
0
281
0
  0
CLASS
  1
TABLESTYLE
  2
AcDbTableStyle
  3
ObjectDBX Classes
 90
4095
 91
0
280
0
281
0
  0
CLASS
  1
MLEADERSTYLE
  2
AcDbMLeaderStyle
  3
ACDB_MLEADERSTYLE_CLASS
 90
4095
 91
0
280
0
281
0
  0
CLASS
  1
DICTIONARYVAR
  2
AcDbDictionaryVar
  3
ObjectDBX Classes
 90
0
 91
0
280
0
281
0
  0
CLASS
  1
CELLSTYLEMAP
  2
AcDbCellStyleMap
  3
ObjectDBX Classes
 90
1152
 91
0
280
0
281
0
  0
CLASS
  1
MENTALRAYRENDERSETTINGS
  2
AcDbMentalRayRenderSettings
  3
SCENEOE
 90
1024
 91
0
280
0
281
0
  0
CLASS
  1
ACDBDETAILVIEWSTYLE
  2
AcDbDetailViewStyle
  3
ObjectDBX Classes
 90
1025
 91
0
280
0
281
0
  0
CLASS
  1
ACDBSECTIONVIEWSTYLE
  2
AcDbSectionViewStyle
  3
ObjectDBX Classes
 90
1025
 91
0
280
0
281
0
  0
CLASS
  1
RASTERVARIABLES
  2
AcDbRasterVariables
  3
ISM
 90
0
 91
0
280
0
281
0
  0
CLASS
  1
LAYOUT
  2
AcDbLayout
  3
ObjectDBX Classes
 90
0
 91
0
280
0
281
0
  0
CLASS
  1
ACDBPLACEHOLDER
  2
AcDbPlaceHolder
  3
ObjectDBX Classes
 90
0
 91
0
280
0
281
0
  0
ENDSEC
  0
SECTION
  2
TABLES
  0
TABLE
  2
VPORT
  5
8
330
0
100
AcDbSymbolTable
 70
1
  0
VPORT
  5
23
330
8
100
AcDbSymbolTableRecord
100
AcDbViewportTableRecord
  2
*Active
 70
0
 10
0.0
 20
0.0
 11
1.0
 21
1.0
 12
0.0
 22
0.0
 13
0.0
 23
0.0
 14
0.5
 24
0.5
 15
0.5
 25
0.5
 16
0.0
 26
0.0
 36
1.0
 17
0.0
 27
0.0
 37
0.0
 40
1000.0
 41
1.34
 42
50.0
 43
0.0
 44
0.0
 50
0.0
 51
0.0
 71
0
 72
1000
 73
1
 74
3
 75
0
 76
0
 77
0
 78
0
281
0
 65
0
146
0.0
  0
ENDTAB
  0
TABLE
  2
LTYPE
  5
2
330
0
100
AcDbSymbolTable
 70
3
  0
LTYPE
  5
24
330
2
100
AcDbSymbolTableRecord
100
AcDbLinetypeTableRecord
  2
ByBlock
 70
0
  3

 72
65
 73
0
 40
0.0
  0
LTYPE
  5
25
330
2
100
AcDbSymbolTableRecord
100
AcDbLinetypeTableRecord
  2
ByLayer
 70
0
  3

 72
65
 73
0
 40
0.0
  0
LTYPE
  5
26
330
2
100
AcDbSymbolTableRecord
100
AcDbLinetypeTableRecord
  2
Continuous
 70
0
  3

 72
65
 73
0
 40
0.0
  0
ENDTAB
  0
TABLE
  2
LAYER
  5
1
330
0
100
AcDbSymbolTable
 70
3
  0
LAYER
  5
27
330
1
100
AcDbSymbolTableRecord
100
AcDbLayerTableRecord
  2
0
 70
0
 62
7
  6
Continuous
370
-3
390
13
347
21
  0
LAYER
  5
28
330
1
100
AcDbSymbolTableRecord
100
AcDbLayerTableRecord
  2
Defpoints
 70
0
 62
7
  6
Continuous
290
0
370
-3
390
13
347
21
  0
LAYER
  5
2F
330
1
100
AcDbSymbolTableRecord
100
AcDbLayerTableRecord
  2
lens_outline
 70
0
 62
7
  6
Continuous
370
-3
390
13
347
21
  0
ENDTAB
  0
TABLE
  2
STYLE
  5
5
330
0
100
AcDbSymbolTable
 70
1
  0
STYLE
  5
29
330
5
100
AcDbSymbolTableRecord
100
AcDbTextStyleTableRecord
  2
Standard
 70
0
 40
0.0
 41
1.0
 50
0.0
 71
0
 42
2.5
  3
txt
  4

  0
ENDTAB
  0
TABLE
  2
VIEW
  5
7
330
0
100
AcDbSymbolTable
 70
0
  0
ENDTAB
  0
TABLE
  2
UCS
  5
6
330
0
100
AcDbSymbolTable
 70
0
  0
ENDTAB
  0
TABLE
  2
APPID
  5
3
330
0
100
AcDbSymbolTable
 70
3
  0
APPID
  5
2A
330
3
100
AcDbSymbolTableRecord
100
AcDbRegAppTableRecord
  2
ACAD
 70
0
  0
APPID
  5
268
330
3
100
AcDbSymbolTableRecord
100
AcDbRegAppTableRecord
  2
HATCHBACKGROUNDCOLOR
 70
0
  0
APPID
  5
269
330
3
100
AcDbSymbolTableRecord
100
AcDbRegAppTableRecord
  2
EZDXF
 70
0
  0
ENDTAB
  0
TABLE
  2
DIMSTYLE
  5
4
330
0
100
AcDbSymbolTable
 70
1
100
AcDbDimStyleTable
  0
DIMSTYLE
105
2B
330
4
100
AcDbSymbolTableRecord
100
AcDbDimStyleTableRecord
  2
Standard
 70
0
 40
1.0
 41
2.5
 42
0.625
 43
3.75
 44
1.25
 45
0.0
 46
0.0
 47
0.0
 48
0.0
 49
2.5
140
2.5
141
2.5
142
0.0
143
0.03937007874
144
1.0
145
0.0
146
1.0
147
0.625
148
0.0
 69
0
 70
0
 71
0
 72
0
 73
0
 74
0
 75
0
 76
0
 77
1
 78
8
 79
3
170
0
171
3
172
1
173
0
174
0
175
0
176
0
177
0
178
0
179
2
271
2
272
2
273
2
274
3
275
0
276
0
277
2
278
44
279
0
280
0
281
0
282
0
283
0
284
8
285
0
286
0
288
0
289
3
290
0
371
-2
372
-2
  0
ENDTAB
  0
TABLE
  2
BLOCK_RECORD
  5
9
330
0
100
AcDbSymbolTable
 70
2
  0
BLOCK_RECORD
  5
17
330
9
100
AcDbSymbolTableRecord
100
AcDbBlockTableRecord
  2
*Model_Space
340
1A
 70
0
280
1
281
0
  0
BLOCK_RECORD
  5
1B
330
9
100
AcDbSymbolTableRecord
100
AcDbBlockTableRecord
  2
*Paper_Space
340
1E
 70
0
280
1
281
0
  0
ENDTAB
  0
ENDSEC
  0
SECTION
  2
BLOCKS
  0
BLOCK
  5
18
330
17
100
AcDbEntity
  8
0
100
AcDbBlockBegin
  2
*Model_Space
 70
0
 10
0.0
 20
0.0
 30
0.0
  3
*Model_Space
  1

  0
ENDBLK
  5
19
330
17
100
AcDbEntity
  8
0
100
AcDbBlockEnd
  0
BLOCK
  5
1C
330
1B
100
AcDbEntity
  8
0
100
AcDbBlockBegin
  2
*Paper_Space
 70
0
 10
0.0
 20
0.0
 30
0.0
  3
*Paper_Space
  1

  0
ENDBLK
  5
1D
330
1B
100
AcDbEntity
  8
0
100
AcDbBlockEnd
  0
ENDSEC
  0
SECTION
  2
ENTITIES
  0
LINE
  5
30
330
17
100
AcDbEntity
  8
lens_outline
370
-3
100
AcDbLine
 10
78.77891156462586
 20
113.03061224489797
 30
0.0
 11
78.59863945578232
 21
113.2108843537415
 31
0.0
  0
LINE
  5
31
330
17
100
AcDbEntity
  8
lens_outline
370
-3
100
AcDbLine
 10
78.59863945578232
 20
113.2108843537415
 30
0.0
 11
72.28911564625851
 21
113.2108843537415
 31
0.0
  0
LINE
  5
32
330
17
100
AcDbEntity
  8
lens_outline
370
-3
100
AcDbLine
 10
72.28911564625851
 20
113.2108843537415
 30
0.0
 11
72.10884353741497
 21
113.39115646258504
 31
0.0
  0
LINE
  5
33
330
17
100
AcDbEntity
  8
lens_outline
370
-3
100
AcDbLine
 10
72.10884353741497
 20
113.39115646258504
 30
0.0
 11
70.84693877551021
 21
113.39115646258504
 31
0.0
  0
LINE
  5
34
330
17
100
AcDbEntity
  8
lens_outline
370
-3
100
AcDbLine
 10
70.84693877551021
 20
113.39115646258504
 30
0.0
 11
70.66666666666667
 21
113.57142857142857
 31
0.0
  0
LINE
  5
35
330
17
100
AcDbEntity
  8
lens_outline
370
-3
100
AcDbLine
 10
70.66666666666667
 20
113.57142857142857
 30
0.0
 11
69.40476190476191
 21
113.57142857142857
 31
0.0
  0
LINE
  5
36
330
17
100
AcDbEntity
  8
lens_outline
370
-3
100
AcDbLine
 10
69.40476190476191
 20
113.57142857142857
 30
0.0
 11
69.22448979591837
 21
113.75170068027211
 31
0.0
  0
LINE
  5
37
330
17
100
AcDbEntity
  8
lens_outline
370
-3
100
AcDbLine
 10
69.22448979591837
 20
113.75170068027211
 30
0.0
 11
68.50340136054422
 21
113.75170068027211
 31
0.0
  0
LINE
  5
38
330
17
100
AcDbEntity
  8
lens_outline
370
-3
100
AcDbLine
 10
68.50340136054422
 20
113.75170068027211
 30
0.0
 11
68.32312925170068
 21
113.93197278911565
 31
0.0
  0
LINE
  5
39
330
17
100
AcDbEntity
  8
lens_outline
370
-3
100
AcDbLine
 10
68.32312925170068
 20
113.93197278911565
 30
0.0
 11
67.24149659863946
 21
113.93197278911565
 31
0.0
  0
LINE
  5
3A
330
17
100
AcDbEntity
  8
lens_outline
370
-3
100
AcDbLine
 10
67.24149659863946
 20
113.93197278911565
 30
0.0
 11
67.06122448979592
 21
114.11224489795919
 31
0.0
  0
LINE
  5
3B
330
17
100
AcDbEntity
  8
lens_outline
370
-3
100
AcDbLine
 10
67.06122448979592
 20
114.11224489795919
 30
0.0
 11
66.70068027210884
 21
114.11224489795919
 31
0.0
  0
LINE
  5
3C
330
17
100
AcDbEntity
  8
lens_outline
370
-3
100
AcDbLine
 10
66.70068027210884
 20
114.11224489795919
 30
0.0
 11
66.5204081632653
 21
114.29251700680273
 31
0.0
  0
LINE
  5
3D
330
17
100
AcDbEntity
  8
lens_outline
370
-3
100
AcDbLine
 10
66.5204081632653
 20
114.29251700680273
 30
0.0
 11
65.61904761904762
 21
114.29251700680273
 31
0.0
  0
LINE
  5
3E
330
17
100
AcDbEntity
  8
lens_outline
370
-3
100
AcDbLine
 10
65.61904761904762
 20
114.29251700680273
 30
0.0
 11
65.43877551020408
 21
114.47278911564626
 31
0.0
  0
LINE
  5
3F
330
17
100
AcDbEntity
  8
lens_outline
370
-3
100
AcDbLine
 10
65.43877551020408
 20
114.47278911564626
 30
0.0
 11
64.89795918367348
 21
114.47278911564626
 31
0.0
  0
LINE
  5
40
330
17
100
AcDbEntity
  8
lens_outline
370
-3
100
AcDbLine
 10
64.89795918367348
 20
114.47278911564626
 30
0.0
 11
64.71768707482994
 21
114.6530612244898
 31
0.0
  0
LINE
  5
41
330
17
100
AcDbEntity
  8
lens_outline
370
-3
100
AcDbLine
 10
64.71768707482994
 20
114.6530612244898
 30
0.0
 11
64.17687074829932
 21
114.6530612244898
 31
0.0
  0
LINE
  5
42
330
17
100
AcDbEntity
  8
lens_outline
370
-3
100
AcDbLine
 10
64.17687074829932
 20
114.6530612244898
 30
0.0
 11
63.99659863945578
 21
114.83333333333334
 31
0.0
  0
LINE
  5
43
330
17
100
AcDbEntity
  8
lens_outline
370
-3
100
AcDbLine
 10
63.99659863945578
 20
114.83333333333334
 30
0.0
 11
63.45578231292517
 21
114.83333333333334
 31
0.0
  0
LINE
  5
44
330
17
100
AcDbEntity
  8
lens_outline
370
-3
100
AcDbLine
 10
63.45578231292517
 20
114.83333333333334
 30
0.0
 11
63.275510204081634
 21
115.01360544217687
 31
0.0
  0
LINE
  5
45
330
17
100
AcDbEntity
  8
lens_outline
370
-3
100
AcDbLine
 10
63.275510204081634
 20
115.01360544217687
 30
0.0
 11
62.554421768707485
 21
115.01360544217687
 31
0.0
  0
LINE
  5
46
330
17
100
AcDbEntity
  8
lens_outline
370
-3
100
AcDbLine
 10
62.554421768707485
 20
115.01360544217687
 30
0.0
 11
62.374149659863946
 21
115.1938775510204
 31
0.0
  0
LINE
  5
47
330
17
100
AcDbEntity
  8
lens_outline
370
-3
100
AcDbLine
 10
62.374149659863946
 20
115.1938775510204
 30
0.0
 11
62.013605442176875
 21
115.1938775510204
 31
0.0
  0
LINE
  5
48
330
17
100
AcDbEntity
  8
lens_outline
370
-3
100
AcDbLine
 10
62.013605442176875
 20
115.1938775510204
 30
0.0
 11
61.833333333333336
 21
115.37414965986395
 31
0.0
  0
LINE
  5
49
330
17
100
AcDbEntity
  8
lens_outline
370
-3
100
AcDbLine
 10
61.833333333333336
 20
115.37414965986395
 30
0.0
 11
61.47278911564626
 21
115.37414965986395
 31
0.0
  0
LINE
  5
4A
330
17
100
AcDbEntity
  8
lens_outline
370
-3
100
AcDbLine
 10
61.47278911564626
 20
115.37414965986395
 30
0.0
 11
61.292517006802726
 21
115.55442176870748
 31
0.0
  0
LINE
  5
4B
330
17
100
AcDbEntity
  8
lens_outline
370
-3
100
AcDbLine
 10
61.292517006802726
 20
115.55442176870748
 30
0.0
 11
60.75170068027211
 21
115.55442176870748
 31
0.0
  0
LINE
  5
4C
330
17
100
AcDbEntity
  8
lens_outline
370
-3
100
AcDbLine
 10
60.75170068027211
 20
115.55442176870748
 30
0.0
 11
60.57142857142858
 21
115.73469387755102
 31
0.0
  0
LINE
  5
4D
330
17
100
AcDbEntity
  8
lens_outline
370
-3
100
AcDbLine
 10
60.57142857142858
 20
115.73469387755102
 30
0.0
 11
60.2108843537415
 21
115.73469387755102
 31
0.0
  0
LINE
  5
4E
330
17
100
AcDbEntity
  8
lens_outline
370
-3
100
AcDbLine
 10
60.2108843537415
 20
115.73469387755102
 30
0.0
 11
60.03061224489796
 21
115.91496598639456
 31
0.0
  0
LINE
  5
4F
330
17
100
AcDbEntity
  8
lens_outline
370
-3
100
AcDbLine
 10
60.03061224489796
 20
115.91496598639456
 30
0.0
 11
59.67006802721089
 21
115.91496598639456
 31
0.0
  0
LINE
  5
50
330
17
100
AcDbEntity
  8
lens_outline
370
-3
100
AcDbLine
 10
59.67006802721089
 20
115.91496598639456
 30
0.0
 11
59.48979591836735
 21
116.0952380952381
 31
0.0
  0
LINE
  5
51
330
17
100
AcDbEntity
  8
lens_outline
370
-3
100
AcDbLine
 10
59.48979591836735
 20
116.0952380952381
 30
0.0
 11
59.12925170068027
 21
116.0952380952381
 31
0.0
  0
LINE
  5
52
330
17
100
AcDbEntity
  8
lens_outline
370
-3
100
AcDbLine
 10
59.12925170068027
 20
116.0952380952381
 30
0.0
 11
58.94897959183674
 21
116.27551020408164
 31
0.0
  0
LINE
  5
53
330
17
100
AcDbEntity
  8
lens_outline
370
-3
100
AcDbLine
 10
58.94897959183674
 20
116.27551020408164
 30
0.0
 11
58.58843537414966
 21
116.27551020408164
 31
0.0
  0
LINE
  5
54
330
17
100
AcDbEntity
  8
lens_outline
370
-3
100
AcDbLine
 10
58.58843537414966
 20
116.27551020408164
 30
0.0
 11
58.40816326530612
 21
116.45578231292518
 31
0.0
  0
LINE
  5
55
330
17
100
AcDbEntity
  8
lens_outline
370
-3
100
AcDbLine
 10
58.40816326530612
 20
116.45578231292518
 30
0.0
 11
58.04761904761905
 21
116.45578231292518
 31
0.0
  0
LINE
  5
56
330
17
100
AcDbEntity
  8
lens_outline
370
-3
100
AcDbLine
 10
58.04761904761905
 20
116.45578231292518
 30
0.0
 11
57.86734693877551
 21
116.6360544217687
 31
0.0
  0
LINE
  5
57
330
17
100
AcDbEntity
  8
lens_outline
370
-3
100
AcDbLine
 10
57.86734693877551
 20
116.6360544217687
 30
0.0
 11
57.68707482993197
 21
116.6360544217687
 31
0.0
  0
LINE
  5
58
330
17
100
AcDbEntity
  8
lens_outline
370
-3
100
AcDbLine
 10
57.68707482993197
 20
116.6360544217687
 30
0.0
 11
57.3265306122449
 21
116.99659863945578
 31
0.0
  0
LINE
  5
59
330
17
100
AcDbEntity
  8
lens_outline
370
-3
100
AcDbLine
 10
57.3265306122449
 20
116.99659863945578
 30
0.0
 11
56.965986394557824
 21
116.99659863945578
 31
0.0
  0
LINE
  5
5A
330
17
100
AcDbEntity
  8
lens_outline
370
-3
100
AcDbLine
 10
56.965986394557824
 20
116.99659863945578
 30
0.0
 11
56.60544217687075
 21
117.35714285714286
 31
0.0
  0
LINE
  5
5B
330
17
100
AcDbEntity
  8
lens_outline
370
-3
100
AcDbLine
 10
56.60544217687075
 20
117.35714285714286
 30
0.0
 11
56.60544217687075
 21
117.5374149659864
 31
0.0
  0
LINE
  5
5C
330
17
100
AcDbEntity
  8
lens_outline
370
-3
100
AcDbLine
 10
56.60544217687075
 20
117.5374149659864
 30
0.0
 11
56.425170068027214
 21
117.71768707482994
 31
0.0
  0
LINE
  5
5D
330
17
100
AcDbEntity
  8
lens_outline
370
-3
100
AcDbLine
 10
56.425170068027214
 20
117.71768707482994
 30
0.0
 11
56.425170068027214
 21
118.07823129251702
 31
0.0
  0
LINE
  5
5E
330
17
100
AcDbEntity
  8
lens_outline
370
-3
100
AcDbLine
 10
56.425170068027214
 20
118.07823129251702
 30
0.0
 11
56.244897959183675
 21
118.25850340136054
 31
0.0
  0
LINE
  5
5F
330
17
100
AcDbEntity
  8
lens_outline
370
-3
100
AcDbLine
 10
56.244897959183675
 20
118.25850340136054
 30
0.0
 11
56.244897959183675
 21
118.61904761904762
 31
0.0
  0
LINE
  5
60
330
17
100
AcDbEntity
  8
lens_outline
370
-3
100
AcDbLine
 10
56.244897959183675
 20
118.61904761904762
 30
0.0
 11
56.064625850340136
 21
118.79931972789116
 31
0.0
  0
LINE
  5
61
330
17
100
AcDbEntity
  8
lens_outline
370
-3
100
AcDbLine
 10
56.064625850340136
 20
118.79931972789116
 30
0.0
 11
56.064625850340136
 21
119.15986394557824
 31
0.0
  0
LINE
  5
62
330
17
100
AcDbEntity
  8
lens_outline
370
-3
100
AcDbLine
 10
56.064625850340136
 20
119.15986394557824
 30
0.0
 11
55.884353741496604
 21
119.34013605442178
 31
0.0
  0
LINE
  5
63
330
17
100
AcDbEntity
  8
lens_outline
370
-3
100
AcDbLine
 10
55.884353741496604
 20
119.34013605442178
 30
0.0
 11
55.884353741496604
 21
119.88095238095238
 31
0.0
  0
LINE
  5
64
330
17
100
AcDbEntity
  8
lens_outline
370
-3
100
AcDbLine
 10
55.884353741496604
 20
119.88095238095238
 30
0.0
 11
55.704081632653065
 21
120.06122448979592
 31
0.0
  0
LINE
  5
65
330
17
100
AcDbEntity
  8
lens_outline
370
-3
100
AcDbLine
 10
55.704081632653065
 20
120.06122448979592
 30
0.0
 11
55.704081632653065
 21
120.421768707483
 31
0.0
  0
LINE
  5
66
330
17
100
AcDbEntity
  8
lens_outline
370
-3
100
AcDbLine
 10
55.704081632653065
 20
120.421768707483
 30
0.0
 11
55.523809523809526
 21
120.60204081632654
 31
0.0
  0
LINE
  5
67
330
17
100
AcDbEntity
  8
lens_outline
370
-3
100
AcDbLine
 10
55.523809523809526
 20
120.60204081632654
 30
0.0
 11
55.523809523809526
 21
121.14285714285715
 31
0.0
  0
LINE
  5
68
330
17
100
AcDbEntity
  8
lens_outline
370
-3
100
AcDbLine
 10
55.523809523809526
 20
121.14285714285715
 30
0.0
 11
55.343537414965986
 21
121.32312925170068
 31
0.0
  0
LINE
  5
69
330
17
100
AcDbEntity
  8
lens_outline
370
-3
100
AcDbLine
 10
55.343537414965986
 20
121.32312925170068
 30
0.0
 11
55.343537414965986
 21
122.04421768707483
 31
0.0
  0
LINE
  5
6A
330
17
100
AcDbEntity
  8
lens_outline
370
-3
100
AcDbLine
 10
55.343537414965986
 20
122.04421768707483
 30
0.0
 11
55.16326530612245
 21
122.22448979591837
 31
0.0
  0
LINE
  5
6B
330
17
100
AcDbEntity
  8
lens_outline
370
-3
100
AcDbLine
 10
55.16326530612245
 20
122.22448979591837
 30
0.0
 11
55.16326530612245
 21
123.84693877551021
 31
0.0
  0
LINE
  5
6C
330
17
100
AcDbEntity
  8
lens_outline
370
-3
100
AcDbLine
 10
55.16326530612245
 20
123.84693877551021
 30
0.0
 11
54.982993197278915
 21
124.02721088435375
 31
0.0
  0
LINE
  5
6D
330
17
100
AcDbEntity
  8
lens_outline
370
-3
100
AcDbLine
 10
54.982993197278915
 20
124.02721088435375
 30
0.0
 11
54.982993197278915
 21
126.37074829931973
 31
0.0
  0
LINE
  5
6E
330
17
100
AcDbEntity
  8
lens_outline
370
-3
100
AcDbLine
 10
54.982993197278915
 20
126.37074829931973
 30
0.0
 11
55.16326530612245
 21
126.55102040816327
 31
0.0
  0
LINE
  5
6F
330
17
100
AcDbEntity
  8
lens_outline
370
-3
100
AcDbLine
 10
55.16326530612245
 20
126.55102040816327
 30
0.0
 11
55.16326530612245
 21
128.89455782312925
 31
0.0
  0
LINE
  5
70
330
17
100
AcDbEntity
  8
lens_outline
370
-3
100
AcDbLine
 10
55.16326530612245
 20
128.89455782312925
 30
0.0
 11
55.343537414965986
 21
129.0748299319728
 31
0.0
  0
LINE
  5
71
330
17
100
AcDbEntity
  8
lens_outline
370
-3
100
AcDbLine
 10
55.343537414965986
 20
129.0748299319728
 30
0.0
 11
55.343537414965986
 21
129.97619047619048
 31
0.0
  0
LINE
  5
72
330
17
100
AcDbEntity
  8
lens_outline
370
-3
100
AcDbLine
 10
55.343537414965986
 20
129.97619047619048
 30
0.0
 11
55.523809523809526
 21
130.156462585034
 31
0.0
  0
LINE
  5
73
330
17
100
AcDbEntity
  8
lens_outline
370
-3
100
AcDbLine
 10
55.523809523809526
 20
130.156462585034
 30
0.0
 11
55.523809523809526
 21
131.05782312925172
 31
0.0
  0
LINE
  5
74
330
17
100
AcDbEntity
  8
lens_outline
370
-3
100
AcDbLine
 10
55.523809523809526
 20
131.05782312925172
 30
0.0
 11
55.704081632653065
 21
131.23809523809524
 31
0.0
  0
LINE
  5
75
330
17
100
AcDbEntity
  8
lens_outline
370
-3
100
AcDbLine
 10
55.704081632653065
 20
131.23809523809524
 30
0.0
 11
55.704081632653065
 21
131.77891156462584
 31
0.0
  0
LINE
  5
76
330
17
100
AcDbEntity
  8
lens_outline
370
-3
100
AcDbLine
 10
55.704081632653065
 20
131.77891156462584
 30
0.0
 11
55.884353741496604
 21
131.9591836734694
 31
0.0
  0
LINE
  5
77
330
17
100
AcDbEntity
  8
lens_outline
370
-3
100
AcDbLine
 10
55.884353741496604
 20
131.9591836734694
 30
0.0
 11
55.884353741496604
 21
132.5
 31
0.0
  0
LINE
  5
78
330
17
100
AcDbEntity
  8
lens_outline
370
-3
100
AcDbLine
 10
55.884353741496604
 20
132.5
 30
0.0
 11
56.064625850340136
 21
132.68027210884355
 31
0.0
  0
LINE
  5
79
330
17
100
AcDbEntity
  8
lens_outline
370
-3
100
AcDbLine
 10
56.064625850340136
 20
132.68027210884355
 30
0.0
 11
56.064625850340136
 21
133.0408163265306
 31
0.0
  0
LINE
  5
7A
330
17
100
AcDbEntity
  8
lens_outline
370
-3
100
AcDbLine
 10
56.064625850340136
 20
133.0408163265306
 30
0.0
 11
56.244897959183675
 21
133.22108843537416
 31
0.0
  0
LINE
  5
7B
330
17
100
AcDbEntity
  8
lens_outline
370
-3
100
AcDbLine
 10
56.244897959183675
 20
133.22108843537416
 30
0.0
 11
56.244897959183675
 21
133.40136054421768
 31
0.0
  0
LINE
  5
7C
330
17
100
AcDbEntity
  8
lens_outline
370
-3
100
AcDbLine
 10
56.244897959183675
 20
133.40136054421768
 30
0.0
 11
56.425170068027214
 21
133.58163265306123
 31
0.0
  0
LINE
  5
7D
330
17
100
AcDbEntity
  8
lens_outline
370
-3
100
AcDbLine
 10
56.425170068027214
 20
133.58163265306123
 30
0.0
 11
56.425170068027214
 21
133.9421768707483
 31
0.0
  0
LINE
  5
7E
330
17
100
AcDbEntity
  8
lens_outline
370
-3
100
AcDbLine
 10
56.425170068027214
 20
133.9421768707483
 30
0.0
 11
56.60544217687075
 21
134.12244897959184
 31
0.0
  0
LINE
  5
7F
330
17
100
AcDbEntity
  8
lens_outline
370
-3
100
AcDbLine
 10
56.60544217687075
 20
134.12244897959184
 30
0.0
 11
56.60544217687075
 21
134.3027210884354
 31
0.0
  0
LINE
  5
80
330
17
100
AcDbEntity
  8
lens_outline
370
-3
100
AcDbLine
 10
56.60544217687075
 20
134.3027210884354
 30
0.0
 11
56.785714285714285
 21
134.48299319727892
 31
0.0
  0
LINE
  5
81
330
17
100
AcDbEntity
  8
lens_outline
370
-3
100
AcDbLine
 10
56.785714285714285
 20
134.48299319727892
 30
0.0
 11
56.785714285714285
 21
134.66326530612244
 31
0.0
  0
LINE
  5
82
330
17
100
AcDbEntity
  8
lens_outline
370
-3
100
AcDbLine
 10
56.785714285714285
 20
134.66326530612244
 30
0.0
 11
56.965986394557824
 21
134.843537414966
 31
0.0
  0
LINE
  5
83
330
17
100
AcDbEntity
  8
lens_outline
370
-3
100
AcDbLine
 10
56.965986394557824
 20
134.843537414966
 30
0.0
 11
56.965986394557824
 21
135.02380952380952
 31
0.0
  0
LINE
  5
84
330
17
100
AcDbEntity
  8
lens_outline
370
-3
100
AcDbLine
 10
56.965986394557824
 20
135.02380952380952
 30
0.0
 11
57.14625850340136
 21
135.20408163265307
 31
0.0
  0
LINE
  5
85
330
17
100
AcDbEntity
  8
lens_outline
370
-3
100
AcDbLine
 10
57.14625850340136
 20
135.20408163265307
 30
0.0
 11
57.14625850340136
 21
135.74489795918367
 31
0.0
  0
LINE
  5
86
330
17
100
AcDbEntity
  8
lens_outline
370
-3
100
AcDbLine
 10
57.14625850340136
 20
135.74489795918367
 30
0.0
 11
57.506802721088434
 21
136.10544217687075
 31
0.0
  0
LINE
  5
87
330
17
100
AcDbEntity
  8
lens_outline
370
-3
100
AcDbLine
 10
57.506802721088434
 20
136.10544217687075
 30
0.0
 11
57.506802721088434
 21
136.28571428571428
 31
0.0
  0
LINE
  5
88
330
17
100
AcDbEntity
  8
lens_outline
370
-3
100
AcDbLine
 10
57.506802721088434
 20
136.28571428571428
 30
0.0
 11
57.68707482993197
 21
136.46598639455783
 31
0.0
  0
LINE
  5
89
330
17
100
AcDbEntity
  8
lens_outline
370
-3
100
AcDbLine
 10
57.68707482993197
 20
136.46598639455783
 30
0.0
 11
57.68707482993197
 21
136.64625850340136
 31
0.0
  0
LINE
  5
8A
330
17
100
AcDbEntity
  8
lens_outline
370
-3
100
AcDbLine
 10
57.68707482993197
 20
136.64625850340136
 30
0.0
 11
57.86734693877551
 21
136.8265306122449
 31
0.0
  0
LINE
  5
8B
330
17
100
AcDbEntity
  8
lens_outline
370
-3
100
AcDbLine
 10
57.86734693877551
 20
136.8265306122449
 30
0.0
 11
57.86734693877551
 21
137.00680272108843
 31
0.0
  0
LINE
  5
8C
330
17
100
AcDbEntity
  8
lens_outline
370
-3
100
AcDbLine
 10
57.86734693877551
 20
137.00680272108843
 30
0.0
 11
58.22789115646259
 21
137.3673469387755
 31
0.0
  0
LINE
  5
8D
330
17
100
AcDbEntity
  8
lens_outline
370
-3
100
AcDbLine
 10
58.22789115646259
 20
137.3673469387755
 30
0.0
 11
58.22789115646259
 21
137.54761904761907
 31
0.0
  0
LINE
  5
8E
330
17
100
AcDbEntity
  8
lens_outline
370
-3
100
AcDbLine
 10
58.22789115646259
 20
137.54761904761907
 30
0.0
 11
58.40816326530612
 21
137.7278911564626
 31
0.0
  0
LINE
  5
8F
330
17
100
AcDbEntity
  8
lens_outline
370
-3
100
AcDbLine
 10
58.40816326530612
 20
137.7278911564626
 30
0.0
 11
58.40816326530612
 21
137.90816326530611
 31
0.0
  0
LINE
  5
90
330
17
100
AcDbEntity
  8
lens_outline
370
-3
100
AcDbLine
 10
58.40816326530612
 20
137.90816326530611
 30
0.0
 11
58.94897959183674
 21
138.44897959183675
 31
0.0
  0
LINE
  5
91
330
17
100
AcDbEntity
  8
lens_outline
370
-3
100
AcDbLine
 10
58.94897959183674
 20
138.44897959183675
 30
0.0
 11
58.94897959183674
 21
138.62925170068027
 31
0.0
  0
LINE
  5
92
330
17
100
AcDbEntity
  8
lens_outline
370
-3
100
AcDbLine
 10
58.94897959183674
 20
138.62925170068027
 30
0.0
 11
59.67006802721089
 21
139.35034013605443
 31
0.0
  0
LINE
  5
93
330
17
100
AcDbEntity
  8
lens_outline
370
-3
100
AcDbLine
 10
59.67006802721089
 20
139.35034013605443
 30
0.0
 11
59.85034013605442
 21
139.35034013605443
 31
0.0
  0
LINE
  5
94
330
17
100
AcDbEntity
  8
lens_outline
370
-3
100
AcDbLine
 10
59.85034013605442
 20
139.35034013605443
 30
0.0
 11
60.03061224489796
 21
139.53061224489795
 31
0.0
  0
LINE
  5
95
330
17
100
AcDbEntity
  8
lens_outline
370
-3
100
AcDbLine
 10
60.03061224489796
 20
139.53061224489795
 30
0.0
 11
60.03061224489796
 21
139.7108843537415
 31
0.0
  0
LINE
  5
96
330
17
100
AcDbEntity
  8
lens_outline
370
-3
100
AcDbLine
 10
60.03061224489796
 20
139.7108843537415
 30
0.0
 11
60.39115646258504
 21
140.07142857142858
 31
0.0
  0
LINE
  5
97
330
17
100
AcDbEntity
  8
lens_outline
370
-3
100
AcDbLine
 10
60.39115646258504
 20
140.07142857142858
 30
0.0
 11
60.57142857142858
 21
140.07142857142858
 31
0.0
  0
LINE
  5
98
330
17
100
AcDbEntity
  8
lens_outline
370
-3
100
AcDbLine
 10
60.57142857142858
 20
140.07142857142858
 30
0.0
 11
60.93197278911565
 21
140.43197278911566
 31
0.0
  0
LINE
  5
99
330
17
100
AcDbEntity
  8
lens_outline
370
-3
100
AcDbLine
 10
60.93197278911565
 20
140.43197278911566
 30
0.0
 11
60.93197278911565
 21
140.6122448979592
 31
0.0
  0
LINE
  5
9A
330
17
100
AcDbEntity
  8
lens_outline
370
-3
100
AcDbLine
 10
60.93197278911565
 20
140.6122448979592
 30
0.0
 11
61.6530612244898
 21
141.33333333333334
 31
0.0
  0
LINE
  5
9B
330
17
100
AcDbEntity
  8
lens_outline
370
-3
100
AcDbLine
 10
61.6530612244898
 20
141.33333333333334
 30
0.0
 11
61.833333333333336
 21
141.33333333333334
 31
0.0
  0
LINE
  5
9C
330
17
100
AcDbEntity
  8
lens_outline
370
-3
100
AcDbLine
 10
61.833333333333336
 20
141.33333333333334
 30
0.0
 11
62.554421768707485
 21
142.0544217687075
 31
0.0
  0
LINE
  5
9D
330
17
100
AcDbEntity
  8
lens_outline
370
-3
100
AcDbLine
 10
62.554421768707485
 20
142.0544217687075
 30
0.0
 11
62.91496598639456
 21
142.0544217687075
 31
0.0
  0
LINE
  5
9E
330
17
100
AcDbEntity
  8
lens_outline
370
-3
100
AcDbLine
 10
62.91496598639456
 20
142.0544217687075
 30
0.0
 11
63.095238095238095
 21
142.23469387755102
 31
0.0
  0
LINE
  5
9F
330
17
100
AcDbEntity
  8
lens_outline
370
-3
100
AcDbLine
 10
63.095238095238095
 20
142.23469387755102
 30
0.0
 11
63.275510204081634
 21
142.23469387755102
 31
0.0
  0
LINE
  5
A0
330
17
100
AcDbEntity
  8
lens_outline
370
-3
100
AcDbLine
 10
63.275510204081634
 20
142.23469387755102
 30
0.0
 11
63.63605442176871
 21
142.5952380952381
 31
0.0
  0
LINE
  5
A1
330
17
100
AcDbEntity
  8
lens_outline
370
-3
100
AcDbLine
 10
63.63605442176871
 20
142.5952380952381
 30
0.0
 11
63.816326530612244
 21
142.5952380952381
 31
0.0
  0
LINE
  5
A2
330
17
100
AcDbEntity
  8
lens_outline
370
-3
100
AcDbLine
 10
63.816326530612244
 20
142.5952380952381
 30
0.0
 11
63.99659863945578
 21
142.77551020408163
 31
0.0
  0
LINE
  5
A3
330
17
100
AcDbEntity
  8
lens_outline
370
-3
100
AcDbLine
 10
63.99659863945578
 20
142.77551020408163
 30
0.0
 11
64.35714285714286
 21
142.77551020408163
 31
0.0
  0
LINE
  5
A4
330
17
100
AcDbEntity
  8
lens_outline
370
-3
100
AcDbLine
 10
64.35714285714286
 20
142.77551020408163
 30
0.0
 11
64.71768707482994
 21
143.1360544217687
 31
0.0
  0
LINE
  5
A5
330
17
100
AcDbEntity
  8
lens_outline
370
-3
100
AcDbLine
 10
64.71768707482994
 20
143.1360544217687
 30
0.0
 11
65.078231292517
 21
143.1360544217687
 31
0.0
  0
LINE
  5
A6
330
17
100
AcDbEntity
  8
lens_outline
370
-3
100
AcDbLine
 10
65.078231292517
 20
143.1360544217687
 30
0.0
 11
65.25850340136054
 21
143.31632653061226
 31
0.0
  0
LINE
  5
A7
330
17
100
AcDbEntity
  8
lens_outline
370
-3
100
AcDbLine
 10
65.25850340136054
 20
143.31632653061226
 30
0.0
 11
65.61904761904762
 21
143.31632653061226
 31
0.0
  0
LINE
  5
A8
330
17
100
AcDbEntity
  8
lens_outline
370
-3
100
AcDbLine
 10
65.61904761904762
 20
143.31632653061226
 30
0.0
 11
65.79931972789116
 21
143.49659863945578
 31
0.0
  0
LINE
  5
A9
330
17
100
AcDbEntity
  8
lens_outline
370
-3
100
AcDbLine
 10
65.79931972789116
 20
143.49659863945578
 30
0.0
 11
66.5204081632653
 21
143.49659863945578
 31
0.0
  0
LINE
  5
AA
330
17
100
AcDbEntity
  8
lens_outline
370
-3
100
AcDbLine
 10
66.5204081632653
 20
143.49659863945578
 30
0.0
 11
66.70068027210884
 21
143.67687074829934
 31
0.0
  0
LINE
  5
AB
330
17
100
AcDbEntity
  8
lens_outline
370
-3
100
AcDbLine
 10
66.70068027210884
 20
143.67687074829934
 30
0.0
 11
67.24149659863946
 21
143.67687074829934
 31
0.0
  0
LINE
  5
AC
330
17
100
AcDbEntity
  8
lens_outline
370
-3
100
AcDbLine
 10
67.24149659863946
 20
143.67687074829934
 30
0.0
 11
67.421768707483
 21
143.85714285714286
 31
0.0
  0
LINE
  5
AD
330
17
100
AcDbEntity
  8
lens_outline
370
-3
100
AcDbLine
 10
67.421768707483
 20
143.85714285714286
 30
0.0
 11
67.96258503401361
 21
143.85714285714286
 31
0.0
  0
LINE
  5
AE
330
17
100
AcDbEntity
  8
lens_outline
370
-3
100
AcDbLine
 10
67.96258503401361
 20
143.85714285714286
 30
0.0
 11
68.14285714285714
 21
144.0374149659864
 31
0.0
  0
LINE
  5
AF
330
17
100
AcDbEntity
  8
lens_outline
370
-3
100
AcDbLine
 10
68.14285714285714
 20
144.0374149659864
 30
0.0
 11
68.8639455782313
 21
144.0374149659864
 31
0.0
  0
LINE
  5
B0
330
17
100
AcDbEntity
  8
lens_outline
370
-3
100
AcDbLine
 10
68.8639455782313
 20
144.0374149659864
 30
0.0
 11
69.04421768707483
 21
144.21768707482994
 31
0.0
  0
LINE
  5
B1
330
17
100
AcDbEntity
  8
lens_outline
370
-3
100
AcDbLine
 10
69.04421768707483
 20
144.21768707482994
 30
0.0
 11
69.58503401360545
 21
144.21768707482994
 31
0.0
  0
LINE
  5
B2
330
17
100
AcDbEntity
  8
lens_outline
370
-3
100
AcDbLine
 10
69.58503401360545
 20
144.21768707482994
 30
0.0
 11
69.76530612244898
 21
144.39795918367346
 31
0.0
  0
LINE
  5
B3
330
17
100
AcDbEntity
  8
lens_outline
370
-3
100
AcDbLine
 10
69.76530612244898
 20
144.39795918367346
 30
0.0
 11
70.66666666666667
 21
144.39795918367346
 31
0.0
  0
LINE
  5
B4
330
17
100
AcDbEntity
  8
lens_outline
370
-3
100
AcDbLine
 10
70.66666666666667
 20
144.39795918367346
 30
0.0
 11
70.84693877551021
 21
144.57823129251702
 31
0.0
  0
LINE
  5
B5
330
17
100
AcDbEntity
  8
lens_outline
370
-3
100
AcDbLine
 10
70.84693877551021
 20
144.57823129251702
 30
0.0
 11
72.10884353741497
 21
144.57823129251702
 31
0.0
  0
LINE
  5
B6
330
17
100
AcDbEntity
  8
lens_outline
370
-3
100
AcDbLine
 10
72.10884353741497
 20
144.57823129251702
 30
0.0
 11
72.28911564625851
 21
144.75850340136054
 31
0.0
  0
LINE
  5
B7
330
17
100
AcDbEntity
  8
lens_outline
370
-3
100
AcDbLine
 10
72.28911564625851
 20
144.75850340136054
 30
0.0
 11
76.25510204081633
 21
144.75850340136054
 31
0.0
  0
LINE
  5
B8
330
17
100
AcDbEntity
  8
lens_outline
370
-3
100
AcDbLine
 10
76.25510204081633
 20
144.75850340136054
 30
0.0
 11
76.43537414965986
 21
144.9387755102041
 31
0.0
  0
LINE
  5
B9
330
17
100
AcDbEntity
  8
lens_outline
370
-3
100
AcDbLine
 10
76.43537414965986
 20
144.9387755102041
 30
0.0
 11
80.9421768707483
 21
144.9387755102041
 31
0.0
  0
LINE
  5
BA
330
17
100
AcDbEntity
  8
lens_outline
370
-3
100
AcDbLine
 10
80.9421768707483
 20
144.9387755102041
 30
0.0
 11
81.12244897959184
 21
144.75850340136054
 31
0.0
  0
LINE
  5
BB
330
17
100
AcDbEntity
  8
lens_outline
370
-3
100
AcDbLine
 10
81.12244897959184
 20
144.75850340136054
 30
0.0
 11
83.28571428571429
 21
144.75850340136054
 31
0.0
  0
LINE
  5
BC
330
17
100
AcDbEntity
  8
lens_outline
370
-3
100
AcDbLine
 10
83.28571428571429
 20
144.75850340136054
 30
0.0
 11
83.46598639455783
 21
144.57823129251702
 31
0.0
  0
LINE
  5
BD
330
17
100
AcDbEntity
  8
lens_outline
370
-3
100
AcDbLine
 10
83.46598639455783
 20
144.57823129251702
 30
0.0
 11
84.36734693877551
 21
144.57823129251702
 31
0.0
  0
LINE
  5
BE
330
17
100
AcDbEntity
  8
lens_outline
370
-3
100
AcDbLine
 10
84.36734693877551
 20
144.57823129251702
 30
0.0
 11
84.54761904761905
 21
144.39795918367346
 31
0.0
  0
LINE
  5
BF
330
17
100
AcDbEntity
  8
lens_outline
370
-3
100
AcDbLine
 10
84.54761904761905
 20
144.39795918367346
 30
0.0
 11
85.44897959183673
 21
144.39795918367346
 31
0.0
  0
LINE
  5
C0
330
17
100
AcDbEntity
  8
lens_outline
370
-3
100
AcDbLine
 10
85.44897959183673
 20
144.39795918367346
 30
0.0
 11
85.62925170068027
 21
144.21768707482994
 31
0.0
  0
LINE
  5
C1
330
17
100
AcDbEntity
  8
lens_outline
370
-3
100
AcDbLine
 10
85.62925170068027
 20
144.21768707482994
 30
0.0
 11
85.98979591836735
 21
144.21768707482994
 31
0.0
  0
LINE
  5
C2
330
17
100
AcDbEntity
  8
lens_outline
370
-3
100
AcDbLine
 10
85.98979591836735
 20
144.21768707482994
 30
0.0
 11
86.17006802721089
 21
144.0374149659864
 31
0.0
  0
LINE
  5
C3
330
17
100
AcDbEntity
  8
lens_outline
370
-3
100
AcDbLine
 10
86.17006802721089
 20
144.0374149659864
 30
0.0
 11
86.89115646258503
 21
144.0374149659864
 31
0.0
  0
LINE
  5
C4
330
17
100
AcDbEntity
  8
lens_outline
370
-3
100
AcDbLine
 10
86.89115646258503
 20
144.0374149659864
 30
0.0
 11
87.07142857142857
 21
143.85714285714286
 31
0.0
  0
LINE
  5
C5
330
17
100
AcDbEntity
  8
lens_outline
370
-3
100
AcDbLine
 10
87.07142857142857
 20
143.85714285714286
 30
0.0
 11
87.61224489795919
 21
143.85714285714286
 31
0.0
  0
LINE
  5
C6
330
17
100
AcDbEntity
  8
lens_outline
370
-3
100
AcDbLine
 10
87.61224489795919
 20
143.85714285714286
 30
0.0
 11
87.79251700680273
 21
143.67687074829934
 31
0.0
  0
LINE
  5
C7
330
17
100
AcDbEntity
  8
lens_outline
370
-3
100
AcDbLine
 10
87.79251700680273
 20
143.67687074829934
 30
0.0
 11
88.33333333333334
 21
143.67687074829934
 31
0.0
  0
LINE
  5
C8
330
17
100
AcDbEntity
  8
lens_outline
370
-3
100
AcDbLine
 10
88.33333333333334
 20
143.67687074829934
 30
0.0
 11
88.51360544217687
 21
143.49659863945578
 31
0.0
  0
LINE
  5
C9
330
17
100
AcDbEntity
  8
lens_outline
370
-3
100
AcDbLine
 10
88.51360544217687
 20
143.49659863945578
 30
0.0
 11
89.05442176870748
 21
143.49659863945578
 31
0.0
  0
LINE
  5
CA
330
17
100
AcDbEntity
  8
lens_outline
370
-3
100
AcDbLine
 10
89.05442176870748
 20
143.49659863945578
 30
0.0
 11
89.23469387755102
 21
143.31632653061226
 31
0.0
  0
LINE
  5
CB
330
17
100
AcDbEntity
  8
lens_outline
370
-3
100
AcDbLine
 10
89.23469387755102
 20
143.31632653061226
 30
0.0
 11
89.77551020408164
 21
143.31632653061226
 31
0.0
  0
LINE
  5
CC
330
17
100
AcDbEntity
  8
lens_outline
370
-3
100
AcDbLine
 10
89.77551020408164
 20
143.31632653061226
 30
0.0
 11
89.95578231292517
 21
143.1360544217687
 31
0.0
  0
LINE
  5
CD
330
17
100
AcDbEntity
  8
lens_outline
370
-3
100
AcDbLine
 10
89.95578231292517
 20
143.1360544217687
 30
0.0
 11
90.31632653061224
 21
143.1360544217687
 31
0.0
  0
LINE
  5
CE
330
17
100
AcDbEntity
  8
lens_outline
370
-3
100
AcDbLine
 10
90.31632653061224
 20
143.1360544217687
 30
0.0
 11
90.49659863945578
 21
142.95578231292518
 31
0.0
  0
LINE
  5
CF
330
17
100
AcDbEntity
  8
lens_outline
370
-3
100
AcDbLine
 10
90.49659863945578
 20
142.95578231292518
 30
0.0
 11
90.67687074829932
 21
142.95578231292518
 31
0.0
  0
LINE
  5
D0
330
17
100
AcDbEntity
  8
lens_outline
370
-3
100
AcDbLine
 10
90.67687074829932
 20
142.95578231292518
 30
0.0
 11
90.85714285714286
 21
142.77551020408163
 31
0.0
  0
LINE
  5
D1
330
17
100
AcDbEntity
  8
lens_outline
370
-3
100
AcDbLine
 10
90.85714285714286
 20
142.77551020408163
 30
0.0
 11
91.21768707482994
 21
142.77551020408163
 31
0.0
  0
LINE
  5
D2
330
17
100
AcDbEntity
  8
lens_outline
370
-3
100
AcDbLine
 10
91.21768707482994
 20
142.77551020408163
 30
0.0
 11
91.39795918367348
 21
142.5952380952381
 31
0.0
  0
LINE
  5
D3
330
17
100
AcDbEntity
  8
lens_outline
370
-3
100
AcDbLine
 10
91.39795918367348
 20
142.5952380952381
 30
0.0
 11
91.75850340136054
 21
142.5952380952381
 31
0.0
  0
LINE
  5
D4
330
17
100
AcDbEntity
  8
lens_outline
370
-3
100
AcDbLine
 10
91.75850340136054
 20
142.5952380952381
 30
0.0
 11
91.93877551020408
 21
142.41496598639455
 31
0.0
  0
LINE
  5
D5
330
17
100
AcDbEntity
  8
lens_outline
370
-3
100
AcDbLine
 10
91.93877551020408
 20
142.41496598639455
 30
0.0
 11
92.29931972789116
 21
142.41496598639455
 31
0.0
  0
LINE
  5
D6
330
17
100
AcDbEntity
  8
lens_outline
370
-3
100
AcDbLine
 10
92.29931972789116
 20
142.41496598639455
 30
0.0
 11
92.4795918367347
 21
142.23469387755102
 31
0.0
  0
LINE
  5
D7
330
17
100
AcDbEntity
  8
lens_outline
370
-3
100
AcDbLine
 10
92.4795918367347
 20
142.23469387755102
 30
0.0
 11
92.65986394557824
 21
142.23469387755102
 31
0.0
  0
LINE
  5
D8
330
17
100
AcDbEntity
  8
lens_outline
370
-3
100
AcDbLine
 10
92.65986394557824
 20
142.23469387755102
 30
0.0
 11
92.84013605442178
 21
142.0544217687075
 31
0.0
  0
LINE
  5
D9
330
17
100
AcDbEntity
  8
lens_outline
370
-3
100
AcDbLine
 10
92.84013605442178
 20
142.0544217687075
 30
0.0
 11
93.02040816326532
 21
142.0544217687075
 31
0.0
  0
LINE
  5
DA
330
17
100
AcDbEntity
  8
lens_outline
370
-3
100
AcDbLine
 10
93.02040816326532
 20
142.0544217687075
 30
0.0
 11
93.20068027210884
 21
141.87414965986395
 31
0.0
  0
LINE
  5
DB
330
17
100
AcDbEntity
  8
lens_outline
370
-3
100
AcDbLine
 10
93.20068027210884
 20
141.87414965986395
 30
0.0
 11
93.38095238095238
 21
141.87414965986395
 31
0.0
  0
LINE
  5
DC
330
17
100
AcDbEntity
  8
lens_outline
370
-3
100
AcDbLine
 10
93.38095238095238
 20
141.87414965986395
 30
0.0
 11
93.56122448979592
 21
141.69387755102042
 31
0.0
  0
LINE
  5
DD
330
17
100
AcDbEntity
  8
lens_outline
370
-3
100
AcDbLine
 10
93.56122448979592
 20
141.69387755102042
 30
0.0
 11
93.74149659863946
 21
141.69387755102042
 31
0.0
  0
LINE
  5
DE
330
17
100
AcDbEntity
  8
lens_outline
370
-3
100
AcDbLine
 10
93.74149659863946
 20
141.69387755102042
 30
0.0
 11
93.921768707483
 21
141.51360544217687
 31
0.0
  0
LINE
  5
DF
330
17
100
AcDbEntity
  8
lens_outline
370
-3
100
AcDbLine
 10
93.921768707483
 20
141.51360544217687
 30
0.0
 11
94.10204081632654
 21
141.51360544217687
 31
0.0
  0
LINE
  5
E0
330
17
100
AcDbEntity
  8
lens_outline
370
-3
100
AcDbLine
 10
94.10204081632654
 20
141.51360544217687
 30
0.0
 11
94.28231292517007
 21
141.33333333333334
 31
0.0
  0
LINE
  5
E1
330
17
100
AcDbEntity
  8
lens_outline
370
-3
100
AcDbLine
 10
94.28231292517007
 20
141.33333333333334
 30
0.0
 11
94.46258503401361
 21
141.33333333333334
 31
0.0
  0
LINE
  5
E2
330
17
100
AcDbEntity
  8
lens_outline
370
-3
100
AcDbLine
 10
94.46258503401361
 20
141.33333333333334
 30
0.0
 11
94.64285714285715
 21
141.1530612244898
 31
0.0
  0
LINE
  5
E3
330
17
100
AcDbEntity
  8
lens_outline
370
-3
100
AcDbLine
 10
94.64285714285715
 20
141.1530612244898
 30
0.0
 11
94.82312925170068
 21
141.1530612244898
 31
0.0
  0
LINE
  5
E4
330
17
100
AcDbEntity
  8
lens_outline
370
-3
100
AcDbLine
 10
94.82312925170068
 20
141.1530612244898
 30
0.0
 11
95.18367346938776
 21
140.79251700680274
 31
0.0
  0
LINE
  5
E5
330
17
100
AcDbEntity
  8
lens_outline
370
-3
100
AcDbLine
 10
95.18367346938776
 20
140.79251700680274
 30
0.0
 11
95.3639455782313
 21
140.79251700680274
 31
0.0
  0
LINE
  5
E6
330
17
100
AcDbEntity
  8
lens_outline
370
-3
100
AcDbLine
 10
95.3639455782313
 20
140.79251700680274
 30
0.0
 11
95.54421768707483
 21
140.6122448979592
 31
0.0
  0
LINE
  5
E7
330
17
100
AcDbEntity
  8
lens_outline
370
-3
100
AcDbLine
 10
95.54421768707483
 20
140.6122448979592
 30
0.0
 11
95.72448979591837
 21
140.6122448979592
 31
0.0
  0
LINE
  5
E8
330
17
100
AcDbEntity
  8
lens_outline
370
-3
100
AcDbLine
 10
95.72448979591837
 20
140.6122448979592
 30
0.0
 11
96.08503401360545
 21
140.2517006802721
 31
0.0
  0
LINE
  5
E9
330
17
100
AcDbEntity
  8
lens_outline
370
-3
100
AcDbLine
 10
96.08503401360545
 20
140.2517006802721
 30
0.0
 11
96.44557823129252
 21
140.2517006802721
 31
0.0
  0
LINE
  5
EA
330
17
100
AcDbEntity
  8
lens_outline
370
-3
100
AcDbLine
 10
96.44557823129252
 20
140.2517006802721
 30
0.0
 11
96.8061224489796
 21
139.89115646258503
 31
0.0
  0
LINE
  5
EB
330
17
100
AcDbEntity
  8
lens_outline
370
-3
100
AcDbLine
 10
96.8061224489796
 20
139.89115646258503
 30
0.0
 11
96.98639455782313
 21
139.89115646258503
 31
0.0
  0
LINE
  5
EC
330
17
100
AcDbEntity
  8
lens_outline
370
-3
100
AcDbLine
 10
96.98639455782313
 20
139.89115646258503
 30
0.0
 11
97.16666666666667
 21
139.7108843537415
 31
0.0
  0
LINE
  5
ED
330
17
100
AcDbEntity
  8
lens_outline
370
-3
100
AcDbLine
 10
97.16666666666667
 20
139.7108843537415
 30
0.0
 11
97.34693877551021
 21
139.7108843537415
 31
0.0
  0
LINE
  5
EE
330
17
100
AcDbEntity
  8
lens_outline
370
-3
100
AcDbLine
 10
97.34693877551021
 20
139.7108843537415
 30
0.0
 11
97.70748299319729
 21
139.35034013605443
 31
0.0
  0
LINE
  5
EF
330
17
100
AcDbEntity
  8
lens_outline
370
-3
100
AcDbLine
 10
97.70748299319729
 20
139.35034013605443
 30
0.0
 11
97.88775510204081
 21
139.35034013605443
 31
0.0
  0
LINE
  5
F0
330
17
100
AcDbEntity
  8
lens_outline
370
-3
100
AcDbLine
 10
97.88775510204081
 20
139.35034013605443
 30
0.0
 11
98.24829931972789
 21
138.98979591836735
 31
0.0
  0
LINE
  5
F1
330
17
100
AcDbEntity
  8
lens_outline
370
-3
100
AcDbLine
 10
98.24829931972789
 20
138.98979591836735
 30
0.0
 11
98.42857142857143
 21
138.98979591836735
 31
0.0
  0
LINE
  5
F2
330
17
100
AcDbEntity
  8
lens_outline
370
-3
100
AcDbLine
 10
98.42857142857143
 20
138.98979591836735
 30
0.0
 11
98.78911564625851
 21
138.62925170068027
 31
0.0
  0
LINE
  5
F3
330
17
100
AcDbEntity
  8
lens_outline
370
-3
100
AcDbLine
 10
98.78911564625851
 20
138.62925170068027
 30
0.0
 11
98.96938775510205
 21
138.62925170068027
 31
0.0
  0
LINE
  5
F4
330
17
100
AcDbEntity
  8
lens_outline
370
-3
100
AcDbLine
 10
98.96938775510205
 20
138.62925170068027
 30
0.0
 11
99.14965986394559
 21
138.44897959183675
 31
0.0
  0
LINE
  5
F5
330
17
100
AcDbEntity
  8
lens_outline
370
-3
100
AcDbLine
 10
99.14965986394559
 20
138.44897959183675
 30
0.0
 11
99.32993197278913
 21
138.44897959183675
 31
0.0
  0
LINE
  5
F6
330
17
100
AcDbEntity
  8
lens_outline
370
-3
100
AcDbLine
 10
99.32993197278913
 20
138.44897959183675
 30
0.0
 11
99.69047619047619
 21
138.08843537414967
 31
0.0
  0
LINE
  5
F7
330
17
100
AcDbEntity
  8
lens_outline
370
-3
100
AcDbLine
 10
99.69047619047619
 20
138.08843537414967
 30
0.0
 11
99.87074829931973
 21
138.08843537414967
 31
0.0
  0
LINE
  5
F8
330
17
100
AcDbEntity
  8
lens_outline
370
-3
100
AcDbLine
 10
99.87074829931973
 20
138.08843537414967
 30
0.0
 11
100.41156462585035
 21
137.54761904761907
 31
0.0
  0
LINE
  5
F9
330
17
100
AcDbEntity
  8
lens_outline
370
-3
100
AcDbLine
 10
100.41156462585035
 20
137.54761904761907
 30
0.0
 11
100.59183673469389
 21
137.54761904761907
 31
0.0
  0
LINE
  5
FA
330
17
100
AcDbEntity
  8
lens_outline
370
-3
100
AcDbLine
 10
100.59183673469389
 20
137.54761904761907
 30
0.0
 11
102.03401360544218
 21
136.10544217687075
 31
0.0
  0
LINE
  5
FB
330
17
100
AcDbEntity
  8
lens_outline
370
-3
100
AcDbLine
 10
102.03401360544218
 20
136.10544217687075
 30
0.0
 11
102.03401360544218
 21
135.92517006802723
 31
0.0
  0
LINE
  5
FC
330
17
100
AcDbEntity
  8
lens_outline
370
-3
100
AcDbLine
 10
102.03401360544218
 20
135.92517006802723
 30
0.0
 11
102.39455782312926
 21
135.56462585034015
 31
0.0
  0
LINE
  5
FD
330
17
100
AcDbEntity
  8
lens_outline
370
-3
100
AcDbLine
 10
102.39455782312926
 20
135.56462585034015
 30
0.0
 11
102.39455782312926
 21
135.3843537414966
 31
0.0
  0
LINE
  5
FE
330
17
100
AcDbEntity
  8
lens_outline
370
-3
100
AcDbLine
 10
102.39455782312926
 20
135.3843537414966
 30
0.0
 11
102.75510204081633
 21
135.02380952380952
 31
0.0
  0
LINE
  5
FF
330
17
100
AcDbEntity
  8
lens_outline
370
-3
100
AcDbLine
 10
102.75510204081633
 20
135.02380952380952
 30
0.0
 11
102.75510204081633
 21
134.66326530612244
 31
0.0
  0
LINE
  5
100
330
17
100
AcDbEntity
  8
lens_outline
370
-3
100
AcDbLine
 10
102.75510204081633
 20
134.66326530612244
 30
0.0
 11
102.93537414965986
 21
134.48299319727892
 31
0.0
  0
LINE
  5
101
330
17
100
AcDbEntity
  8
lens_outline
370
-3
100
AcDbLine
 10
102.93537414965986
 20
134.48299319727892
 30
0.0
 11
102.93537414965986
 21
134.3027210884354
 31
0.0
  0
LINE
  5
102
330
17
100
AcDbEntity
  8
lens_outline
370
-3
100
AcDbLine
 10
102.93537414965986
 20
134.3027210884354
 30
0.0
 11
103.1156462585034
 21
134.12244897959184
 31
0.0
  0
LINE
  5
103
330
17
100
AcDbEntity
  8
lens_outline
370
-3
100
AcDbLine
 10
103.1156462585034
 20
134.12244897959184
 30
0.0
 11
103.1156462585034
 21
133.76190476190476
 31
0.0
  0
LINE
  5
104
330
17
100
AcDbEntity
  8
lens_outline
370
-3
100
AcDbLine
 10
103.1156462585034
 20
133.76190476190476
 30
0.0
 11
103.29591836734694
 21
133.58163265306123
 31
0.0
  0
LINE
  5
105
330
17
100
AcDbEntity
  8
lens_outline
370
-3
100
AcDbLine
 10
103.29591836734694
 20
133.58163265306123
 30
0.0
 11
103.29591836734694
 21
133.22108843537416
 31
0.0
  0
LINE
  5
106
330
17
100
AcDbEntity
  8
lens_outline
370
-3
100
AcDbLine
 10
103.29591836734694
 20
133.22108843537416
 30
0.0
 11
103.47619047619048
 21
133.0408163265306
 31
0.0
  0
LINE
  5
107
330
17
100
AcDbEntity
  8
lens_outline
370
-3
100
AcDbLine
 10
103.47619047619048
 20
133.0408163265306
 30
0.0
 11
103.47619047619048
 21
132.68027210884355
 31
0.0
  0
LINE
  5
108
330
17
100
AcDbEntity
  8
lens_outline
370
-3
100
AcDbLine
 10
103.47619047619048
 20
132.68027210884355
 30
0.0
 11
103.65646258503402
 21
132.5
 31
0.0
  0
LINE
  5
109
330
17
100
AcDbEntity
  8
lens_outline
370
-3
100
AcDbLine
 10
103.65646258503402
 20
132.5
 30
0.0
 11
103.65646258503402
 21
132.31972789115648
 31
0.0
  0
LINE
  5
10A
330
17
100
AcDbEntity
  8
lens_outline
370
-3
100
AcDbLine
 10
103.65646258503402
 20
132.31972789115648
 30
0.0
 11
103.83673469387756
 21
132.13945578231292
 31
0.0
  0
LINE
  5
10B
330
17
100
AcDbEntity
  8
lens_outline
370
-3
100
AcDbLine
 10
103.83673469387756
 20
132.13945578231292
 30
0.0
 11
103.83673469387756
 21
131.9591836734694
 31
0.0
  0
LINE
  5
10C
330
17
100
AcDbEntity
  8
lens_outline
370
-3
100
AcDbLine
 10
103.83673469387756
 20
131.9591836734694
 30
0.0
 11
104.0170068027211
 21
131.77891156462584
 31
0.0
  0
LINE
  5
10D
330
17
100
AcDbEntity
  8
lens_outline
370
-3
100
AcDbLine
 10
104.0170068027211
 20
131.77891156462584
 30
0.0
 11
104.0170068027211
 21
131.23809523809524
 31
0.0
  0
LINE
  5
10E
330
17
100
AcDbEntity
  8
lens_outline
370
-3
100
AcDbLine
 10
104.0170068027211
 20
131.23809523809524
 30
0.0
 11
104.19727891156462
 21
131.05782312925172
 31
0.0
  0
LINE
  5
10F
330
17
100
AcDbEntity
  8
lens_outline
370
-3
100
AcDbLine
 10
104.19727891156462
 20
131.05782312925172
 30
0.0
 11
104.19727891156462
 21
129.97619047619048
 31
0.0
  0
LINE
  5
110
330
17
100
AcDbEntity
  8
lens_outline
370
-3
100
AcDbLine
 10
104.19727891156462
 20
129.97619047619048
 30
0.0
 11
104.37755102040816
 21
129.79591836734696
 31
0.0
  0
LINE
  5
111
330
17
100
AcDbEntity
  8
lens_outline
370
-3
100
AcDbLine
 10
104.37755102040816
 20
129.79591836734696
 30
0.0
 11
104.37755102040816
 21
128.71428571428572
 31
0.0
  0
LINE
  5
112
330
17
100
AcDbEntity
  8
lens_outline
370
-3
100
AcDbLine
 10
104.37755102040816
 20
128.71428571428572
 30
0.0
 11
104.5578231292517
 21
128.53401360544217
 31
0.0
  0
LINE
  5
113
330
17
100
AcDbEntity
  8
lens_outline
370
-3
100
AcDbLine
 10
104.5578231292517
 20
128.53401360544217
 30
0.0
 11
104.5578231292517
 21
123.84693877551021
 31
0.0
  0
LINE
  5
114
330
17
100
AcDbEntity
  8
lens_outline
370
-3
100
AcDbLine
 10
104.5578231292517
 20
123.84693877551021
 30
0.0
 11
104.37755102040816
 21
123.66666666666667
 31
0.0
  0
LINE
  5
115
330
17
100
AcDbEntity
  8
lens_outline
370
-3
100
AcDbLine
 10
104.37755102040816
 20
123.66666666666667
 30
0.0
 11
104.37755102040816
 21
123.3061224489796
 31
0.0
  0
LINE
  5
116
330
17
100
AcDbEntity
  8
lens_outline
370
-3
100
AcDbLine
 10
104.37755102040816
 20
123.3061224489796
 30
0.0
 11
104.19727891156462
 21
123.12585034013605
 31
0.0
  0
LINE
  5
117
330
17
100
AcDbEntity
  8
lens_outline
370
-3
100
AcDbLine
 10
104.19727891156462
 20
123.12585034013605
 30
0.0
 11
104.19727891156462
 21
122.58503401360545
 31
0.0
  0
LINE
  5
118
330
17
100
AcDbEntity
  8
lens_outline
370
-3
100
AcDbLine
 10
104.19727891156462
 20
122.58503401360545
 30
0.0
 11
104.0170068027211
 21
122.40476190476191
 31
0.0
  0
LINE
  5
119
330
17
100
AcDbEntity
  8
lens_outline
370
-3
100
AcDbLine
 10
104.0170068027211
 20
122.40476190476191
 30
0.0
 11
104.0170068027211
 21
122.22448979591837
 31
0.0
  0
LINE
  5
11A
330
17
100
AcDbEntity
  8
lens_outline
370
-3
100
AcDbLine
 10
104.0170068027211
 20
122.22448979591837
 30
0.0
 11
103.65646258503402
 21
121.8639455782313
 31
0.0
  0
LINE
  5
11B
330
17
100
AcDbEntity
  8
lens_outline
370
-3
100
AcDbLine
 10
103.65646258503402
 20
121.8639455782313
 30
0.0
 11
103.65646258503402
 21
121.68367346938776
 31
0.0
  0
LINE
  5
11C
330
17
100
AcDbEntity
  8
lens_outline
370
-3
100
AcDbLine
 10
103.65646258503402
 20
121.68367346938776
 30
0.0
 11
103.29591836734694
 21
121.32312925170068
 31
0.0
  0
LINE
  5
11D
330
17
100
AcDbEntity
  8
lens_outline
370
-3
100
AcDbLine
 10
103.29591836734694
 20
121.32312925170068
 30
0.0
 11
103.29591836734694
 21
121.14285714285715
 31
0.0
  0
LINE
  5
11E
330
17
100
AcDbEntity
  8
lens_outline
370
-3
100
AcDbLine
 10
103.29591836734694
 20
121.14285714285715
 30
0.0
 11
102.75510204081633
 21
120.60204081632654
 31
0.0
  0
LINE
  5
11F
330
17
100
AcDbEntity
  8
lens_outline
370
-3
100
AcDbLine
 10
102.75510204081633
 20
120.60204081632654
 30
0.0
 11
102.75510204081633
 21
120.421768707483
 31
0.0
  0
LINE
  5
120
330
17
100
AcDbEntity
  8
lens_outline
370
-3
100
AcDbLine
 10
102.75510204081633
 20
120.421768707483
 30
0.0
 11
101.13265306122449
 21
118.79931972789116
 31
0.0
  0
LINE
  5
121
330
17
100
AcDbEntity
  8
lens_outline
370
-3
100
AcDbLine
 10
101.13265306122449
 20
118.79931972789116
 30
0.0
 11
100.95238095238095
 21
118.79931972789116
 31
0.0
  0
LINE
  5
122
330
17
100
AcDbEntity
  8
lens_outline
370
-3
100
AcDbLine
 10
100.95238095238095
 20
118.79931972789116
 30
0.0
 11
99.69047619047619
 21
117.5374149659864
 31
0.0
  0
LINE
  5
123
330
17
100
AcDbEntity
  8
lens_outline
370
-3
100
AcDbLine
 10
99.69047619047619
 20
117.5374149659864
 30
0.0
 11
99.51020408163265
 21
117.5374149659864
 31
0.0
  0
LINE
  5
124
330
17
100
AcDbEntity
  8
lens_outline
370
-3
100
AcDbLine
 10
99.51020408163265
 20
117.5374149659864
 30
0.0
 11
98.96938775510205
 21
116.99659863945578
 31
0.0
  0
LINE
  5
125
330
17
100
AcDbEntity
  8
lens_outline
370
-3
100
AcDbLine
 10
98.96938775510205
 20
116.99659863945578
 30
0.0
 11
98.78911564625851
 21
116.99659863945578
 31
0.0
  0
LINE
  5
126
330
17
100
AcDbEntity
  8
lens_outline
370
-3
100
AcDbLine
 10
98.78911564625851
 20
116.99659863945578
 30
0.0
 11
98.42857142857143
 21
116.6360544217687
 31
0.0
  0
LINE
  5
127
330
17
100
AcDbEntity
  8
lens_outline
370
-3
100
AcDbLine
 10
98.42857142857143
 20
116.6360544217687
 30
0.0
 11
98.06802721088435
 21
116.6360544217687
 31
0.0
  0
LINE
  5
128
330
17
100
AcDbEntity
  8
lens_outline
370
-3
100
AcDbLine
 10
98.06802721088435
 20
116.6360544217687
 30
0.0
 11
97.88775510204081
 21
116.45578231292518
 31
0.0
  0
LINE
  5
129
330
17
100
AcDbEntity
  8
lens_outline
370
-3
100
AcDbLine
 10
97.88775510204081
 20
116.45578231292518
 30
0.0
 11
97.52721088435375
 21
116.45578231292518
 31
0.0
  0
LINE
  5
12A
330
17
100
AcDbEntity
  8
lens_outline
370
-3
100
AcDbLine
 10
97.52721088435375
 20
116.45578231292518
 30
0.0
 11
97.34693877551021
 21
116.27551020408164
 31
0.0
  0
LINE
  5
12B
330
17
100
AcDbEntity
  8
lens_outline
370
-3
100
AcDbLine
 10
97.34693877551021
 20
116.27551020408164
 30
0.0
 11
96.98639455782313
 21
116.27551020408164
 31
0.0
  0
LINE
  5
12C
330
17
100
AcDbEntity
  8
lens_outline
370
-3
100
AcDbLine
 10
96.98639455782313
 20
116.27551020408164
 30
0.0
 11
96.8061224489796
 21
116.0952380952381
 31
0.0
  0
LINE
  5
12D
330
17
100
AcDbEntity
  8
lens_outline
370
-3
100
AcDbLine
 10
96.8061224489796
 20
116.0952380952381
 30
0.0
 11
96.44557823129252
 21
116.0952380952381
 31
0.0
  0
LINE
  5
12E
330
17
100
AcDbEntity
  8
lens_outline
370
-3
100
AcDbLine
 10
96.44557823129252
 20
116.0952380952381
 30
0.0
 11
96.26530612244898
 21
115.91496598639456
 31
0.0
  0
LINE
  5
12F
330
17
100
AcDbEntity
  8
lens_outline
370
-3
100
AcDbLine
 10
96.26530612244898
 20
115.91496598639456
 30
0.0
 11
95.90476190476191
 21
115.91496598639456
 31
0.0
  0
LINE
  5
130
330
17
100
AcDbEntity
  8
lens_outline
370
-3
100
AcDbLine
 10
95.90476190476191
 20
115.91496598639456
 30
0.0
 11
95.72448979591837
 21
115.73469387755102
 31
0.0
  0
LINE
  5
131
330
17
100
AcDbEntity
  8
lens_outline
370
-3
100
AcDbLine
 10
95.72448979591837
 20
115.73469387755102
 30
0.0
 11
95.18367346938776
 21
115.73469387755102
 31
0.0
  0
LINE
  5
132
330
17
100
AcDbEntity
  8
lens_outline
370
-3
100
AcDbLine
 10
95.18367346938776
 20
115.73469387755102
 30
0.0
 11
95.00340136054422
 21
115.55442176870748
 31
0.0
  0
LINE
  5
133
330
17
100
AcDbEntity
  8
lens_outline
370
-3
100
AcDbLine
 10
95.00340136054422
 20
115.55442176870748
 30
0.0
 11
94.82312925170068
 21
115.55442176870748
 31
0.0
  0
LINE
  5
134
330
17
100
AcDbEntity
  8
lens_outline
370
-3
100
AcDbLine
 10
94.82312925170068
 20
115.55442176870748
 30
0.0
 11
94.64285714285715
 21
115.37414965986395
 31
0.0
  0
LINE
  5
135
330
17
100
AcDbEntity
  8
lens_outline
370
-3
100
AcDbLine
 10
94.64285714285715
 20
115.37414965986395
 30
0.0
 11
94.10204081632654
 21
115.37414965986395
 31
0.0
  0
LINE
  5
136
330
17
100
AcDbEntity
  8
lens_outline
370
-3
100
AcDbLine
 10
94.10204081632654
 20
115.37414965986395
 30
0.0
 11
93.921768707483
 21
115.1938775510204
 31
0.0
  0
LINE
  5
137
330
17
100
AcDbEntity
  8
lens_outline
370
-3
100
AcDbLine
 10
93.921768707483
 20
115.1938775510204
 30
0.0
 11
93.56122448979592
 21
115.1938775510204
 31
0.0
  0
LINE
  5
138
330
17
100
AcDbEntity
  8
lens_outline
370
-3
100
AcDbLine
 10
93.56122448979592
 20
115.1938775510204
 30
0.0
 11
93.38095238095238
 21
115.01360544217687
 31
0.0
  0
LINE
  5
139
330
17
100
AcDbEntity
  8
lens_outline
370
-3
100
AcDbLine
 10
93.38095238095238
 20
115.01360544217687
 30
0.0
 11
93.02040816326532
 21
115.01360544217687
 31
0.0
  0
LINE
  5
13A
330
17
100
AcDbEntity
  8
lens_outline
370
-3
100
AcDbLine
 10
93.02040816326532
 20
115.01360544217687
 30
0.0
 11
92.84013605442178
 21
114.83333333333334
 31
0.0
  0
LINE
  5
13B
330
17
100
AcDbEntity
  8
lens_outline
370
-3
100
AcDbLine
 10
92.84013605442178
 20
114.83333333333334
 30
0.0
 11
92.29931972789116
 21
114.83333333333334
 31
0.0
  0
LINE
  5
13C
330
17
100
AcDbEntity
  8
lens_outline
370
-3
100
AcDbLine
 10
92.29931972789116
 20
114.83333333333334
 30
0.0
 11
92.11904761904762
 21
114.6530612244898
 31
0.0
  0
LINE
  5
13D
330
17
100
AcDbEntity
  8
lens_outline
370
-3
100
AcDbLine
 10
92.11904761904762
 20
114.6530612244898
 30
0.0
 11
91.578231292517
 21
114.6530612244898
 31
0.0
  0
LINE
  5
13E
330
17
100
AcDbEntity
  8
lens_outline
370
-3
100
AcDbLine
 10
91.578231292517
 20
114.6530612244898
 30
0.0
 11
91.39795918367348
 21
114.47278911564626
 31
0.0
  0
LINE
  5
13F
330
17
100
AcDbEntity
  8
lens_outline
370
-3
100
AcDbLine
 10
91.39795918367348
 20
114.47278911564626
 30
0.0
 11
90.85714285714286
 21
114.47278911564626
 31
0.0
  0
LINE
  5
140
330
17
100
AcDbEntity
  8
lens_outline
370
-3
100
AcDbLine
 10
90.85714285714286
 20
114.47278911564626
 30
0.0
 11
90.67687074829932
 21
114.29251700680273
 31
0.0
  0
LINE
  5
141
330
17
100
AcDbEntity
  8
lens_outline
370
-3
100
AcDbLine
 10
90.67687074829932
 20
114.29251700680273
 30
0.0
 11
89.95578231292517
 21
114.29251700680273
 31
0.0
  0
LINE
  5
142
330
17
100
AcDbEntity
  8
lens_outline
370
-3
100
AcDbLine
 10
89.95578231292517
 20
114.29251700680273
 30
0.0
 11
89.77551020408164
 21
114.11224489795919
 31
0.0
  0
LINE
  5
143
330
17
100
AcDbEntity
  8
lens_outline
370
-3
100
AcDbLine
 10
89.77551020408164
 20
114.11224489795919
 30
0.0
 11
89.23469387755102
 21
114.11224489795919
 31
0.0
  0
LINE
  5
144
330
17
100
AcDbEntity
  8
lens_outline
370
-3
100
AcDbLine
 10
89.23469387755102
 20
114.11224489795919
 30
0.0
 11
89.05442176870748
 21
113.93197278911565
 31
0.0
  0
LINE
  5
145
330
17
100
AcDbEntity
  8
lens_outline
370
-3
100
AcDbLine
 10
89.05442176870748
 20
113.93197278911565
 30
0.0
 11
88.1530612244898
 21
113.93197278911565
 31
0.0
  0
LINE
  5
146
330
17
100
AcDbEntity
  8
lens_outline
370
-3
100
AcDbLine
 10
88.1530612244898
 20
113.93197278911565
 30
0.0
 11
87.97278911564626
 21
113.75170068027211
 31
0.0
  0
LINE
  5
147
330
17
100
AcDbEntity
  8
lens_outline
370
-3
100
AcDbLine
 10
87.97278911564626
 20
113.75170068027211
 30
0.0
 11
87.25170068027211
 21
113.75170068027211
 31
0.0
  0
LINE
  5
148
330
17
100
AcDbEntity
  8
lens_outline
370
-3
100
AcDbLine
 10
87.25170068027211
 20
113.75170068027211
 30
0.0
 11
87.07142857142857
 21
113.57142857142857
 31
0.0
  0
LINE
  5
149
330
17
100
AcDbEntity
  8
lens_outline
370
-3
100
AcDbLine
 10
87.07142857142857
 20
113.57142857142857
 30
0.0
 11
84.90816326530613
 21
113.57142857142857
 31
0.0
  0
LINE
  5
14A
330
17
100
AcDbEntity
  8
lens_outline
370
-3
100
AcDbLine
 10
84.90816326530613
 20
113.57142857142857
 30
0.0
 11
84.72789115646259
 21
113.39115646258504
 31
0.0
  0
LINE
  5
14B
330
17
100
AcDbEntity
  8
lens_outline
370
-3
100
AcDbLine
 10
84.72789115646259
 20
113.39115646258504
 30
0.0
 11
83.28571428571429
 21
113.39115646258504
 31
0.0
  0
LINE
  5
14C
330
17
100
AcDbEntity
  8
lens_outline
370
-3
100
AcDbLine
 10
83.28571428571429
 20
113.39115646258504
 30
0.0
 11
83.10544217687075
 21
113.2108843537415
 31
0.0
  0
LINE
  5
14D
330
17
100
AcDbEntity
  8
lens_outline
370
-3
100
AcDbLine
 10
83.10544217687075
 20
113.2108843537415
 30
0.0
 11
80.76190476190476
 21
113.2108843537415
 31
0.0
  0
LINE
  5
14E
330
17
100
AcDbEntity
  8
lens_outline
370
-3
100
AcDbLine
 10
80.76190476190476
 20
113.2108843537415
 30
0.0
 11
80.58163265306122
 21
113.03061224489797
 31
0.0
  0
LINE
  5
14F
330
17
100
AcDbEntity
  8
lens_outline
370
-3
100
AcDbLine
 10
80.58163265306122
 20
113.03061224489797
 30
0.0
 11
78.77891156462586
 21
113.03061224489797
 31
0.0
  0
LINE
  5
150
330
17
100
AcDbEntity
  8
lens_outline
370
-3
100
AcDbLine
 10
73.91156462585035
 20
107.80272108843538
 30
0.0
 11
73.7312925170068
 21
107.98299319727892
 31
0.0
  0
LINE
  5
151
330
17
100
AcDbEntity
  8
lens_outline
370
-3
100
AcDbLine
 10
73.7312925170068
 20
107.98299319727892
 30
0.0
 11
67.421768707483
 21
107.98299319727892
 31
0.0
  0
LINE
  5
152
330
17
100
AcDbEntity
  8
lens_outline
370
-3
100
AcDbLine
 10
67.421768707483
 20
107.98299319727892
 30
0.0
 11
67.24149659863946
 21
108.16326530612245
 31
0.0
  0
LINE
  5
153
330
17
100
AcDbEntity
  8
lens_outline
370
-3
100
AcDbLine
 10
67.24149659863946
 20
108.16326530612245
 30
0.0
 11
65.9795918367347
 21
108.16326530612245
 31
0.0
  0
LINE
  5
154
330
17
100
AcDbEntity
  8
lens_outline
370
-3
100
AcDbLine
 10
65.9795918367347
 20
108.16326530612245
 30
0.0
 11
65.79931972789116
 21
108.343537414966
 31
0.0
  0
LINE
  5
155
330
17
100
AcDbEntity
  8
lens_outline
370
-3
100
AcDbLine
 10
65.79931972789116
 20
108.343537414966
 30
0.0
 11
64.5374149659864
 21
108.343537414966
 31
0.0
  0
LINE
  5
156
330
17
100
AcDbEntity
  8
lens_outline
370
-3
100
AcDbLine
 10
64.5374149659864
 20
108.343537414966
 30
0.0
 11
64.35714285714286
 21
108.52380952380953
 31
0.0
  0
LINE
  5
157
330
17
100
AcDbEntity
  8
lens_outline
370
-3
100
AcDbLine
 10
64.35714285714286
 20
108.52380952380953
 30
0.0
 11
63.63605442176871
 21
108.52380952380953
 31
0.0
  0
LINE
  5
158
330
17
100
AcDbEntity
  8
lens_outline
370
-3
100
AcDbLine
 10
63.63605442176871
 20
108.52380952380953
 30
0.0
 11
63.45578231292517
 21
108.70408163265307
 31
0.0
  0
LINE
  5
159
330
17
100
AcDbEntity
  8
lens_outline
370
-3
100
AcDbLine
 10
63.45578231292517
 20
108.70408163265307
 30
0.0
 11
62.374149659863946
 21
108.70408163265307
 31
0.0
  0
LINE
  5
15A
330
17
100
AcDbEntity
  8
lens_outline
370
-3
100
AcDbLine
 10
62.374149659863946
 20
108.70408163265307
 30
0.0
 11
62.19387755102041
 21
108.8843537414966
 31
0.0
  0
LINE
  5
15B
330
17
100
AcDbEntity
  8
lens_outline
370
-3
100
AcDbLine
 10
62.19387755102041
 20
108.8843537414966
 30
0.0
 11
61.833333333333336
 21
108.8843537414966
 31
0.0
  0
LINE
  5
15C
330
17
100
AcDbEntity
  8
lens_outline
370
-3
100
AcDbLine
 10
61.833333333333336
 20
108.8843537414966
 30
0.0
 11
61.6530612244898
 21
109.06462585034014
 31
0.0
  0
LINE
  5
15D
330
17
100
AcDbEntity
  8
lens_outline
370
-3
100
AcDbLine
 10
61.6530612244898
 20
109.06462585034014
 30
0.0
 11
60.75170068027211
 21
109.06462585034014
 31
0.0
  0
LINE
  5
15E
330
17
100
AcDbEntity
  8
lens_outline
370
-3
100
AcDbLine
 10
60.75170068027211
 20
109.06462585034014
 30
0.0
 11
60.57142857142858
 21
109.24489795918367
 31
0.0
  0
LINE
  5
15F
330
17
100
AcDbEntity
  8
lens_outline
370
-3
100
AcDbLine
 10
60.57142857142858
 20
109.24489795918367
 30
0.0
 11
60.03061224489796
 21
109.24489795918367
 31
0.0
  0
LINE
  5
160
330
17
100
AcDbEntity
  8
lens_outline
370
-3
100
AcDbLine
 10
60.03061224489796
 20
109.24489795918367
 30
0.0
 11
59.85034013605442
 21
109.42517006802721
 31
0.0
  0
LINE
  5
161
330
17
100
AcDbEntity
  8
lens_outline
370
-3
100
AcDbLine
 10
59.85034013605442
 20
109.42517006802721
 30
0.0
 11
59.30952380952381
 21
109.42517006802721
 31
0.0
  0
LINE
  5
162
330
17
100
AcDbEntity
  8
lens_outline
370
-3
100
AcDbLine
 10
59.30952380952381
 20
109.42517006802721
 30
0.0
 11
59.12925170068027
 21
109.60544217687075
 31
0.0
  0
LINE
  5
163
330
17
100
AcDbEntity
  8
lens_outline
370
-3
100
AcDbLine
 10
59.12925170068027
 20
109.60544217687075
 30
0.0
 11
58.58843537414966
 21
109.60544217687075
 31
0.0
  0
LINE
  5
164
330
17
100
AcDbEntity
  8
lens_outline
370
-3
100
AcDbLine
 10
58.58843537414966
 20
109.60544217687075
 30
0.0
 11
58.40816326530612
 21
109.78571428571429
 31
0.0
  0
LINE
  5
165
330
17
100
AcDbEntity
  8
lens_outline
370
-3
100
AcDbLine
 10
58.40816326530612
 20
109.78571428571429
 30
0.0
 11
57.68707482993197
 21
109.78571428571429
 31
0.0
  0
LINE
  5
166
330
17
100
AcDbEntity
  8
lens_outline
370
-3
100
AcDbLine
 10
57.68707482993197
 20
109.78571428571429
 30
0.0
 11
57.506802721088434
 21
109.96598639455783
 31
0.0
  0
LINE
  5
167
330
17
100
AcDbEntity
  8
lens_outline
370
-3
100
AcDbLine
 10
57.506802721088434
 20
109.96598639455783
 30
0.0
 11
57.14625850340136
 21
109.96598639455783
 31
0.0
  0
LINE
  5
168
330
17
100
AcDbEntity
  8
lens_outline
370
-3
100
AcDbLine
 10
57.14625850340136
 20
109.96598639455783
 30
0.0
 11
56.965986394557824
 21
110.14625850340137
 31
0.0
  0
LINE
  5
169
330
17
100
AcDbEntity
  8
lens_outline
370
-3
100
AcDbLine
 10
56.965986394557824
 20
110.14625850340137
 30
0.0
 11
56.60544217687075
 21
110.14625850340137
 31
0.0
  0
LINE
  5
16A
330
17
100
AcDbEntity
  8
lens_outline
370
-3
100
AcDbLine
 10
56.60544217687075
 20
110.14625850340137
 30
0.0
 11
56.425170068027214
 21
110.3265306122449
 31
0.0
  0
LINE
  5
16B
330
17
100
AcDbEntity
  8
lens_outline
370
-3
100
AcDbLine
 10
56.425170068027214
 20
110.3265306122449
 30
0.0
 11
55.884353741496604
 21
110.3265306122449
 31
0.0
  0
LINE
  5
16C
330
17
100
AcDbEntity
  8
lens_outline
370
-3
100
AcDbLine
 10
55.884353741496604
 20
110.3265306122449
 30
0.0
 11
55.704081632653065
 21
110.50680272108843
 31
0.0
  0
LINE
  5
16D
330
17
100
AcDbEntity
  8
lens_outline
370
-3
100
AcDbLine
 10
55.704081632653065
 20
110.50680272108843
 30
0.0
 11
55.343537414965986
 21
110.50680272108843
 31
0.0
  0
LINE
  5
16E
330
17
100
AcDbEntity
  8
lens_outline
370
-3
100
AcDbLine
 10
55.343537414965986
 20
110.50680272108843
 30
0.0
 11
55.16326530612245
 21
110.68707482993197
 31
0.0
  0
LINE
  5
16F
330
17
100
AcDbEntity
  8
lens_outline
370
-3
100
AcDbLine
 10
55.16326530612245
 20
110.68707482993197
 30
0.0
 11
54.802721088435376
 21
110.68707482993197
 31
0.0
  0
LINE
  5
170
330
17
100
AcDbEntity
  8
lens_outline
370
-3
100
AcDbLine
 10
54.802721088435376
 20
110.68707482993197
 30
0.0
 11
54.62244897959184
 21
110.86734693877551
 31
0.0
  0
LINE
  5
171
330
17
100
AcDbEntity
  8
lens_outline
370
-3
100
AcDbLine
 10
54.62244897959184
 20
110.86734693877551
 30
0.0
 11
54.261904761904766
 21
110.86734693877551
 31
0.0
  0
LINE
  5
172
330
17
100
AcDbEntity
  8
lens_outline
370
-3
100
AcDbLine
 10
54.261904761904766
 20
110.86734693877551
 30
0.0
 11
54.08163265306123
 21
111.04761904761905
 31
0.0
  0
LINE
  5
173
330
17
100
AcDbEntity
  8
lens_outline
370
-3
100
AcDbLine
 10
54.08163265306123
 20
111.04761904761905
 30
0.0
 11
53.72108843537415
 21
111.04761904761905
 31
0.0
  0
LINE
  5
174
330
17
100
AcDbEntity
  8
lens_outline
370
-3
100
AcDbLine
 10
53.72108843537415
 20
111.04761904761905
 30
0.0
 11
53.54081632653062
 21
111.22789115646259
 31
0.0
  0
LINE
  5
175
330
17
100
AcDbEntity
  8
lens_outline
370
-3
100
AcDbLine
 10
53.54081632653062
 20
111.22789115646259
 30
0.0
 11
53.18027210884354
 21
111.22789115646259
 31
0.0
  0
LINE
  5
176
330
17
100
AcDbEntity
  8
lens_outline
370
-3
100
AcDbLine
 10
53.18027210884354
 20
111.22789115646259
 30
0.0
 11
53.0
 21
111.40816326530613
 31
0.0
  0
LINE
  5
177
330
17
100
AcDbEntity
  8
lens_outline
370
-3
100
AcDbLine
 10
53.0
 20
111.40816326530613
 30
0.0
 11
52.81972789115646
 21
111.40816326530613
 31
0.0
  0
LINE
  5
178
330
17
100
AcDbEntity
  8
lens_outline
370
-3
100
AcDbLine
 10
52.81972789115646
 20
111.40816326530613
 30
0.0
 11
52.45918367346939
 21
111.76870748299321
 31
0.0
  0
LINE
  5
179
330
17
100
AcDbEntity
  8
lens_outline
370
-3
100
AcDbLine
 10
52.45918367346939
 20
111.76870748299321
 30
0.0
 11
52.09863945578231
 21
111.76870748299321
 31
0.0
  0
LINE
  5
17A
330
17
100
AcDbEntity
  8
lens_outline
370
-3
100
AcDbLine
 10
52.09863945578231
 20
111.76870748299321
 30
0.0
 11
51.37755102040816
 21
112.48979591836735
 31
0.0
  0
LINE
  5
17B
330
17
100
AcDbEntity
  8
lens_outline
370
-3
100
AcDbLine
 10
51.37755102040816
 20
112.48979591836735
 30
0.0
 11
51.37755102040816
 21
112.67006802721089
 31
0.0
  0
LINE
  5
17C
330
17
100
AcDbEntity
  8
lens_outline
370
-3
100
AcDbLine
 10
51.37755102040816
 20
112.67006802721089
 30
0.0
 11
51.19727891156463
 21
112.85034013605443
 31
0.0
  0
LINE
  5
17D
330
17
100
AcDbEntity
  8
lens_outline
370
-3
100
AcDbLine
 10
51.19727891156463
 20
112.85034013605443
 30
0.0
 11
51.19727891156463
 21
113.2108843537415
 31
0.0
  0
LINE
  5
17E
330
17
100
AcDbEntity
  8
lens_outline
370
-3
100
AcDbLine
 10
51.19727891156463
 20
113.2108843537415
 30
0.0
 11
51.01700680272109
 21
113.39115646258504
 31
0.0
  0
LINE
  5
17F
330
17
100
AcDbEntity
  8
lens_outline
370
-3
100
AcDbLine
 10
51.01700680272109
 20
113.39115646258504
 30
0.0
 11
51.01700680272109
 21
113.75170068027211
 31
0.0
  0
LINE
  5
180
330
17
100
AcDbEntity
  8
lens_outline
370
-3
100
AcDbLine
 10
51.01700680272109
 20
113.75170068027211
 30
0.0
 11
50.83673469387755
 21
113.93197278911565
 31
0.0
  0
LINE
  5
181
330
17
100
AcDbEntity
  8
lens_outline
370
-3
100
AcDbLine
 10
50.83673469387755
 20
113.93197278911565
 30
0.0
 11
50.83673469387755
 21
114.29251700680273
 31
0.0
  0
LINE
  5
182
330
17
100
AcDbEntity
  8
lens_outline
370
-3
100
AcDbLine
 10
50.83673469387755
 20
114.29251700680273
 30
0.0
 11
50.656462585034014
 21
114.47278911564626
 31
0.0
  0
LINE
  5
183
330
17
100
AcDbEntity
  8
lens_outline
370
-3
100
AcDbLine
 10
50.656462585034014
 20
114.47278911564626
 30
0.0
 11
50.656462585034014
 21
115.01360544217687
 31
0.0
  0
LINE
  5
184
330
17
100
AcDbEntity
  8
lens_outline
370
-3
100
AcDbLine
 10
50.656462585034014
 20
115.01360544217687
 30
0.0
 11
50.476190476190474
 21
115.1938775510204
 31
0.0
  0
LINE
  5
185
330
17
100
AcDbEntity
  8
lens_outline
370
-3
100
AcDbLine
 10
50.476190476190474
 20
115.1938775510204
 30
0.0
 11
50.476190476190474
 21
115.55442176870748
 31
0.0
  0
LINE
  5
186
330
17
100
AcDbEntity
  8
lens_outline
370
-3
100
AcDbLine
 10
50.476190476190474
 20
115.55442176870748
 30
0.0
 11
50.29591836734694
 21
115.73469387755102
 31
0.0
  0
LINE
  5
187
330
17
100
AcDbEntity
  8
lens_outline
370
-3
100
AcDbLine
 10
50.29591836734694
 20
115.73469387755102
 30
0.0
 11
50.29591836734694
 21
116.27551020408164
 31
0.0
  0
LINE
  5
188
330
17
100
AcDbEntity
  8
lens_outline
370
-3
100
AcDbLine
 10
50.29591836734694
 20
116.27551020408164
 30
0.0
 11
50.1156462585034
 21
116.45578231292518
 31
0.0
  0
LINE
  5
189
330
17
100
AcDbEntity
  8
lens_outline
370
-3
100
AcDbLine
 10
50.1156462585034
 20
116.45578231292518
 30
0.0
 11
50.1156462585034
 21
117.17687074829932
 31
0.0
  0
LINE
  5
18A
330
17
100
AcDbEntity
  8
lens_outline
370
-3
100
AcDbLine
 10
50.1156462585034
 20
117.17687074829932
 30
0.0
 11
49.935374149659864
 21
117.35714285714286
 31
0.0
  0
LINE
  5
18B
330
17
100
AcDbEntity
  8
lens_outline
370
-3
100
AcDbLine
 10
49.935374149659864
 20
117.35714285714286
 30
0.0
 11
49.935374149659864
 21
118.9795918367347
 31
0.0
  0
LINE
  5
18C
330
17
100
AcDbEntity
  8
lens_outline
370
-3
100
AcDbLine
 10
49.935374149659864
 20
118.9795918367347
 30
0.0
 11
49.755102040816325
 21
119.15986394557824
 31
0.0
  0
LINE
  5
18D
330
17
100
AcDbEntity
  8
lens_outline
370
-3
100
AcDbLine
 10
49.755102040816325
 20
119.15986394557824
 30
0.0
 11
49.755102040816325
 21
131.23809523809524
 31
0.0
  0
LINE
  5
18E
330
17
100
AcDbEntity
  8
lens_outline
370
-3
100
AcDbLine
 10
49.755102040816325
 20
131.23809523809524
 30
0.0
 11
49.935374149659864
 21
131.41836734693877
 31
0.0
  0
LINE
  5
18F
330
17
100
AcDbEntity
  8
lens_outline
370
-3
100
AcDbLine
 10
49.935374149659864
 20
131.41836734693877
 30
0.0
 11
49.935374149659864
 21
133.76190476190476
 31
0.0
  0
LINE
  5
190
330
17
100
AcDbEntity
  8
lens_outline
370
-3
100
AcDbLine
 10
49.935374149659864
 20
133.76190476190476
 30
0.0
 11
50.1156462585034
 21
133.9421768707483
 31
0.0
  0
LINE
  5
191
330
17
100
AcDbEntity
  8
lens_outline
370
-3
100
AcDbLine
 10
50.1156462585034
 20
133.9421768707483
 30
0.0
 11
50.1156462585034
 21
134.843537414966
 31
0.0
  0
LINE
  5
192
330
17
100
AcDbEntity
  8
lens_outline
370
-3
100
AcDbLine
 10
50.1156462585034
 20
134.843537414966
 30
0.0
 11
50.29591836734694
 21
135.02380952380952
 31
0.0
  0
LINE
  5
193
330
17
100
AcDbEntity
  8
lens_outline
370
-3
100
AcDbLine
 10
50.29591836734694
 20
135.02380952380952
 30
0.0
 11
50.29591836734694
 21
135.92517006802723
 31
0.0
  0
LINE
  5
194
330
17
100
AcDbEntity
  8
lens_outline
370
-3
100
AcDbLine
 10
50.29591836734694
 20
135.92517006802723
 30
0.0
 11
50.476190476190474
 21
136.10544217687075
 31
0.0
  0
LINE
  5
195
330
17
100
AcDbEntity
  8
lens_outline
370
-3
100
AcDbLine
 10
50.476190476190474
 20
136.10544217687075
 30
0.0
 11
50.476190476190474
 21
136.64625850340136
 31
0.0
  0
LINE
  5
196
330
17
100
AcDbEntity
  8
lens_outline
370
-3
100
AcDbLine
 10
50.476190476190474
 20
136.64625850340136
 30
0.0
 11
50.656462585034014
 21
136.8265306122449
 31
0.0
  0
LINE
  5
197
330
17
100
AcDbEntity
  8
lens_outline
370
-3
100
AcDbLine
 10
50.656462585034014
 20
136.8265306122449
 30
0.0
 11
50.656462585034014
 21
137.3673469387755
 31
0.0
  0
LINE
  5
198
330
17
100
AcDbEntity
  8
lens_outline
370
-3
100
AcDbLine
 10
50.656462585034014
 20
137.3673469387755
 30
0.0
 11
50.83673469387755
 21
137.54761904761907
 31
0.0
  0
LINE
  5
199
330
17
100
AcDbEntity
  8
lens_outline
370
-3
100
AcDbLine
 10
50.83673469387755
 20
137.54761904761907
 30
0.0
 11
50.83673469387755
 21
137.90816326530611
 31
0.0
  0
LINE
  5
19A
330
17
100
AcDbEntity
  8
lens_outline
370
-3
100
AcDbLine
 10
50.83673469387755
 20
137.90816326530611
 30
0.0
 11
51.01700680272109
 21
138.08843537414967
 31
0.0
  0
LINE
  5
19B
330
17
100
AcDbEntity
  8
lens_outline
370
-3
100
AcDbLine
 10
51.01700680272109
 20
138.08843537414967
 30
0.0
 11
51.01700680272109
 21
138.2687074829932
 31
0.0
  0
LINE
  5
19C
330
17
100
AcDbEntity
  8
lens_outline
370
-3
100
AcDbLine
 10
51.01700680272109
 20
138.2687074829932
 30
0.0
 11
51.19727891156463
 21
138.44897959183675
 31
0.0
  0
LINE
  5
19D
330
17
100
AcDbEntity
  8
lens_outline
370
-3
100
AcDbLine
 10
51.19727891156463
 20
138.44897959183675
 30
0.0
 11
51.19727891156463
 21
138.80952380952382
 31
0.0
  0
LINE
  5
19E
330
17
100
AcDbEntity
  8
lens_outline
370
-3
100
AcDbLine
 10
51.19727891156463
 20
138.80952380952382
 30
0.0
 11
51.37755102040816
 21
138.98979591836735
 31
0.0
  0
LINE
  5
19F
330
17
100
AcDbEntity
  8
lens_outline
370
-3
100
AcDbLine
 10
51.37755102040816
 20
138.98979591836735
 30
0.0
 11
51.37755102040816
 21
139.1700680272109
 31
0.0
  0
LINE
  5
1A0
330
17
100
AcDbEntity
  8
lens_outline
370
-3
100
AcDbLine
 10
51.37755102040816
 20
139.1700680272109
 30
0.0
 11
51.5578231292517
 21
139.35034013605443
 31
0.0
  0
LINE
  5
1A1
330
17
100
AcDbEntity
  8
lens_outline
370
-3
100
AcDbLine
 10
51.5578231292517
 20
139.35034013605443
 30
0.0
 11
51.5578231292517
 21
139.53061224489795
 31
0.0
  0
LINE
  5
1A2
330
17
100
AcDbEntity
  8
lens_outline
370
-3
100
AcDbLine
 10
51.5578231292517
 20
139.53061224489795
 30
0.0
 11
51.73809523809524
 21
139.7108843537415
 31
0.0
  0
LINE
  5
1A3
330
17
100
AcDbEntity
  8
lens_outline
370
-3
100
AcDbLine
 10
51.73809523809524
 20
139.7108843537415
 30
0.0
 11
51.73809523809524
 21
139.89115646258503
 31
0.0
  0
LINE
  5
1A4
330
17
100
AcDbEntity
  8
lens_outline
370
-3
100
AcDbLine
 10
51.73809523809524
 20
139.89115646258503
 30
0.0
 11
51.91836734693878
 21
140.07142857142858
 31
0.0
  0
LINE
  5
1A5
330
17
100
AcDbEntity
  8
lens_outline
370
-3
100
AcDbLine
 10
51.91836734693878
 20
140.07142857142858
 30
0.0
 11
51.91836734693878
 21
140.6122448979592
 31
0.0
  0
LINE
  5
1A6
330
17
100
AcDbEntity
  8
lens_outline
370
-3
100
AcDbLine
 10
51.91836734693878
 20
140.6122448979592
 30
0.0
 11
52.27891156462585
 21
140.97278911564626
 31
0.0
  0
LINE
  5
1A7
330
17
100
AcDbEntity
  8
lens_outline
370
-3
100
AcDbLine
 10
52.27891156462585
 20
140.97278911564626
 30
0.0
 11
52.27891156462585
 21
141.1530612244898
 31
0.0
  0
LINE
  5
1A8
330
17
100
AcDbEntity
  8
lens_outline
370
-3
100
AcDbLine
 10
52.27891156462585
 20
141.1530612244898
 30
0.0
 11
52.45918367346939
 21
141.33333333333334
 31
0.0
  0
LINE
  5
1A9
330
17
100
AcDbEntity
  8
lens_outline
370
-3
100
AcDbLine
 10
52.45918367346939
 20
141.33333333333334
 30
0.0
 11
52.45918367346939
 21
141.51360544217687
 31
0.0
  0
LINE
  5
1AA
330
17
100
AcDbEntity
  8
lens_outline
370
-3
100
AcDbLine
 10
52.45918367346939
 20
141.51360544217687
 30
0.0
 11
52.63945578231293
 21
141.69387755102042
 31
0.0
  0
LINE
  5
1AB
330
17
100
AcDbEntity
  8
lens_outline
370
-3
100
AcDbLine
 10
52.63945578231293
 20
141.69387755102042
 30
0.0
 11
52.63945578231293
 21
141.87414965986395
 31
0.0
  0
LINE
  5
1AC
330
17
100
AcDbEntity
  8
lens_outline
370
-3
100
AcDbLine
 10
52.63945578231293
 20
141.87414965986395
 30
0.0
 11
53.0
 21
142.23469387755102
 31
0.0
  0
LINE
  5
1AD
330
17
100
AcDbEntity
  8
lens_outline
370
-3
100
AcDbLine
 10
53.0
 20
142.23469387755102
 30
0.0
 11
53.0
 21
142.41496598639455
 31
0.0
  0
LINE
  5
1AE
330
17
100
AcDbEntity
  8
lens_outline
370
-3
100
AcDbLine
 10
53.0
 20
142.41496598639455
 30
0.0
 11
53.18027210884354
 21
142.5952380952381
 31
0.0
  0
LINE
  5
1AF
330
17
100
AcDbEntity
  8
lens_outline
370
-3
100
AcDbLine
 10
53.18027210884354
 20
142.5952380952381
 30
0.0
 11
53.18027210884354
 21
142.77551020408163
 31
0.0
  0
LINE
  5
1B0
330
17
100
AcDbEntity
  8
lens_outline
370
-3
100
AcDbLine
 10
53.18027210884354
 20
142.77551020408163
 30
0.0
 11
53.72108843537415
 21
143.31632653061226
 31
0.0
  0
LINE
  5
1B1
330
17
100
AcDbEntity
  8
lens_outline
370
-3
100
AcDbLine
 10
53.72108843537415
 20
143.31632653061226
 30
0.0
 11
53.72108843537415
 21
143.49659863945578
 31
0.0
  0
LINE
  5
1B2
330
17
100
AcDbEntity
  8
lens_outline
370
-3
100
AcDbLine
 10
53.72108843537415
 20
143.49659863945578
 30
0.0
 11
56.785714285714285
 21
146.56122448979593
 31
0.0
  0
LINE
  5
1B3
330
17
100
AcDbEntity
  8
lens_outline
370
-3
100
AcDbLine
 10
56.785714285714285
 20
146.56122448979593
 30
0.0
 11
56.965986394557824
 21
146.56122448979593
 31
0.0
  0
LINE
  5
1B4
330
17
100
AcDbEntity
  8
lens_outline
370
-3
100
AcDbLine
 10
56.965986394557824
 20
146.56122448979593
 30
0.0
 11
57.68707482993197
 21
147.28231292517006
 31
0.0
  0
LINE
  5
1B5
330
17
100
AcDbEntity
  8
lens_outline
370
-3
100
AcDbLine
 10
57.68707482993197
 20
147.28231292517006
 30
0.0
 11
58.04761904761905
 21
147.28231292517006
 31
0.0
  0
LINE
  5
1B6
330
17
100
AcDbEntity
  8
lens_outline
370
-3
100
AcDbLine
 10
58.04761904761905
 20
147.28231292517006
 30
0.0
 11
58.22789115646259
 21
147.4625850340136
 31
0.0
  0
LINE
  5
1B7
330
17
100
AcDbEntity
  8
lens_outline
370
-3
100
AcDbLine
 10
58.22789115646259
 20
147.4625850340136
 30
0.0
 11
58.40816326530612
 21
147.4625850340136
 31
0.0
  0
LINE
  5
1B8
330
17
100
AcDbEntity
  8
lens_outline
370
-3
100
AcDbLine
 10
58.40816326530612
 20
147.4625850340136
 30
0.0
 11
58.7687074829932
 21
147.8231292517007
 31
0.0
  0
LINE
  5
1B9
330
17
100
AcDbEntity
  8
lens_outline
370
-3
100
AcDbLine
 10
58.7687074829932
 20
147.8231292517007
 30
0.0
 11
58.94897959183674
 21
147.8231292517007
 31
0.0
  0
LINE
  5
1BA
330
17
100
AcDbEntity
  8
lens_outline
370
-3
100
AcDbLine
 10
58.94897959183674
 20
147.8231292517007
 30
0.0
 11
59.12925170068027
 21
148.00340136054422
 31
0.0
  0
LINE
  5
1BB
330
17
100
AcDbEntity
  8
lens_outline
370
-3
100
AcDbLine
 10
59.12925170068027
 20
148.00340136054422
 30
0.0
 11
59.48979591836735
 21
148.00340136054422
 31
0.0
  0
LINE
  5
1BC
330
17
100
AcDbEntity
  8
lens_outline
370
-3
100
AcDbLine
 10
59.48979591836735
 20
148.00340136054422
 30
0.0
 11
59.85034013605442
 21
148.3639455782313
 31
0.0
  0
LINE
  5
1BD
330
17
100
AcDbEntity
  8
lens_outline
370
-3
100
AcDbLine
 10
59.85034013605442
 20
148.3639455782313
 30
0.0
 11
60.2108843537415
 21
148.3639455782313
 31
0.0
  0
LINE
  5
1BE
330
17
100
AcDbEntity
  8
lens_outline
370
-3
100
AcDbLine
 10
60.2108843537415
 20
148.3639455782313
 30
0.0
 11
60.39115646258504
 21
148.54421768707485
 31
0.0
  0
LINE
  5
1BF
330
17
100
AcDbEntity
  8
lens_outline
370
-3
100
AcDbLine
 10
60.39115646258504
 20
148.54421768707485
 30
0.0
 11
60.75170068027211
 21
148.54421768707485
 31
0.0
  0
LINE
  5
1C0
330
17
100
AcDbEntity
  8
lens_outline
370
-3
100
AcDbLine
 10
60.75170068027211
 20
148.54421768707485
 30
0.0
 11
60.93197278911565
 21
148.72448979591837
 31
0.0
  0
LINE
  5
1C1
330
17
100
AcDbEntity
  8
lens_outline
370
-3
100
AcDbLine
 10
60.93197278911565
 20
148.72448979591837
 30
0.0
 11
61.6530612244898
 21
148.72448979591837
 31
0.0
  0
LINE
  5
1C2
330
17
100
AcDbEntity
  8
lens_outline
370
-3
100
AcDbLine
 10
61.6530612244898
 20
148.72448979591837
 30
0.0
 11
61.833333333333336
 21
148.9047619047619
 31
0.0
  0
LINE
  5
1C3
330
17
100
AcDbEntity
  8
lens_outline
370
-3
100
AcDbLine
 10
61.833333333333336
 20
148.9047619047619
 30
0.0
 11
62.374149659863946
 21
148.9047619047619
 31
0.0
  0
LINE
  5
1C4
330
17
100
AcDbEntity
  8
lens_outline
370
-3
100
AcDbLine
 10
62.374149659863946
 20
148.9047619047619
 30
0.0
 11
62.554421768707485
 21
149.08503401360545
 31
0.0
  0
LINE
  5
1C5
330
17
100
AcDbEntity
  8
lens_outline
370
-3
100
AcDbLine
 10
62.554421768707485
 20
149.08503401360545
 30
0.0
 11
63.095238095238095
 21
149.08503401360545
 31
0.0
  0
LINE
  5
1C6
330
17
100
AcDbEntity
  8
lens_outline
370
-3
100
AcDbLine
 10
63.095238095238095
 20
149.08503401360545
 30
0.0
 11
63.275510204081634
 21
149.26530612244898
 31
0.0
  0
LINE
  5
1C7
330
17
100
AcDbEntity
  8
lens_outline
370
-3
100
AcDbLine
 10
63.275510204081634
 20
149.26530612244898
 30
0.0
 11
63.99659863945578
 21
149.26530612244898
 31
0.0
  0
LINE
  5
1C8
330
17
100
AcDbEntity
  8
lens_outline
370
-3
100
AcDbLine
 10
63.99659863945578
 20
149.26530612244898
 30
0.0
 11
64.17687074829932
 21
149.44557823129253
 31
0.0
  0
LINE
  5
1C9
330
17
100
AcDbEntity
  8
lens_outline
370
-3
100
AcDbLine
 10
64.17687074829932
 20
149.44557823129253
 30
0.0
 11
64.71768707482994
 21
149.44557823129253
 31
0.0
  0
LINE
  5
1CA
330
17
100
AcDbEntity
  8
lens_outline
370
-3
100
AcDbLine
 10
64.71768707482994
 20
149.44557823129253
 30
0.0
 11
64.89795918367348
 21
149.62585034013605
 31
0.0
  0
LINE
  5
1CB
330
17
100
AcDbEntity
  8
lens_outline
370
-3
100
AcDbLine
 10
64.89795918367348
 20
149.62585034013605
 30
0.0
 11
65.79931972789116
 21
149.62585034013605
 31
0.0
  0
LINE
  5
1CC
330
17
100
AcDbEntity
  8
lens_outline
370
-3
100
AcDbLine
 10
65.79931972789116
 20
149.62585034013605
 30
0.0
 11
65.9795918367347
 21
149.8061224489796
 31
0.0
  0
LINE
  5
1CD
330
17
100
AcDbEntity
  8
lens_outline
370
-3
100
AcDbLine
 10
65.9795918367347
 20
149.8061224489796
 30
0.0
 11
67.24149659863946
 21
149.8061224489796
 31
0.0
  0
LINE
  5
1CE
330
17
100
AcDbEntity
  8
lens_outline
370
-3
100
AcDbLine
 10
67.24149659863946
 20
149.8061224489796
 30
0.0
 11
67.421768707483
 21
149.98639455782313
 31
0.0
  0
LINE
  5
1CF
330
17
100
AcDbEntity
  8
lens_outline
370
-3
100
AcDbLine
 10
67.421768707483
 20
149.98639455782313
 30
0.0
 11
71.38775510204081
 21
149.98639455782313
 31
0.0
  0
LINE
  5
1D0
330
17
100
AcDbEntity
  8
lens_outline
370
-3
100
AcDbLine
 10
71.38775510204081
 20
149.98639455782313
 30
0.0
 11
71.56802721088435
 21
150.16666666666669
 31
0.0
  0
LINE
  5
1D1
330
17
100
AcDbEntity
  8
lens_outline
370
-3
100
AcDbLine
 10
71.56802721088435
 20
150.16666666666669
 30
0.0
 11
85.80952380952381
 21
150.16666666666669
 31
0.0
  0
LINE
  5
1D2
330
17
100
AcDbEntity
  8
lens_outline
370
-3
100
AcDbLine
 10
85.80952380952381
 20
150.16666666666669
 30
0.0
 11
85.98979591836735
 21
149.98639455782313
 31
0.0
  0
LINE
  5
1D3
330
17
100
AcDbEntity
  8
lens_outline
370
-3
100
AcDbLine
 10
85.98979591836735
 20
149.98639455782313
 30
0.0
 11
88.1530612244898
 21
149.98639455782313
 31
0.0
  0
LINE
  5
1D4
330
17
100
AcDbEntity
  8
lens_outline
370
-3
100
AcDbLine
 10
88.1530612244898
 20
149.98639455782313
 30
0.0
 11
88.33333333333334
 21
149.8061224489796
 31
0.0
  0
LINE
  5
1D5
330
17
100
AcDbEntity
  8
lens_outline
370
-3
100
AcDbLine
 10
88.33333333333334
 20
149.8061224489796
 30
0.0
 11
89.23469387755102
 21
149.8061224489796
 31
0.0
  0
LINE
  5
1D6
330
17
100
AcDbEntity
  8
lens_outline
370
-3
100
AcDbLine
 10
89.23469387755102
 20
149.8061224489796
 30
0.0
 11
89.41496598639456
 21
149.62585034013605
 31
0.0
  0
LINE
  5
1D7
330
17
100
AcDbEntity
  8
lens_outline
370
-3
100
AcDbLine
 10
89.41496598639456
 20
149.62585034013605
 30
0.0
 11
90.31632653061224
 21
149.62585034013605
 31
0.0
  0
LINE
  5
1D8
330
17
100
AcDbEntity
  8
lens_outline
370
-3
100
AcDbLine
 10
90.31632653061224
 20
149.62585034013605
 30
0.0
 11
90.49659863945578
 21
149.44557823129253
 31
0.0
  0
LINE
  5
1D9
330
17
100
AcDbEntity
  8
lens_outline
370
-3
100
AcDbLine
 10
90.49659863945578
 20
149.44557823129253
 30
0.0
 11
90.85714285714286
 21
149.44557823129253
 31
0.0
  0
LINE
  5
1DA
330
17
100
AcDbEntity
  8
lens_outline
370
-3
100
AcDbLine
 10
90.85714285714286
 20
149.44557823129253
 30
0.0
 11
91.0374149659864
 21
149.26530612244898
 31
0.0
  0
LINE
  5
1DB
330
17
100
AcDbEntity
  8
lens_outline
370
-3
100
AcDbLine
 10
91.0374149659864
 20
149.26530612244898
 30
0.0
 11
91.75850340136054
 21
149.26530612244898
 31
0.0
  0
LINE
  5
1DC
330
17
100
AcDbEntity
  8
lens_outline
370
-3
100
AcDbLine
 10
91.75850340136054
 20
149.26530612244898
 30
0.0
 11
91.93877551020408
 21
149.08503401360545
 31
0.0
  0
LINE
  5
1DD
330
17
100
AcDbEntity
  8
lens_outline
370
-3
100
AcDbLine
 10
91.93877551020408
 20
149.08503401360545
 30
0.0
 11
92.4795918367347
 21
149.08503401360545
 31
0.0
  0
LINE
  5
1DE
330
17
100
AcDbEntity
  8
lens_outline
370
-3
100
AcDbLine
 10
92.4795918367347
 20
149.08503401360545
 30
0.0
 11
92.65986394557824
 21
148.9047619047619
 31
0.0
  0
LINE
  5
1DF
330
17
100
AcDbEntity
  8
lens_outline
370
-3
100
AcDbLine
 10
92.65986394557824
 20
148.9047619047619
 30
0.0
 11
93.20068027210884
 21
148.9047619047619
 31
0.0
  0
LINE
  5
1E0
330
17
100
AcDbEntity
  8
lens_outline
370
-3
100
AcDbLine
 10
93.20068027210884
 20
148.9047619047619
 30
0.0
 11
93.38095238095238
 21
148.72448979591837
 31
0.0
  0
LINE
  5
1E1
330
17
100
AcDbEntity
  8
lens_outline
370
-3
100
AcDbLine
 10
93.38095238095238
 20
148.72448979591837
 30
0.0
 11
93.921768707483
 21
148.72448979591837
 31
0.0
  0
LINE
  5
1E2
330
17
100
AcDbEntity
  8
lens_outline
370
-3
100
AcDbLine
 10
93.921768707483
 20
148.72448979591837
 30
0.0
 11
94.10204081632654
 21
148.54421768707485
 31
0.0
  0
LINE
  5
1E3
330
17
100
AcDbEntity
  8
lens_outline
370
-3
100
AcDbLine
 10
94.10204081632654
 20
148.54421768707485
 30
0.0
 11
94.64285714285715
 21
148.54421768707485
 31
0.0
  0
LINE
  5
1E4
330
17
100
AcDbEntity
  8
lens_outline
370
-3
100
AcDbLine
 10
94.64285714285715
 20
148.54421768707485
 30
0.0
 11
94.82312925170068
 21
148.3639455782313
 31
0.0
  0
LINE
  5
1E5
330
17
100
AcDbEntity
  8
lens_outline
370
-3
100
AcDbLine
 10
94.82312925170068
 20
148.3639455782313
 30
0.0
 11
95.18367346938776
 21
148.3639455782313
 31
0.0
  0
LINE
  5
1E6
330
17
100
AcDbEntity
  8
lens_outline
370
-3
100
AcDbLine
 10
95.18367346938776
 20
148.3639455782313
 30
0.0
 11
95.3639455782313
 21
148.18367346938777
 31
0.0
  0
LINE
  5
1E7
330
17
100
AcDbEntity
  8
lens_outline
370
-3
100
AcDbLine
 10
95.3639455782313
 20
148.18367346938777
 30
0.0
 11
95.54421768707483
 21
148.18367346938777
 31
0.0
  0
LINE
  5
1E8
330
17
100
AcDbEntity
  8
lens_outline
370
-3
100
AcDbLine
 10
95.54421768707483
 20
148.18367346938777
 30
0.0
 11
95.72448979591837
 21
148.00340136054422
 31
0.0
  0
LINE
  5
1E9
330
17
100
AcDbEntity
  8
lens_outline
370
-3
100
AcDbLine
 10
95.72448979591837
 20
148.00340136054422
 30
0.0
 11
96.08503401360545
 21
148.00340136054422
 31
0.0
  0
LINE
  5
1EA
330
17
100
AcDbEntity
  8
lens_outline
370
-3
100
AcDbLine
 10
96.08503401360545
 20
148.00340136054422
 30
0.0
 11
96.26530612244898
 21
147.8231292517007
 31
0.0
  0
LINE
  5
1EB
330
17
100
AcDbEntity
  8
lens_outline
370
-3
100
AcDbLine
 10
96.26530612244898
 20
147.8231292517007
 30
0.0
 11
96.62585034013605
 21
147.8231292517007
 31
0.0
  0
LINE
  5
1EC
330
17
100
AcDbEntity
  8
lens_outline
370
-3
100
AcDbLine
 10
96.62585034013605
 20
147.8231292517007
 30
0.0
 11
96.8061224489796
 21
147.64285714285714
 31
0.0
  0
LINE
  5
1ED
330
17
100
AcDbEntity
  8
lens_outline
370
-3
100
AcDbLine
 10
96.8061224489796
 20
147.64285714285714
 30
0.0
 11
97.16666666666667
 21
147.64285714285714
 31
0.0
  0
LINE
  5
1EE
330
17
100
AcDbEntity
  8
lens_outline
370
-3
100
AcDbLine
 10
97.16666666666667
 20
147.64285714285714
 30
0.0
 11
97.34693877551021
 21
147.4625850340136
 31
0.0
  0
LINE
  5
1EF
330
17
100
AcDbEntity
  8
lens_outline
370
-3
100
AcDbLine
 10
97.34693877551021
 20
147.4625850340136
 30
0.0
 11
97.52721088435375
 21
147.4625850340136
 31
0.0
  0
LINE
  5
1F0
330
17
100
AcDbEntity
  8
lens_outline
370
-3
100
AcDbLine
 10
97.52721088435375
 20
147.4625850340136
 30
0.0
 11
97.70748299319729
 21
147.28231292517006
 31
0.0
  0
LINE
  5
1F1
330
17
100
AcDbEntity
  8
lens_outline
370
-3
100
AcDbLine
 10
97.70748299319729
 20
147.28231292517006
 30
0.0
 11
97.88775510204081
 21
147.28231292517006
 31
0.0
  0
LINE
  5
1F2
330
17
100
AcDbEntity
  8
lens_outline
370
-3
100
AcDbLine
 10
97.88775510204081
 20
147.28231292517006
 30
0.0
 11
98.06802721088435
 21
147.10204081632654
 31
0.0
  0
LINE
  5
1F3
330
17
100
AcDbEntity
  8
lens_outline
370
-3
100
AcDbLine
 10
98.06802721088435
 20
147.10204081632654
 30
0.0
 11
98.24829931972789
 21
147.10204081632654
 31
0.0
  0
LINE
  5
1F4
330
17
100
AcDbEntity
  8
lens_outline
370
-3
100
AcDbLine
 10
98.24829931972789
 20
147.10204081632654
 30
0.0
 11
98.42857142857143
 21
146.921768707483
 31
0.0
  0
LINE
  5
1F5
330
17
100
AcDbEntity
  8
lens_outline
370
-3
100
AcDbLine
 10
98.42857142857143
 20
146.921768707483
 30
0.0
 11
98.60884353741497
 21
146.921768707483
 31
0.0
  0
LINE
  5
1F6
330
17
100
AcDbEntity
  8
lens_outline
370
-3
100
AcDbLine
 10
98.60884353741497
 20
146.921768707483
 30
0.0
 11
98.78911564625851
 21
146.74149659863946
 31
0.0
  0
LINE
  5
1F7
330
17
100
AcDbEntity
  8
lens_outline
370
-3
100
AcDbLine
 10
98.78911564625851
 20
146.74149659863946
 30
0.0
 11
98.96938775510205
 21
146.74149659863946
 31
0.0
  0
LINE
  5
1F8
330
17
100
AcDbEntity
  8
lens_outline
370
-3
100
AcDbLine
 10
98.96938775510205
 20
146.74149659863946
 30
0.0
 11
99.14965986394559
 21
146.56122448979593
 31
0.0
  0
LINE
  5
1F9
330
17
100
AcDbEntity
  8
lens_outline
370
-3
100
AcDbLine
 10
99.14965986394559
 20
146.56122448979593
 30
0.0
 11
99.32993197278913
 21
146.56122448979593
 31
0.0
  0
LINE
  5
1FA
330
17
100
AcDbEntity
  8
lens_outline
370
-3
100
AcDbLine
 10
99.32993197278913
 20
146.56122448979593
 30
0.0
 11
99.51020408163265
 21
146.38095238095238
 31
0.0
  0
LINE
  5
1FB
330
17
100
AcDbEntity
  8
lens_outline
370
-3
100
AcDbLine
 10
99.51020408163265
 20
146.38095238095238
 30
0.0
 11
99.69047619047619
 21
146.38095238095238
 31
0.0
  0
LINE
  5
1FC
330
17
100
AcDbEntity
  8
lens_outline
370
-3
100
AcDbLine
 10
99.69047619047619
 20
146.38095238095238
 30
0.0
 11
100.05102040816327
 21
146.0204081632653
 31
0.0
  0
LINE
  5
1FD
330
17
100
AcDbEntity
  8
lens_outline
370
-3
100
AcDbLine
 10
100.05102040816327
 20
146.0204081632653
 30
0.0
 11
100.2312925170068
 21
146.0204081632653
 31
0.0
  0
LINE
  5
1FE
330
17
100
AcDbEntity
  8
lens_outline
370
-3
100
AcDbLine
 10
100.2312925170068
 20
146.0204081632653
 30
0.0
 11
100.41156462585035
 21
145.84013605442178
 31
0.0
  0
LINE
  5
1FF
330
17
100
AcDbEntity
  8
lens_outline
370
-3
100
AcDbLine
 10
100.41156462585035
 20
145.84013605442178
 30
0.0
 11
100.59183673469389
 21
145.84013605442178
 31
0.0
  0
LINE
  5
200
330
17
100
AcDbEntity
  8
lens_outline
370
-3
100
AcDbLine
 10
100.59183673469389
 20
145.84013605442178
 30
0.0
 11
100.95238095238095
 21
145.4795918367347
 31
0.0
  0
LINE
  5
201
330
17
100
AcDbEntity
  8
lens_outline
370
-3
100
AcDbLine
 10
100.95238095238095
 20
145.4795918367347
 30
0.0
 11
101.31292517006803
 21
145.4795918367347
 31
0.0
  0
LINE
  5
202
330
17
100
AcDbEntity
  8
lens_outline
370
-3
100
AcDbLine
 10
101.31292517006803
 20
145.4795918367347
 30
0.0
 11
101.6734693877551
 21
145.11904761904762
 31
0.0
  0
LINE
  5
203
330
17
100
AcDbEntity
  8
lens_outline
370
-3
100
AcDbLine
 10
101.6734693877551
 20
145.11904761904762
 30
0.0
 11
101.85374149659864
 21
145.11904761904762
 31
0.0
  0
LINE
  5
204
330
17
100
AcDbEntity
  8
lens_outline
370
-3
100
AcDbLine
 10
101.85374149659864
 20
145.11904761904762
 30
0.0
 11
102.03401360544218
 21
144.9387755102041
 31
0.0
  0
LINE
  5
205
330
17
100
AcDbEntity
  8
lens_outline
370
-3
100
AcDbLine
 10
102.03401360544218
 20
144.9387755102041
 30
0.0
 11
102.21428571428572
 21
144.9387755102041
 31
0.0
  0
LINE
  5
206
330
17
100
AcDbEntity
  8
lens_outline
370
-3
100
AcDbLine
 10
102.21428571428572
 20
144.9387755102041
 30
0.0
 11
102.57482993197279
 21
144.57823129251702
 31
0.0
  0
LINE
  5
207
330
17
100
AcDbEntity
  8
lens_outline
370
-3
100
AcDbLine
 10
102.57482993197279
 20
144.57823129251702
 30
0.0
 11
102.75510204081633
 21
144.57823129251702
 31
0.0
  0
LINE
  5
208
330
17
100
AcDbEntity
  8
lens_outline
370
-3
100
AcDbLine
 10
102.75510204081633
 20
144.57823129251702
 30
0.0
 11
103.1156462585034
 21
144.21768707482994
 31
0.0
  0
LINE
  5
209
330
17
100
AcDbEntity
  8
lens_outline
370
-3
100
AcDbLine
 10
103.1156462585034
 20
144.21768707482994
 30
0.0
 11
103.29591836734694
 21
144.21768707482994
 31
0.0
  0
LINE
  5
20A
330
17
100
AcDbEntity
  8
lens_outline
370
-3
100
AcDbLine
 10
103.29591836734694
 20
144.21768707482994
 30
0.0
 11
103.65646258503402
 21
143.85714285714286
 31
0.0
  0
LINE
  5
20B
330
17
100
AcDbEntity
  8
lens_outline
370
-3
100
AcDbLine
 10
103.65646258503402
 20
143.85714285714286
 30
0.0
 11
103.83673469387756
 21
143.85714285714286
 31
0.0
  0
LINE
  5
20C
330
17
100
AcDbEntity
  8
lens_outline
370
-3
100
AcDbLine
 10
103.83673469387756
 20
143.85714285714286
 30
0.0
 11
104.0170068027211
 21
143.67687074829934
 31
0.0
  0
LINE
  5
20D
330
17
100
AcDbEntity
  8
lens_outline
370
-3
100
AcDbLine
 10
104.0170068027211
 20
143.67687074829934
 30
0.0
 11
104.19727891156462
 21
143.67687074829934
 31
0.0
  0
LINE
  5
20E
330
17
100
AcDbEntity
  8
lens_outline
370
-3
100
AcDbLine
 10
104.19727891156462
 20
143.67687074829934
 30
0.0
 11
104.5578231292517
 21
143.31632653061226
 31
0.0
  0
LINE
  5
20F
330
17
100
AcDbEntity
  8
lens_outline
370
-3
100
AcDbLine
 10
104.5578231292517
 20
143.31632653061226
 30
0.0
 11
104.73809523809524
 21
143.31632653061226
 31
0.0
  0
LINE
  5
210
330
17
100
AcDbEntity
  8
lens_outline
370
-3
100
AcDbLine
 10
104.73809523809524
 20
143.31632653061226
 30
0.0
 11
105.27891156462586
 21
142.77551020408163
 31
0.0
  0
LINE
  5
211
330
17
100
AcDbEntity
  8
lens_outline
370
-3
100
AcDbLine
 10
105.27891156462586
 20
142.77551020408163
 30
0.0
 11
105.4591836734694
 21
142.77551020408163
 31
0.0
  0
LINE
  5
212
330
17
100
AcDbEntity
  8
lens_outline
370
-3
100
AcDbLine
 10
105.4591836734694
 20
142.77551020408163
 30
0.0
 11
107.26190476190476
 21
140.97278911564626
 31
0.0
  0
LINE
  5
213
330
17
100
AcDbEntity
  8
lens_outline
370
-3
100
AcDbLine
 10
107.26190476190476
 20
140.97278911564626
 30
0.0
 11
107.26190476190476
 21
140.79251700680274
 31
0.0
  0
LINE
  5
214
330
17
100
AcDbEntity
  8
lens_outline
370
-3
100
AcDbLine
 10
107.26190476190476
 20
140.79251700680274
 30
0.0
 11
107.62244897959184
 21
140.43197278911566
 31
0.0
  0
LINE
  5
215
330
17
100
AcDbEntity
  8
lens_outline
370
-3
100
AcDbLine
 10
107.62244897959184
 20
140.43197278911566
 30
0.0
 11
107.62244897959184
 21
140.2517006802721
 31
0.0
  0
LINE
  5
216
330
17
100
AcDbEntity
  8
lens_outline
370
-3
100
AcDbLine
 10
107.62244897959184
 20
140.2517006802721
 30
0.0
 11
107.98299319727892
 21
139.89115646258503
 31
0.0
  0
LINE
  5
217
330
17
100
AcDbEntity
  8
lens_outline
370
-3
100
AcDbLine
 10
107.98299319727892
 20
139.89115646258503
 30
0.0
 11
107.98299319727892
 21
139.53061224489795
 31
0.0
  0
LINE
  5
218
330
17
100
AcDbEntity
  8
lens_outline
370
-3
100
AcDbLine
 10
107.98299319727892
 20
139.53061224489795
 30
0.0
 11
108.16326530612245
 21
139.35034013605443
 31
0.0
  0
LINE
  5
219
330
17
100
AcDbEntity
  8
lens_outline
370
-3
100
AcDbLine
 10
108.16326530612245
 20
139.35034013605443
 30
0.0
 11
108.16326530612245
 21
139.1700680272109
 31
0.0
  0
LINE
  5
21A
330
17
100
AcDbEntity
  8
lens_outline
370
-3
100
AcDbLine
 10
108.16326530612245
 20
139.1700680272109
 30
0.0
 11
108.343537414966
 21
138.98979591836735
 31
0.0
  0
LINE
  5
21B
330
17
100
AcDbEntity
  8
lens_outline
370
-3
100
AcDbLine
 10
108.343537414966
 20
138.98979591836735
 30
0.0
 11
108.343537414966
 21
138.62925170068027
 31
0.0
  0
LINE
  5
21C
330
17
100
AcDbEntity
  8
lens_outline
370
-3
100
AcDbLine
 10
108.343537414966
 20
138.62925170068027
 30
0.0
 11
108.52380952380953
 21
138.44897959183675
 31
0.0
  0
LINE
  5
21D
330
17
100
AcDbEntity
  8
lens_outline
370
-3
100
AcDbLine
 10
108.52380952380953
 20
138.44897959183675
 30
0.0
 11
108.52380952380953
 21
138.08843537414967
 31
0.0
  0
LINE
  5
21E
330
17
100
AcDbEntity
  8
lens_outline
370
-3
100
AcDbLine
 10
108.52380952380953
 20
138.08843537414967
 30
0.0
 11
108.70408163265307
 21
137.90816326530611
 31
0.0
  0
LINE
  5
21F
330
17
100
AcDbEntity
  8
lens_outline
370
-3
100
AcDbLine
 10
108.70408163265307
 20
137.90816326530611
 30
0.0
 11
108.70408163265307
 21
137.54761904761907
 31
0.0
  0
LINE
  5
220
330
17
100
AcDbEntity
  8
lens_outline
370
-3
100
AcDbLine
 10
108.70408163265307
 20
137.54761904761907
 30
0.0
 11
108.8843537414966
 21
137.3673469387755
 31
0.0
  0
LINE
  5
221
330
17
100
AcDbEntity
  8
lens_outline
370
-3
100
AcDbLine
 10
108.8843537414966
 20
137.3673469387755
 30
0.0
 11
108.8843537414966
 21
137.187074829932
 31
0.0
  0
LINE
  5
222
330
17
100
AcDbEntity
  8
lens_outline
370
-3
100
AcDbLine
 10
108.8843537414966
 20
137.187074829932
 30
0.0
 11
109.06462585034014
 21
137.00680272108843
 31
0.0
  0
LINE
  5
223
330
17
100
AcDbEntity
  8
lens_outline
370
-3
100
AcDbLine
 10
109.06462585034014
 20
137.00680272108843
 30
0.0
 11
109.06462585034014
 21
136.8265306122449
 31
0.0
  0
LINE
  5
224
330
17
100
AcDbEntity
  8
lens_outline
370
-3
100
AcDbLine
 10
109.06462585034014
 20
136.8265306122449
 30
0.0
 11
109.24489795918367
 21
136.64625850340136
 31
0.0
  0
LINE
  5
225
330
17
100
AcDbEntity
  8
lens_outline
370
-3
100
AcDbLine
 10
109.24489795918367
 20
136.64625850340136
 30
0.0
 11
109.24489795918367
 21
136.10544217687075
 31
0.0
  0
LINE
  5
226
330
17
100
AcDbEntity
  8
lens_outline
370
-3
100
AcDbLine
 10
109.24489795918367
 20
136.10544217687075
 30
0.0
 11
109.42517006802721
 21
135.92517006802723
 31
0.0
  0
LINE
  5
227
330
17
100
AcDbEntity
  8
lens_outline
370
-3
100
AcDbLine
 10
109.42517006802721
 20
135.92517006802723
 30
0.0
 11
109.42517006802721
 21
134.843537414966
 31
0.0
  0
LINE
  5
228
330
17
100
AcDbEntity
  8
lens_outline
370
-3
100
AcDbLine
 10
109.42517006802721
 20
134.843537414966
 30
0.0
 11
109.60544217687075
 21
134.66326530612244
 31
0.0
  0
LINE
  5
229
330
17
100
AcDbEntity
  8
lens_outline
370
-3
100
AcDbLine
 10
109.60544217687075
 20
134.66326530612244
 30
0.0
 11
109.60544217687075
 21
133.58163265306123
 31
0.0
  0
LINE
  5
22A
330
17
100
AcDbEntity
  8
lens_outline
370
-3
100
AcDbLine
 10
109.60544217687075
 20
133.58163265306123
 30
0.0
 11
109.78571428571429
 21
133.40136054421768
 31
0.0
  0
LINE
  5
22B
330
17
100
AcDbEntity
  8
lens_outline
370
-3
100
AcDbLine
 10
109.78571428571429
 20
133.40136054421768
 30
0.0
 11
109.78571428571429
 21
118.9795918367347
 31
0.0
  0
LINE
  5
22C
330
17
100
AcDbEntity
  8
lens_outline
370
-3
100
AcDbLine
 10
109.78571428571429
 20
118.9795918367347
 30
0.0
 11
109.60544217687075
 21
118.79931972789116
 31
0.0
  0
LINE
  5
22D
330
17
100
AcDbEntity
  8
lens_outline
370
-3
100
AcDbLine
 10
109.60544217687075
 20
118.79931972789116
 30
0.0
 11
109.60544217687075
 21
118.43877551020408
 31
0.0
  0
LINE
  5
22E
330
17
100
AcDbEntity
  8
lens_outline
370
-3
100
AcDbLine
 10
109.60544217687075
 20
118.43877551020408
 30
0.0
 11
109.42517006802721
 21
118.25850340136054
 31
0.0
  0
LINE
  5
22F
330
17
100
AcDbEntity
  8
lens_outline
370
-3
100
AcDbLine
 10
109.42517006802721
 20
118.25850340136054
 30
0.0
 11
109.42517006802721
 21
117.71768707482994
 31
0.0
  0
LINE
  5
230
330
17
100
AcDbEntity
  8
lens_outline
370
-3
100
AcDbLine
 10
109.42517006802721
 20
117.71768707482994
 30
0.0
 11
109.24489795918367
 21
117.5374149659864
 31
0.0
  0
LINE
  5
231
330
17
100
AcDbEntity
  8
lens_outline
370
-3
100
AcDbLine
 10
109.24489795918367
 20
117.5374149659864
 30
0.0
 11
109.24489795918367
 21
117.35714285714286
 31
0.0
  0
LINE
  5
232
330
17
100
AcDbEntity
  8
lens_outline
370
-3
100
AcDbLine
 10
109.24489795918367
 20
117.35714285714286
 30
0.0
 11
108.8843537414966
 21
116.99659863945578
 31
0.0
  0
LINE
  5
233
330
17
100
AcDbEntity
  8
lens_outline
370
-3
100
AcDbLine
 10
108.8843537414966
 20
116.99659863945578
 30
0.0
 11
108.8843537414966
 21
116.81632653061224
 31
0.0
  0
LINE
  5
234
330
17
100
AcDbEntity
  8
lens_outline
370
-3
100
AcDbLine
 10
108.8843537414966
 20
116.81632653061224
 30
0.0
 11
108.52380952380953
 21
116.45578231292518
 31
0.0
  0
LINE
  5
235
330
17
100
AcDbEntity
  8
lens_outline
370
-3
100
AcDbLine
 10
108.52380952380953
 20
116.45578231292518
 30
0.0
 11
108.52380952380953
 21
116.27551020408164
 31
0.0
  0
LINE
  5
236
330
17
100
AcDbEntity
  8
lens_outline
370
-3
100
AcDbLine
 10
108.52380952380953
 20
116.27551020408164
 30
0.0
 11
107.98299319727892
 21
115.73469387755102
 31
0.0
  0
LINE
  5
237
330
17
100
AcDbEntity
  8
lens_outline
370
-3
100
AcDbLine
 10
107.98299319727892
 20
115.73469387755102
 30
0.0
 11
107.98299319727892
 21
115.55442176870748
 31
0.0
  0
LINE
  5
238
330
17
100
AcDbEntity
  8
lens_outline
370
-3
100
AcDbLine
 10
107.98299319727892
 20
115.55442176870748
 30
0.0
 11
106.0
 21
113.57142857142857
 31
0.0
  0
LINE
  5
239
330
17
100
AcDbEntity
  8
lens_outline
370
-3
100
AcDbLine
 10
106.0
 20
113.57142857142857
 30
0.0
 11
105.81972789115646
 21
113.57142857142857
 31
0.0
  0
LINE
  5
23A
330
17
100
AcDbEntity
  8
lens_outline
370
-3
100
AcDbLine
 10
105.81972789115646
 20
113.57142857142857
 30
0.0
 11
104.5578231292517
 21
112.30952380952381
 31
0.0
  0
LINE
  5
23B
330
17
100
AcDbEntity
  8
lens_outline
370
-3
100
AcDbLine
 10
104.5578231292517
 20
112.30952380952381
 30
0.0
 11
104.37755102040816
 21
112.30952380952381
 31
0.0
  0
LINE
  5
23C
330
17
100
AcDbEntity
  8
lens_outline
370
-3
100
AcDbLine
 10
104.37755102040816
 20
112.30952380952381
 30
0.0
 11
103.83673469387756
 21
111.76870748299321
 31
0.0
  0
LINE
  5
23D
330
17
100
AcDbEntity
  8
lens_outline
370
-3
100
AcDbLine
 10
103.83673469387756
 20
111.76870748299321
 30
0.0
 11
103.65646258503402
 21
111.76870748299321
 31
0.0
  0
LINE
  5
23E
330
17
100
AcDbEntity
  8
lens_outline
370
-3
100
AcDbLine
 10
103.65646258503402
 20
111.76870748299321
 30
0.0
 11
103.29591836734694
 21
111.40816326530613
 31
0.0
  0
LINE
  5
23F
330
17
100
AcDbEntity
  8
lens_outline
370
-3
100
AcDbLine
 10
103.29591836734694
 20
111.40816326530613
 30
0.0
 11
102.93537414965986
 21
111.40816326530613
 31
0.0
  0
LINE
  5
240
330
17
100
AcDbEntity
  8
lens_outline
370
-3
100
AcDbLine
 10
102.93537414965986
 20
111.40816326530613
 30
0.0
 11
102.75510204081633
 21
111.22789115646259
 31
0.0
  0
LINE
  5
241
330
17
100
AcDbEntity
  8
lens_outline
370
-3
100
AcDbLine
 10
102.75510204081633
 20
111.22789115646259
 30
0.0
 11
102.39455782312926
 21
111.22789115646259
 31
0.0
  0
LINE
  5
242
330
17
100
AcDbEntity
  8
lens_outline
370
-3
100
AcDbLine
 10
102.39455782312926
 20
111.22789115646259
 30
0.0
 11
102.21428571428572
 21
111.04761904761905
 31
0.0
  0
LINE
  5
243
330
17
100
AcDbEntity
  8
lens_outline
370
-3
100
AcDbLine
 10
102.21428571428572
 20
111.04761904761905
 30
0.0
 11
101.85374149659864
 21
111.04761904761905
 31
0.0
  0
LINE
  5
244
330
17
100
AcDbEntity
  8
lens_outline
370
-3
100
AcDbLine
 10
101.85374149659864
 20
111.04761904761905
 30
0.0
 11
101.6734693877551
 21
110.86734693877551
 31
0.0
  0
LINE
  5
245
330
17
100
AcDbEntity
  8
lens_outline
370
-3
100
AcDbLine
 10
101.6734693877551
 20
110.86734693877551
 30
0.0
 11
101.31292517006803
 21
110.86734693877551
 31
0.0
  0
LINE
  5
246
330
17
100
AcDbEntity
  8
lens_outline
370
-3
100
AcDbLine
 10
101.31292517006803
 20
110.86734693877551
 30
0.0
 11
101.13265306122449
 21
110.68707482993197
 31
0.0
  0
LINE
  5
247
330
17
100
AcDbEntity
  8
lens_outline
370
-3
100
AcDbLine
 10
101.13265306122449
 20
110.68707482993197
 30
0.0
 11
100.77210884353742
 21
110.68707482993197
 31
0.0
  0
LINE
  5
248
330
17
100
AcDbEntity
  8
lens_outline
370
-3
100
AcDbLine
 10
100.77210884353742
 20
110.68707482993197
 30
0.0
 11
100.59183673469389
 21
110.50680272108843
 31
0.0
  0
LINE
  5
249
330
17
100
AcDbEntity
  8
lens_outline
370
-3
100
AcDbLine
 10
100.59183673469389
 20
110.50680272108843
 30
0.0
 11
100.05102040816327
 21
110.50680272108843
 31
0.0
  0
LINE
  5
24A
330
17
100
AcDbEntity
  8
lens_outline
370
-3
100
AcDbLine
 10
100.05102040816327
 20
110.50680272108843
 30
0.0
 11
99.87074829931973
 21
110.3265306122449
 31
0.0
  0
LINE
  5
24B
330
17
100
AcDbEntity
  8
lens_outline
370
-3
100
AcDbLine
 10
99.87074829931973
 20
110.3265306122449
 30
0.0
 11
99.69047619047619
 21
110.3265306122449
 31
0.0
  0
LINE
  5
24C
330
17
100
AcDbEntity
  8
lens_outline
370
-3
100
AcDbLine
 10
99.69047619047619
 20
110.3265306122449
 30
0.0
 11
99.51020408163265
 21
110.14625850340137
 31
0.0
  0
LINE
  5
24D
330
17
100
AcDbEntity
  8
lens_outline
370
-3
100
AcDbLine
 10
99.51020408163265
 20
110.14625850340137
 30
0.0
 11
98.96938775510205
 21
110.14625850340137
 31
0.0
  0
LINE
  5
24E
330
17
100
AcDbEntity
  8
lens_outline
370
-3
100
AcDbLine
 10
98.96938775510205
 20
110.14625850340137
 30
0.0
 11
98.78911564625851
 21
109.96598639455783
 31
0.0
  0
LINE
  5
24F
330
17
100
AcDbEntity
  8
lens_outline
370
-3
100
AcDbLine
 10
98.78911564625851
 20
109.96598639455783
 30
0.0
 11
98.42857142857143
 21
109.96598639455783
 31
0.0
  0
LINE
  5
250
330
17
100
AcDbEntity
  8
lens_outline
370
-3
100
AcDbLine
 10
98.42857142857143
 20
109.96598639455783
 30
0.0
 11
98.24829931972789
 21
109.78571428571429
 31
0.0
  0
LINE
  5
251
330
17
100
AcDbEntity
  8
lens_outline
370
-3
100
AcDbLine
 10
98.24829931972789
 20
109.78571428571429
 30
0.0
 11
97.88775510204081
 21
109.78571428571429
 31
0.0
  0
LINE
  5
252
330
17
100
AcDbEntity
  8
lens_outline
370
-3
100
AcDbLine
 10
97.88775510204081
 20
109.78571428571429
 30
0.0
 11
97.70748299319729
 21
109.60544217687075
 31
0.0
  0
LINE
  5
253
330
17
100
AcDbEntity
  8
lens_outline
370
-3
100
AcDbLine
 10
97.70748299319729
 20
109.60544217687075
 30
0.0
 11
97.16666666666667
 21
109.60544217687075
 31
0.0
  0
LINE
  5
254
330
17
100
AcDbEntity
  8
lens_outline
370
-3
100
AcDbLine
 10
97.16666666666667
 20
109.60544217687075
 30
0.0
 11
96.98639455782313
 21
109.42517006802721
 31
0.0
  0
LINE
  5
255
330
17
100
AcDbEntity
  8
lens_outline
370
-3
100
AcDbLine
 10
96.98639455782313
 20
109.42517006802721
 30
0.0
 11
96.44557823129252
 21
109.42517006802721
 31
0.0
  0
LINE
  5
256
330
17
100
AcDbEntity
  8
lens_outline
370
-3
100
AcDbLine
 10
96.44557823129252
 20
109.42517006802721
 30
0.0
 11
96.26530612244898
 21
109.24489795918367
 31
0.0
  0
LINE
  5
257
330
17
100
AcDbEntity
  8
lens_outline
370
-3
100
AcDbLine
 10
96.26530612244898
 20
109.24489795918367
 30
0.0
 11
95.72448979591837
 21
109.24489795918367
 31
0.0
  0
LINE
  5
258
330
17
100
AcDbEntity
  8
lens_outline
370
-3
100
AcDbLine
 10
95.72448979591837
 20
109.24489795918367
 30
0.0
 11
95.54421768707483
 21
109.06462585034014
 31
0.0
  0
LINE
  5
259
330
17
100
AcDbEntity
  8
lens_outline
370
-3
100
AcDbLine
 10
95.54421768707483
 20
109.06462585034014
 30
0.0
 11
94.82312925170068
 21
109.06462585034014
 31
0.0
  0
LINE
  5
25A
330
17
100
AcDbEntity
  8
lens_outline
370
-3
100
AcDbLine
 10
94.82312925170068
 20
109.06462585034014
 30
0.0
 11
94.64285714285715
 21
108.8843537414966
 31
0.0
  0
LINE
  5
25B
330
17
100
AcDbEntity
  8
lens_outline
370
-3
100
AcDbLine
 10
94.64285714285715
 20
108.8843537414966
 30
0.0
 11
94.10204081632654
 21
108.8843537414966
 31
0.0
  0
LINE
  5
25C
330
17
100
AcDbEntity
  8
lens_outline
370
-3
100
AcDbLine
 10
94.10204081632654
 20
108.8843537414966
 30
0.0
 11
93.921768707483
 21
108.70408163265307
 31
0.0
  0
LINE
  5
25D
330
17
100
AcDbEntity
  8
lens_outline
370
-3
100
AcDbLine
 10
93.921768707483
 20
108.70408163265307
 30
0.0
 11
93.02040816326532
 21
108.70408163265307
 31
0.0
  0
LINE
  5
25E
330
17
100
AcDbEntity
  8
lens_outline
370
-3
100
AcDbLine
 10
93.02040816326532
 20
108.70408163265307
 30
0.0
 11
92.84013605442178
 21
108.52380952380953
 31
0.0
  0
LINE
  5
25F
330
17
100
AcDbEntity
  8
lens_outline
370
-3
100
AcDbLine
 10
92.84013605442178
 20
108.52380952380953
 30
0.0
 11
92.11904761904762
 21
108.52380952380953
 31
0.0
  0
LINE
  5
260
330
17
100
AcDbEntity
  8
lens_outline
370
-3
100
AcDbLine
 10
92.11904761904762
 20
108.52380952380953
 30
0.0
 11
91.93877551020408
 21
108.343537414966
 31
0.0
  0
LINE
  5
261
330
17
100
AcDbEntity
  8
lens_outline
370
-3
100
AcDbLine
 10
91.93877551020408
 20
108.343537414966
 30
0.0
 11
89.77551020408164
 21
108.343537414966
 31
0.0
  0
LINE
  5
262
330
17
100
AcDbEntity
  8
lens_outline
370
-3
100
AcDbLine
 10
89.77551020408164
 20
108.343537414966
 30
0.0
 11
89.5952380952381
 21
108.16326530612245
 31
0.0
  0
LINE
  5
263
330
17
100
AcDbEntity
  8
lens_outline
370
-3
100
AcDbLine
 10
89.5952380952381
 20
108.16326530612245
 30
0.0
 11
88.1530612244898
 21
108.16326530612245
 31
0.0
  0
LINE
  5
264
330
17
100
AcDbEntity
  8
lens_outline
370
-3
100
AcDbLine
 10
88.1530612244898
 20
108.16326530612245
 30
0.0
 11
87.97278911564626
 21
107.98299319727892
 31
0.0
  0
LINE
  5
265
330
17
100
AcDbEntity
  8
lens_outline
370
-3
100
AcDbLine
 10
87.97278911564626
 20
107.98299319727892
 30
0.0
 11
85.62925170068027
 21
107.98299319727892
 31
0.0
  0
LINE
  5
266
330
17
100
AcDbEntity
  8
lens_outline
370
-3
100
AcDbLine
 10
85.62925170068027
 20
107.98299319727892
 30
0.0
 11
85.44897959183673
 21
107.80272108843538
 31
0.0
  0
LINE
  5
267
330
17
100
AcDbEntity
  8
lens_outline
370
-3
100
AcDbLine
 10
85.44897959183673
 20
107.80272108843538
 30
0.0
 11
73.91156462585035
 21
107.80272108843538
 31
0.0
  0
ENDSEC
  0
SECTION
  2
OBJECTS
  0
DICTIONARY
  5
A
330
0
100
AcDbDictionary
280
0
281
1
  3
ACAD_COLOR
350
B
  3
ACAD_GROUP
350
C
  3
ACAD_LAYOUT
350
D
  3
ACAD_MATERIAL
350
E
  3
ACAD_MLEADERSTYLE
350
F
  3
ACAD_MLINESTYLE
350
10
  3
ACAD_PLOTSETTINGS
350
11
  3
ACAD_PLOTSTYLENAME
350
12
  3
ACAD_SCALELIST
350
14
  3
ACAD_TABLESTYLE
350
15
  3
ACAD_VISUALSTYLE
350
16
  3
EZDXF_META
350
2D
  0
DICTIONARY
  5
B
330
A
100
AcDbDictionary
280
0
281
1
  0
DICTIONARY
  5
C
330
A
100
AcDbDictionary
280
0
281
1
  0
DICTIONARY
  5
D
330
A
100
AcDbDictionary
280
0
281
1
  3
Model
350
1A
  3
Layout1
350
1E
  0
DICTIONARY
  5
E
330
A
100
AcDbDictionary
280
0
281
1
  3
ByBlock
350
1F
  3
ByLayer
350
20
  3
Global
350
21
  0
DICTIONARY
  5
F
330
A
100
AcDbDictionary
280
0
281
1
  3
Standard
350
2C
  0
DICTIONARY
  5
10
330
A
100
AcDbDictionary
280
0
281
1
  3
Standard
350
22
  0
DICTIONARY
  5
11
330
A
100
AcDbDictionary
280
0
281
1
  0
ACDBDICTIONARYWDFLT
  5
12
330
A
100
AcDbDictionary
280
0
281
1
  3
Normal
350
13
100
AcDbDictionaryWithDefault
340
13
  0
ACDBPLACEHOLDER
  5
13
330
12
  0
DICTIONARY
  5
14
330
A
100
AcDbDictionary
280
0
281
1
  0
DICTIONARY
  5
15
330
A
100
AcDbDictionary
280
0
281
1
  0
DICTIONARY
  5
16
330
A
100
AcDbDictionary
280
0
281
1
  0
LAYOUT
  5
1A
330
D
100
AcDbPlotSettings
  1

  2
Adobe PDF
  4
A3
  6

 40
7.5
 41
20.0
 42
7.5
 43
20.0
 44
420.0
 45
297.0
 46
0.0
 47
0.0
 48
0.0
 49
0.0
140
0.0
141
0.0
142
1.0
143
1.0
 70
1024
 72
1
 73
0
 74
5
  7

 75
16
 76
0
 77
2
 78
300
147
1.0
148
0.0
149
0.0
100
AcDbLayout
  1
Model
 70
1
 71
0
 10
0.0
 20
0.0
 11
420.0
 21
297.0
 12
0.0
 22
0.0
 32
0.0
 14
1e+20
 24
1e+20
 34
1e+20
 15
-1e+20
 25
-1e+20
 35
-1e+20
146
0.0
 13
0.0
 23
0.0
 33
0.0
 16
1.0
 26
0.0
 36
0.0
 17
0.0
 27
1.0
 37
0.0
 76
1
330
17
  0
LAYOUT
  5
1E
330
D
100
AcDbPlotSettings
  1

  2
Adobe PDF
  4
A3
  6

 40
7.5
 41
20.0
 42
7.5
 43
20.0
 44
420.0
 45
297.0
 46
0.0
 47
0.0
 48
0.0
 49
0.0
140
0.0
141
0.0
142
1.0
143
1.0
 70
0
 72
1
 73
0
 74
5
  7

 75
16
 76
0
 77
2
 78
300
147
1.0
148
0.0
149
0.0
100
AcDbLayout
  1
Layout1
 70
1
 71
1
 10
0.0
 20
0.0
 11
420.0
 21
297.0
 12
0.0
 22
0.0
 32
0.0
 14
1e+20
 24
1e+20
 34
1e+20
 15
-1e+20
 25
-1e+20
 35
-1e+20
146
0.0
 13
0.0
 23
0.0
 33
0.0
 16
1.0
 26
0.0
 36
0.0
 17
0.0
 27
1.0
 37
0.0
 76
1
330
1B
  0
MATERIAL
  5
1F
102
{ACAD_REACTORS
330
E
102
}
330
E
100
AcDbMaterial
  1
ByBlock
  2

 70
0
 40
1.0
 71
1
 41
1.0
 91
-1023410177
 42
1.0
 72
1
  3

 73
1
 74
1
 75
1
 44
0.5
 73
0
 45
1.0
 46
1.0
 77
1
  4

 78
1
 79
1
170
1
 48
1.0
171
1
  6

172
1
173
1
174
1
140
1.0
141
1.0
175
1
  7

176
1
177
1
178
1
143
1.0
179
1
  8

270
1
271
1
272
1
145
1.0
146
1.0
273
1
  9

274
1
275
1
276
1
 42
1.0
 72
1
  3

 73
1
 74
1
 75
1
 94
63
  0
MATERIAL
  5
20
102
{ACAD_REACTORS
330
E
102
}
330
E
100
AcDbMaterial
  1
ByLayer
  2

 70
0
 40
1.0
 71
1
 41
1.0
 91
-1023410177
 42
1.0
 72
1
  3

 73
1
 74
1
 75
1
 44
0.5
 73
0
 45
1.0
 46
1.0
 77
1
  4

 78
1
 79
1
170
1
 48
1.0
171
1
  6

172
1
173
1
174
1
140
1.0
141
1.0
175
1
  7

176
1
177
1
178
1
143
1.0
179
1
  8

270
1
271
1
272
1
145
1.0
146
1.0
273
1
  9

274
1
275
1
276
1
 42
1.0
 72
1
  3

 73
1
 74
1
 75
1
 94
63
  0
MATERIAL
  5
21
102
{ACAD_REACTORS
330
E
102
}
330
E
100
AcDbMaterial
  1
Global
  2

 70
0
 40
1.0
 71
1
 41
1.0
 91
-1023410177
 42
1.0
 72
1
  3

 73
1
 74
1
 75
1
 44
0.5
 73
0
 45
1.0
 46
1.0
 77
1
  4

 78
1
 79
1
170
1
 48
1.0
171
1
  6

172
1
173
1
174
1
140
1.0
141
1.0
175
1
  7

176
1
177
1
178
1
143
1.0
179
1
  8

270
1
271
1
272
1
145
1.0
146
1.0
273
1
  9

274
1
275
1
276
1
 42
1.0
 72
1
  3

 73
1
 74
1
 75
1
 94
63
  0
MLINESTYLE
  5
22
102
{ACAD_REACTORS
330
10
102
}
330
10
100
AcDbMlineStyle
  2
Standard
 70
0
  3

 62
256
 51
90.0
 52
90.0
 71
2
 49
0.5
 62
256
  6
BYLAYER
 49
-0.5
 62
256
  6
BYLAYER
  0
MLEADERSTYLE
  5
2C
102
{ACAD_REACTORS
330
F
102
}
330
F
100
AcDbMLeaderStyle
179
2
170
2
171
1
172
0
 90
2
 40
0.0
 41
0.0
173
1
 91
-1056964608
 92
-2
290
1
 42
2.0
291
1
 43
8.0
  3
Standard
 44
4.0
300

342
29
174
1
175
1
176
0
178
1
 93
-1056964608
 45
4.0
292
0
297
0
 46
4.0
 94
-1056964608
 47
1.0
 49
1.0
140
1.0
294
1
141
0.0
177
0
142
1.0
295
0
296
0
143
3.75
271
0
272
9
273
9
  0
DICTIONARY
  5
2D
330
A
100
AcDbDictionary
281
1
  3
CREATED_BY_EZDXF
350
2E
  3
WRITTEN_BY_EZDXF
350
26A
  0
DICTIONARYVAR
  5
2E
330
2D
100
DictionaryVariables
280
0
  1
1.2.0 @ 2024-04-25T16:46:47.565411+00:00
  0
DICTIONARYVAR
  5
26A
330
2D
100
DictionaryVariables
280
0
  1
1.2.0 @ 2024-04-25T16:46:47.625368+00:00
  0
ENDSEC
  0
EOF
